<svg width="1296" height="1284" viewBox="0 0 1296 1284" fill="none" xmlns="http://www.w3.org/2000/svg">
<path d="M529.031 357.363L534.094 359.871L544.219 373.664L554.344 384.949L568.266 394.98L588.516 408.773L602.438 420.059L611.297 428.836L622.688 446.391L626.484 452.66L644.203 447.645V413.789L640.406 396.234V386.203L646.734 381.188L656.859 377.426H666.984L672.047 388.711L675.844 403.758L677.109 413.789V435.105L673.312 457.676L672.047 461.438L677.109 460.184L685.969 442.629L699.891 426.328L717.609 412.535L734.062 402.504L747.984 394.98L764.438 384.949L778.359 373.664L789.75 358.617H793.547L796.078 366.141L797.344 374.918V408.773L792.281 428.836L783.422 445.137L780.891 448.898L810 436.359L823.922 427.582L834.047 417.551L844.172 401.25L847.969 398.742L850.5 401.25L849.234 431.344L845.438 450.152L840.375 462.691L832.781 475.23L830.25 477.738H841.641L865.688 473.977L880.875 468.961L897.328 460.184H899.859V468.961L892.266 487.77L880.875 505.324L870.75 515.355L858.094 522.879L845.438 527.895H839.109V530.402L845.438 532.91L859.359 541.688L873.281 552.973L882.141 561.75L894.797 578.051L903.656 593.098L911.25 611.906L917.578 635.73L918.844 643.254L920.109 669.586L918.844 695.918L915.047 720.996L907.453 751.09L899.859 773.66L892.266 792.469L879.609 816.293L866.953 838.863L849.234 866.449L834.047 887.766L813.797 914.098L797.344 935.414L785.953 949.207L770.766 966.762L756.844 981.809L747.984 991.84L737.859 1001.87L727.734 1010.65L712.547 1023.19L698.625 1031.96L682.172 1039.49L663.188 1044.5H648L626.484 1039.49L606.234 1029.46L589.781 1018.17L570.797 1001.87L542.953 974.285L531.562 960.492L518.906 946.699L507.516 932.906L494.859 917.859L461.953 872.719L449.297 853.91L431.578 823.816L421.453 805.008L406.266 771.152L394.875 736.043L388.547 704.695L387.281 693.41L386.016 662.062L388.547 633.223L394.875 609.398L401.203 593.098L412.594 574.289L426.516 559.242L436.641 549.211L455.625 536.672L465.75 530.402L451.828 526.641L436.641 519.117L423.984 507.832L416.391 497.801L406.266 477.738L402.469 466.453V461.438L410.062 462.691L422.719 471.469L437.906 477.738L461.953 481.5L477.141 482.754L469.547 472.723L461.953 460.184L455.625 438.867L453.094 421.312V399.996L458.156 398.742L470.812 415.043L479.672 423.82L496.125 433.852L520.172 443.883L540.422 453.914V452.66L532.828 440.121L526.5 423.82L523.969 412.535V377.426L527.766 358.617L529.031 357.363ZM504.984 527.895L493.594 531.656V534.164L501.188 532.91L508.781 529.148L504.984 527.895ZM503.719 909.082L504.984 912.844V909.082H503.719Z" fill="#BD4E4D"/>
<path d="M529.031 357.363L534.094 359.871L544.219 373.664L554.344 384.949L568.266 394.98L588.516 408.773L602.438 420.059L611.297 428.836L622.688 446.391L626.484 452.66L644.203 447.645V413.789L640.406 396.234V386.203L646.734 381.188L656.859 377.426H666.984L672.047 388.711L675.844 403.758L677.109 413.789V435.105L673.312 457.676L672.047 461.438L677.109 460.184L685.969 442.629L699.891 426.328L717.609 412.535L734.062 402.504L747.984 394.98L764.438 384.949L778.359 373.664L789.75 358.617H793.547L796.078 366.141L797.344 374.918V408.773L792.281 428.836L783.422 445.137L780.891 448.898L810 436.359L823.922 427.582L834.047 417.551L844.172 401.25L847.969 398.742L850.5 401.25L849.234 431.344L845.438 450.152L840.375 462.691L832.781 475.23L830.25 477.738H841.641L865.688 473.977L880.875 468.961L897.328 460.184H899.859V468.961L892.266 487.77L880.875 505.324L870.75 515.355L858.094 522.879L845.438 527.895H839.109V530.402L845.438 532.91L859.359 541.688L873.281 552.973L882.141 561.75L894.797 578.051L903.656 593.098L911.25 611.906L917.578 635.73L918.844 643.254L920.109 669.586L918.844 695.918L915.047 720.996L907.453 751.09L899.859 773.66L892.266 792.469L879.609 816.293L866.953 838.863L849.234 866.449L834.047 887.766L813.797 914.098L797.344 935.414L785.953 949.207L770.766 966.762L756.844 981.809L747.984 991.84L737.859 1001.87L727.734 1010.65L712.547 1023.19L698.625 1031.96L682.172 1039.49L663.188 1044.5H648L626.484 1039.49L606.234 1029.46L589.781 1018.17L570.797 1001.87L542.953 974.285L531.562 960.492L518.906 946.699L507.516 932.906L494.859 917.859L461.953 872.719L449.297 853.91L431.578 823.816L421.453 805.008L406.266 771.152L394.875 736.043L388.547 704.695L387.281 693.41L386.016 662.062L388.547 633.223L394.875 609.398L401.203 593.098L412.594 574.289L426.516 559.242L436.641 549.211L455.625 536.672L465.75 530.402L451.828 526.641L436.641 519.117L423.984 507.832L416.391 497.801L406.266 477.738L402.469 466.453V461.438L410.062 462.691L422.719 471.469L437.906 477.738L461.953 481.5L477.141 482.754L469.547 472.723L461.953 460.184L455.625 438.867L453.094 421.312V399.996L458.156 398.742L470.812 415.043L479.672 423.82L496.125 433.852L520.172 443.883L540.422 453.914V452.66L532.828 440.121L526.5 423.82L523.969 412.535V377.426L527.766 358.617L529.031 357.363ZM782.156 524.133L783.422 530.402V541.688L778.359 549.211L769.5 555.48L756.844 557.988L741.656 554.227L732.797 557.988H723.938L715.078 556.734L723.938 583.066L730.266 608.145L736.594 620.684L740.391 623.191V614.414L744.188 608.145L745.453 604.383H754.312L756.844 609.398H759.375L760.641 615.668V635.73L759.375 643.254H756.844L755.578 645.762L751.781 647.016L749.25 640.746L742.922 634.477L722.672 630.715L703.688 623.191L692.297 616.922L680.906 608.145L672.047 599.367L660.656 581.812L654.328 565.512H646.734L641.672 580.559L632.812 595.605L621.422 608.145L612.562 616.922L594.844 626.953L580.922 633.223L570.797 635.73H563.203V633.223L556.875 630.715L551.812 640.746L558.141 642H569.531L585.984 639.492L602.438 633.223L611.297 634.477L615.094 640.746V654.539L610.031 667.078L597.375 684.633L593.578 688.395L591.047 678.363L585.984 672.094L577.125 670.84L569.531 677.109V694.664L574.594 705.949L573.328 710.965L563.203 718.488V720.996L558.141 722.25L549.281 732.281L542.953 729.773H534.094V722.25L540.422 714.727L539.156 709.711L535.359 699.68L532.828 697.172L525.234 695.918H515.109L510.047 698.426L502.453 712.219V720.996L498.656 722.25L497.391 729.773L496.125 764.883L494.859 781.184H488.531L483.469 788.707L478.406 794.977L467.016 797.484L455.625 793.723L449.297 788.707L441.703 773.66L432.844 746.074L425.25 698.426L423.984 667.078L426.516 648.27L432.844 630.715L441.703 616.922L453.094 606.891L467.016 600.621L482.203 595.605L493.594 594.352L494.859 611.906L498.656 616.922L504.984 615.668L515.109 603.129L518.906 594.352L520.172 580.559L531.562 579.305L536.625 583.066L537.891 588.082V603.129L534.094 636.984L531.562 638.238L532.828 644.508L536.625 647.016L541.688 645.762L539.156 642L537.891 635.73V623.191L541.688 611.906L546.75 606.891H554.344L558.141 610.652L560.672 626.953L568.266 628.207L573.328 618.176L578.391 599.367L583.453 566.766L584.719 561.75L572.062 565.512H563.203L554.344 560.496L548.016 559.242L540.422 561.75H531.562L522.703 557.988L516.375 551.719L511.312 542.941V526.641L499.922 529.148L493.594 531.656L494.859 535.418L479.672 542.941L463.219 554.227L448.031 568.02L437.906 579.305L426.516 596.859L420.188 610.652L415.125 626.953L411.328 647.016V693.41L416.391 727.266L423.984 754.852L434.109 781.184L450.562 817.547L468.281 851.402L487.266 882.75L501.188 904.066L502.453 909.082L510.047 921.621L527.766 942.938L540.422 956.73L549.281 966.762L563.203 981.809L579.656 998.109L593.578 1009.39L607.5 1019.43L626.484 1029.46L639.141 1033.22L648 1034.47H665.719L678.375 1031.96L696.094 1023.19L715.078 1009.39L730.266 995.602L746.719 980.555L760.641 965.508L772.031 951.715L783.422 939.176L797.344 921.621L816.328 896.543L828.984 878.988L844.172 856.418L854.297 840.117L870.75 812.531L883.406 786.199L888.469 773.66L898.594 743.566L904.922 715.98L908.719 685.887V662.062L906.188 635.73L901.125 616.922L896.062 601.875L885.938 583.066L874.547 569.273L855.562 550.465L836.578 537.926L822.656 531.656L789.75 525.387L782.156 524.133Z" fill="#6F3D38"/>
<path d="M782.156 524.133L796.078 526.641L826.453 532.91L842.906 541.688L858.094 552.973L878.344 573.035L889.734 589.336L897.328 604.383L904.922 629.461L907.453 644.508L908.719 662.062V685.887L904.922 715.98L898.594 743.566L888.469 773.66L882.141 788.707L868.219 817.547L853.031 842.625L835.312 870.211L817.594 894.035L804.938 911.59L791.016 929.145L779.625 942.938L764.438 960.492L747.984 979.301L736.594 990.586L726.469 999.363L712.547 1011.9L693.562 1024.44L687.234 1028.2L673.312 1033.22L665.719 1034.47H648L635.344 1031.96L625.219 1028.2L607.5 1019.43L593.578 1009.39L575.859 994.348L573.328 990.586L575.859 986.824H579.656L575.859 973.031L577.125 966.762L578.391 965.508H587.25L594.844 970.523H599.906L617.625 960.492L634.078 947.953L646.734 936.668L659.391 924.129L670.781 910.336L677.109 901.559H679.641L682.172 896.543L689.766 885.258H692.297L694.828 878.988L707.484 863.941L725.203 840.117L741.656 817.547L754.312 801.246L766.969 783.691L782.156 762.375L799.875 732.281L816.328 698.426L823.922 678.363L828.984 652.031V614.414L822.656 588.082L820.125 580.559H811.266L804.938 574.289L794.812 561.75H785.953L764.438 568.02L750.516 569.273L729 568.02L736.594 586.828L740.391 603.129V606.891L744.188 608.145L740.391 614.414V623.191L734.062 616.922L729 604.383L721.406 574.289L715.078 556.734L732.797 557.988L744.188 554.227L749.25 556.734L759.375 557.988L770.766 554.227L780.891 546.703L783.422 541.688V530.402L782.156 524.133Z" fill="#9E3B3B"/>
<path d="M525.234 578.051L534.094 579.305L537.891 583.066L539.156 588.082V603.129L535.359 636.984L531.562 638.238L535.359 645.762L545.484 647.016L551.812 640.746H569.531L585.984 638.238L602.438 631.969L611.297 633.223L616.359 640.746V654.539L611.297 667.078L598.641 684.633L593.578 689.648L589.781 678.363L583.453 672.094L574.594 673.348L570.797 677.109V694.664L575.859 705.949L574.594 710.965L565.734 718.488H563.203V720.996L558.141 722.25L555.609 727.266L548.016 733.535L542.953 731.027H532.828V722.25L536.625 717.234H539.156V710.965L534.094 699.68L525.234 697.172H515.109L510.047 698.426L507.516 704.695L503.719 712.219V720.996L498.656 722.25L497.391 764.883L496.125 778.676L492.328 782.438L488.531 781.184L486 787.453L478.406 796.23L467.016 798.738L455.625 794.977L448.031 788.707L440.438 773.66L431.578 746.074L423.984 698.426L422.719 667.078L425.25 648.27L431.578 630.715L440.438 616.922L449.297 608.145L467.016 599.367L482.203 594.352H493.594L496.125 611.906L498.656 615.668L504.984 614.414L515.109 600.621L517.641 594.352L518.906 580.559L525.234 578.051Z" fill="#D0837D"/>
<path d="M649.266 234.48H661.922L670.781 242.004L672.047 253.289L668.25 260.812L661.922 263.32L669.516 285.891L679.641 309.715L683.438 310.969L685.969 305.953L702.422 282.129L703.688 277.113L701.156 273.352V263.32L706.219 257.051L708.75 255.797H718.875L726.469 260.812L727.734 263.32V274.605L721.406 280.875L718.875 282.129V302.191L722.672 319.746L731.531 312.223L747.984 294.668L753.047 288.398L751.781 275.859L755.578 269.59L760.641 265.828L772.031 267.082L778.359 273.352L779.625 280.875L775.828 289.652L770.766 292.16L763.172 293.414L753.047 326.016L746.719 356.109L744.188 377.426L742.922 379.934L726.469 378.68L697.359 374.918L674.578 373.664H625.219L589.781 377.426L580.922 378.68H567L563.203 349.84L556.875 324.762L548.016 294.668L536.625 289.652L532.828 284.637V274.605L539.156 267.082L550.547 265.828L556.875 269.59L559.406 273.352V284.637L558.141 288.398L569.531 302.191L585.984 318.492V321L588.516 319.746L592.312 304.699L593.578 294.668V282.129L585.984 275.859L584.719 273.352V262.066L591.047 255.797L593.578 254.543L604.969 255.797L611.297 263.32V273.352L610.031 280.875L620.156 298.43L627.75 308.461V310.969H631.547L634.078 303.445L644.203 279.621L648 267.082V263.32L641.672 257.051L640.406 254.543V244.512L644.203 238.242L649.266 234.48Z" fill="#D8BA84"/>
<path d="M649.266 234.48H661.922L670.781 242.004L672.047 253.289L668.25 260.812L661.922 263.32L669.516 285.891L679.641 309.715L683.438 310.969L685.969 305.953L702.422 282.129L703.688 277.113L701.156 273.352V263.32L706.219 257.051L708.75 255.797H718.875L726.469 260.812L727.734 263.32V274.605L721.406 280.875L718.875 282.129V302.191L722.672 319.746L731.531 312.223L747.984 294.668L753.047 288.398L751.781 275.859L755.578 269.59L760.641 265.828L772.031 267.082L778.359 273.352L779.625 280.875L775.828 289.652L770.766 292.16L763.172 293.414L753.047 326.016L746.719 356.109L744.188 377.426L742.922 379.934L726.469 378.68L697.359 374.918L674.578 373.664H625.219L589.781 377.426L580.922 378.68H567L563.203 349.84L556.875 324.762L548.016 294.668L536.625 289.652L532.828 284.637V274.605L539.156 267.082L550.547 265.828L556.875 269.59L559.406 273.352V284.637L558.141 288.398L569.531 302.191L585.984 318.492V321L588.516 319.746L592.312 304.699L593.578 294.668V282.129L585.984 275.859L584.719 273.352V262.066L591.047 255.797L593.578 254.543L604.969 255.797L611.297 263.32V273.352L610.031 280.875L620.156 298.43L627.75 308.461V310.969H631.547L634.078 303.445L644.203 279.621L648 267.082V263.32L641.672 257.051L640.406 254.543V244.512L644.203 238.242L649.266 234.48ZM655.594 268.336L646.734 292.16L636.609 312.223L632.812 318.492L626.484 317.238L616.359 304.699L602.438 283.383H601.172L597.375 312.223L592.312 326.016V328.523L584.719 326.016L574.594 317.238L555.609 298.43L559.406 310.969L568.266 342.316L573.328 372.41L596.109 369.902L620.156 367.395H680.906L711.281 369.902L729 372.41H736.594L739.125 363.633L744.188 334.793L751.781 308.461L753.047 300.938L737.859 315.984L729 326.016L725.203 328.523L718.875 327.27L715.078 319.746L712.547 305.953L711.281 283.383L707.484 287.145L692.297 308.461L682.172 319.746L677.109 318.492L665.719 294.668L656.859 268.336H655.594Z" fill="#784540"/>
<path d="M839.109 541.688L844.172 542.941L858.094 552.973L878.344 573.035L889.734 589.336L897.328 604.383L904.922 629.461L907.453 644.508L908.719 662.062V685.887L904.922 715.98L898.594 743.566L888.469 773.66L882.141 788.707L868.219 817.547L853.031 842.625L835.312 870.211L817.594 894.035L804.938 911.59L791.016 929.145L779.625 942.938L764.438 960.492L747.984 979.301L736.594 990.586L726.469 999.363L712.547 1011.9L693.562 1024.44L687.234 1028.2L673.312 1033.22L665.719 1034.47H648L635.344 1031.96L625.219 1028.2L607.5 1019.43L594.844 1010.65V1006.89H597.375L598.641 1004.38L616.359 1016.92L629.016 1023.19L640.406 1025.7H655.594L674.578 1021.93L687.234 1016.92L702.422 1005.63L718.875 993.094L732.797 983.062L742.922 970.523L751.781 961.746L753.047 959.238H755.578L758.109 954.223L766.969 944.191L778.359 929.145L794.812 907.828L806.203 892.781L818.859 873.973L837.844 845.133L847.969 828.832L861.891 802.5L878.344 766.137L887.203 737.297L893.531 705.949L894.797 693.41V645.762L891 625.699L883.406 605.637L869.484 579.305L861.891 569.273L856.828 561.75L841.641 550.465L840.375 545.449H837.844L839.109 541.688Z" fill="#BC4D4C"/>
<path d="M739.125 466.453H751.781L758.109 470.215L763.172 476.484V486.516L756.844 495.293L750.516 501.562L747.984 505.324L753.047 502.816L758.109 496.547L765.703 487.77L768.234 486.516H775.828L783.422 491.531L788.484 499.055V511.594L780.891 520.371H769.5L751.781 515.355L754.312 519.117L770.766 522.879L779.625 529.148V540.434L770.766 550.465L764.438 552.973H751.781L745.453 547.957L742.922 522.879V521.625L736.594 520.371L741.656 524.133V546.703L736.594 551.719L734.062 552.973H720.141L708.75 542.941L707.484 539.18V530.402L710.016 524.133L716.344 520.371L725.203 517.863H730.266V520.371H727.734V524.133L734.062 519.117L732.797 512.848L735.328 507.832H732.797L730.266 512.848V515.355L721.406 517.863H710.016L701.156 506.578L703.688 501.562L706.219 482.754L707.484 481.5H722.672V484.008H725.203L729 490.277V486.516V475.23L735.328 468.961L739.125 466.453Z" fill="#D7AD83"/>
<path d="M491.062 530.402L494.859 531.656L493.594 534.164L497.391 535.418L479.672 544.195L463.219 555.48L448.031 569.273L439.172 579.305L427.781 596.859L421.453 610.652L416.391 626.953L412.594 647.016V693.41L417.656 727.266L425.25 754.852L435.375 781.184L451.828 817.547L469.547 851.402L488.531 882.75L502.453 904.066L503.719 911.59L497.391 905.32L479.672 881.496L454.359 843.879L448.031 832.594L441.703 822.562L429.047 797.484L422.719 783.691L417.656 771.152L407.531 744.82L399.938 713.473L397.406 697.172V639.492L402.469 618.176L410.062 598.113L418.922 583.066L427.781 571.781L444.234 555.48L460.688 544.195L465.75 542.941V540.434L482.203 532.91L491.062 530.402Z" fill="#FBF8F6"/>
<path d="M785.953 376.172H787.219V387.457L782.156 408.773L777.094 415.043L775.828 408.773L765.703 422.566L755.578 435.105L746.719 443.883L735.328 451.406H731.531V448.898L723.938 447.645L715.078 450.152L708.75 455.168L706.219 453.914L721.406 438.867L707.484 448.898L696.094 463.945L694.828 466.453L685.969 463.945L684.703 461.438L692.297 447.645L696.094 441.375H698.625L701.156 436.359L716.344 422.566L729 413.789L753.047 401.25L766.969 392.473H769.5V389.965L775.828 387.457V384.949L785.953 376.172Z" fill="#91AA64"/>
<path d="M504.984 838.863L512.578 840.117L521.438 853.91L535.359 876.48L544.219 889.02L556.875 907.828L567 924.129L568.266 932.906L563.203 936.668L551.812 935.414L548.016 932.906V917.859L542.953 904.066L536.625 899.051H530.297L527.766 901.559V917.859L522.703 912.844L508.781 892.781L496.125 873.973L497.391 871.465V851.402L496.125 845.133L501.188 840.117L504.984 838.863Z" fill="#CF827D"/>
<path d="M415.125 476.484L432.844 484.008L450.562 487.77L472.078 489.023H488.531L504.984 490.277L503.719 504.07H464.484L451.828 501.562L431.578 492.785L442.969 500.309L453.094 502.816V505.324H464.484L470.812 506.578H503.719L506.25 514.102H508.781L511.312 520.371L492.328 525.387H468.281L453.094 520.371L439.172 512.848L430.312 505.324L421.453 494.039L416.391 481.5L415.125 476.484Z" fill="#5D7943"/>
<path d="M534.094 374.918L536.625 376.172V378.68H539.156L548.016 388.711L559.406 398.742L579.656 411.281L594.844 425.074L597.375 427.582L596.109 431.344H593.578L596.109 432.598L594.844 437.613L584.719 430.09L575.859 423.82L580.922 430.09L591.047 438.867L599.906 448.898L596.109 460.184L593.578 463.945L588.516 461.438L569.531 450.152L560.672 440.121L551.812 427.582L544.219 408.773L541.688 394.98H539.156V405.012L534.094 402.504L532.828 401.25V378.68L534.094 374.918Z" fill="#91AA64"/>
<path d="M840.375 420.059H842.906L841.641 436.359L836.578 453.914L827.719 470.215L818.859 478.992L792.281 482.754L785.953 485.262L774.562 484.008L770.766 480.246L794.812 468.961L807.469 462.691H810L811.266 458.93L823.922 448.898L830.25 438.867H827.719L825.188 443.883L818.859 451.406L802.406 462.691L770.766 477.738H766.969L763.172 468.961L760.641 466.453L772.031 458.93L792.281 451.406L808.734 445.137L825.188 435.105L839.109 422.566L840.375 420.059Z" fill="#5D7943"/>
<path d="M646.734 565.512H654.328L663.188 586.828L674.578 601.875L684.703 611.906L698.625 620.684L718.875 629.461L736.594 633.223L745.453 635.73V636.984L734.062 638.238H715.078L696.094 631.969L682.172 623.191L669.516 611.906L658.125 600.621L650.531 588.082L635.344 608.145H632.812V610.652H630.281V613.16L616.359 624.445L599.906 634.477L585.984 639.492L569.531 642H558.141L551.812 640.746L556.875 630.715L563.203 633.223V635.73L575.859 634.477L592.312 628.207L608.766 619.43L621.422 608.145L630.281 599.367L640.406 583.066L645.469 570.527L646.734 565.512Z" fill="#9F3C3C"/>
<path d="M751.781 300.938L753.047 304.699L745.453 329.777L740.391 356.109L737.859 371.156L736.594 372.41L720.141 371.156L699.891 368.648L680.906 367.395V366.141L693.562 364.887L694.828 362.379H698.625L702.422 347.332L711.281 319.746L712.547 313.477H713.812L717.609 324.762L721.406 328.523L727.734 327.27L736.594 318.492L745.453 308.461L751.781 300.938Z" fill="#D0837E"/>
<path d="M607.5 537.926H617.625L618.891 550.465L611.297 568.02L603.703 586.828L592.312 609.398L598.641 603.129L608.766 583.066L616.359 564.258L620.156 563.004L627.75 568.02L626.484 574.289L617.625 590.59L608.766 601.875L593.578 616.922L580.922 625.699L577.125 626.953L578.391 620.684L582.188 609.398L584.719 598.113L587.25 575.543L593.578 556.734L601.172 545.449H603.703L604.969 540.434H607.5V537.926Z" fill="#91AA64"/>
<path d="M693.562 547.957L699.891 550.465L708.75 559.242L715.078 573.035L726.469 613.16L732.797 625.699L723.938 624.445L711.281 618.176L696.094 603.129L684.703 586.828L675.844 569.273L673.312 560.496L680.906 556.734H683.438L685.969 563.004L683.438 564.258V566.766H688.5L698.625 586.828L707.484 600.621L713.812 606.891L699.891 583.066L689.766 560.496L684.703 551.719L693.562 547.957Z" fill="#90AA63"/>
<path d="M460.688 416.297H463.219L472.078 426.328L474.609 427.582V430.09L480.938 432.598L492.328 440.121L516.375 450.152L532.828 456.422L542.953 462.691L541.688 466.453L535.359 465.199L537.891 468.961H540.422V472.723H516.375L496.125 462.691L482.203 451.406L477.141 445.137L474.609 443.883L482.203 456.422H478.406L473.344 453.914L467.016 451.406L461.953 430.09L460.688 416.297Z" fill="#91AA64"/>
<path d="M882.141 476.484L884.672 477.738L882.141 482.754L870.75 494.039L868.219 492.785L869.484 490.277L856.828 497.801L839.109 504.07L817.594 505.324H793.547L788.484 494.039L785.953 489.023L794.812 486.516L807.469 485.262H849.234L866.953 481.5L879.609 477.738L882.141 476.484Z" fill="#93A964"/>
<path d="M606.234 489.023H617.625L630.281 495.293L639.141 499.055L637.875 505.324L629.016 504.07V506.578H637.875L636.609 511.594L625.219 514.102L623.953 516.609L636.609 514.102L635.344 519.117L618.891 531.656L616.359 532.91H606.234L599.906 527.895L596.109 521.625L594.844 516.609V504.07L599.906 494.039L606.234 489.023Z" fill="#FAF7F5"/>
<path d="M787.219 373.664H789.75L791.016 383.695V396.234L788.484 415.043L782.156 431.344L777.094 441.375L765.703 453.914L755.578 462.691L744.188 461.438L732.797 465.199L725.203 471.469L722.672 476.484H708.75L715.078 470.215L730.266 458.93L744.188 448.898L749.25 447.645V445.137H751.781V442.629H754.312L756.844 437.613L766.969 426.328L774.562 412.535L775.828 406.266H777.094L778.359 412.535L782.156 405.012L785.953 387.457L787.219 373.664Z" fill="#5D7843"/>
<path d="M887.203 473.977H889.734L887.203 481.5L879.609 495.293L869.484 506.578L851.766 517.863L839.109 522.879L834.047 524.133H811.266L789.75 520.371L792.281 509.086L818.859 507.832L842.906 504.07L859.359 497.801L864.422 494.039L866.953 490.277H869.484L870.75 492.785L883.406 480.246L884.672 475.23L887.203 473.977Z" fill="#5E7A44"/>
<path d="M559.406 457.676H570.797L580.922 462.691L588.516 471.469V484.008L578.391 495.293L573.328 499.055H568.266L570.797 490.277H567L565.734 495.293H563.203V486.516H560.672V497.801H558.141L556.875 492.785L551.812 494.039L546.75 481.5V466.453L555.609 458.93L559.406 457.676Z" fill="#FAF6F4"/>
<path d="M634.078 456.422H650.531L659.391 461.438L663.188 466.453L661.922 477.738L659.391 490.277L656.859 491.531V487.77H654.328L653.062 494.039L650.531 489.023L649.266 478.992H646.734L648 484.008V494.039L644.203 490.277L639.141 491.531L636.609 495.293L630.281 492.785L622.688 486.516L618.891 480.246V468.961L623.953 461.438L634.078 456.422Z" fill="#FBF9F7"/>
<path d="M570.797 520.371L580.922 522.879L591.047 526.641L596.109 530.402V541.688L587.25 554.227L578.391 560.496L574.594 561.75H564.469L556.875 555.48L555.609 546.703L558.141 531.656L563.203 532.91L561.938 526.641H565.734L567 522.879L570.797 520.371Z" fill="#FAF6F3"/>
<path d="M659.391 383.695L663.188 384.949L668.25 403.758L669.516 411.281V443.883L666.984 458.93L664.453 461.438L654.328 452.66L650.531 451.406L651.797 441.375V417.551L648 397.488L646.734 389.965H649.266V387.457L659.391 383.695Z" fill="#5D7943"/>
<path d="M636.609 520.371H641.672L640.406 524.133H637.875L636.609 529.148L644.203 525.387L645.469 531.656L644.203 535.418H646.734V531.656H649.266L650.531 521.625H651.797L654.328 534.164L659.391 531.656L660.656 529.148L664.453 536.672V549.211L660.656 555.48L655.594 559.242L650.531 560.496H639.141L630.281 556.734L622.688 550.465V536.672L631.547 525.387L636.609 522.879V520.371Z" fill="#FAF7F4"/>
<path d="M521.438 476.484H534.094L541.688 478.992L549.281 492.785V497.801H546.75V495.293L539.156 492.785L545.484 499.055V502.816L535.359 500.309L534.094 509.086L540.422 510.34V512.848L527.766 516.609H517.641L511.312 511.594L508.781 507.832V491.531L513.844 482.754L521.438 476.484Z" fill="#FBF9F7"/>
<path d="M541.688 515.355H544.219V517.863L536.625 520.371V522.879H541.688V529.148L546.75 527.895L545.484 532.91H542.953V537.926H545.484V535.418H548.016L549.281 531.656L555.609 534.164L553.078 546.703L548.016 554.227L544.219 556.734H527.766L521.438 552.973L516.375 546.703L515.109 542.941V530.402L518.906 522.879L525.234 519.117L541.688 515.355Z" fill="#F9F4F0"/>
<path d="M415.125 476.484L432.844 484.008L450.562 487.77L472.078 489.023H488.531L504.984 490.277L503.719 504.07H464.484L451.828 501.562L431.578 492.785L445.5 501.562L441.703 502.816L422.719 492.785L415.125 478.992V476.484Z" fill="#92A964"/>
<path d="M461.953 619.43L472.078 620.684L477.141 625.699L478.406 628.207V642L474.609 657.047L468.281 667.078H459.422L453.094 660.809L451.828 643.254L450.562 635.73H448.031L449.297 629.461L455.625 621.938L461.953 619.43Z" fill="#FCFBFA"/>
<path d="M684.703 509.086H697.359L703.688 516.609V530.402L699.891 536.672L689.766 545.449L685.969 546.703H675.844L669.516 541.688L663.188 525.387L664.453 521.625L666.984 527.895H670.781L669.516 520.371H675.844L674.578 516.609H677.109V514.102H679.641V511.594L677.109 510.34L684.703 509.086Z" fill="#FBF9F7"/>
<path d="M674.578 466.453H683.438L692.297 471.469L701.156 481.5L702.422 486.516V495.293L694.828 504.07L691.031 505.324H677.109L673.312 502.816L674.578 500.309H678.375V497.801H672.047V495.293H675.844V491.531L670.781 492.785V490.277L665.719 491.531V487.77H664.453V478.992L668.25 471.469L674.578 466.453Z" fill="#FAF8F5"/>
<path d="M573.328 422.566L579.656 425.074L591.047 433.852L594.844 436.359L596.109 432.598L592.312 431.344L596.109 430.09L598.641 427.582L611.297 441.375L620.156 458.93L613.828 470.215V484.008L594.844 481.5L593.578 470.215L591.047 463.945H593.578L598.641 448.898L587.25 436.359L573.328 423.82V422.566Z" fill="#5D7943"/>
<path d="M646.734 478.992H649.266L653.062 492.785L654.328 487.77H656.859L658.125 494.039L653.062 496.547H650.531L659.391 497.801L663.188 505.324V511.594H665.719L666.984 509.086H684.703L679.641 511.594V514.102H677.109L675.844 520.371H669.516L670.781 527.895H666.984L664.453 522.879L661.922 525.387L659.391 519.117L665.719 520.371L666.984 516.609L663.188 515.355L659.391 516.609L654.328 515.355V522.879L653.062 525.387H655.594L656.859 520.371L660.656 526.641L659.391 531.656L654.328 535.418L650.531 526.641L649.266 531.656H646.734V535.418H644.203V526.641L640.406 529.148H636.609L637.875 524.133L640.406 522.879V519.117L645.469 517.863V520.371L651.797 519.117L650.531 516.609H636.609V514.102L630.281 516.609H623.953L625.219 512.848L636.609 510.34L640.406 505.324L639.141 502.816H642.938V500.309L635.344 496.547L639.141 490.277L644.203 489.023L646.734 492.785V478.992Z" fill="#D28F7F"/>
<path d="M831.516 430.09H834.047L835.312 436.359L830.25 446.391L821.391 456.422L818.859 453.914L827.719 443.883L830.25 438.867H827.719L825.188 443.883L818.859 451.406L802.406 462.691L770.766 477.738H766.969L763.172 468.961L760.641 466.453L772.031 458.93L792.281 451.406L808.734 445.137L825.188 435.105L831.516 430.09Z" fill="#93A965"/>
<path d="M725.203 517.863H730.266V520.371H727.734V524.133L734.062 521.625L730.266 529.148H732.797L735.328 524.133H737.859V531.656L740.391 529.148L741.656 531.656V546.703L736.594 551.719L734.062 552.973H720.141L708.75 542.941L707.484 539.18V530.402L710.016 524.133L716.344 520.371L725.203 517.863Z" fill="#FAF6F4"/>
<path d="M670.781 550.465L682.172 552.973L683.438 556.734L674.578 560.496L678.375 571.781L687.234 589.336L699.891 605.637L711.281 616.922L720.141 621.938L716.344 623.191L696.094 613.16L683.438 603.129L673.312 591.844L664.453 576.797L660.656 565.512L661.922 560.496L668.25 555.48L670.781 550.465Z" fill="#5D7943"/>
<path d="M751.781 519.117L766.969 521.625L777.094 526.641L779.625 529.148V540.434L770.766 550.465L764.438 552.973H751.781L745.453 547.957L744.188 524.133L746.719 527.895L750.516 531.656L749.25 522.879L755.578 527.895H758.109L759.375 522.879L751.781 521.625V519.117Z" fill="#F9F5F2"/>
<path d="M774.562 408.773L775.828 412.535L765.703 430.09L755.578 440.121L754.312 442.629H751.781V445.137H749.25V447.645L742.922 451.406L721.406 466.453L710.016 475.23L708.75 477.738L702.422 476.484L696.094 470.215L697.359 465.199L704.953 453.914L711.281 452.66L716.344 447.645L726.469 446.391L731.531 448.898V451.406L741.656 446.391L756.844 432.598L768.234 417.551L774.562 408.773Z" fill="#5D7943"/>
<path d="M768.234 486.516H775.828L783.422 491.531L788.484 499.055V511.594L780.891 520.371H769.5L758.109 516.609V515.355H764.438V511.594H755.578L760.641 509.086L763.172 504.07H754.312V500.309L758.109 496.547L765.703 487.77L768.234 486.516Z" fill="#FAF6F4"/>
<path d="M739.125 466.453H751.781L758.109 470.215L763.172 476.484V486.516L756.844 495.293L750.516 497.801L751.781 491.531H749.25L746.719 500.309L744.188 496.547L745.453 486.516L742.922 487.77L741.656 496.547L737.859 492.785H735.328L732.797 495.293L729 486.516V475.23L735.328 468.961L739.125 466.453Z" fill="#FAF8F6"/>
<path d="M488.531 667.078H497.391L503.719 672.094L506.25 678.363V688.395L502.453 700.934L494.859 709.711L489.797 708.457L483.469 695.918L482.203 690.902V674.602L488.531 667.078Z" fill="#6A3230"/>
<path d="M618.891 552.973L627.75 560.496L640.406 565.512L639.141 573.035L629.016 591.844L615.094 608.145L598.641 619.43L582.188 626.953L578.391 625.699L592.312 616.922L596.109 613.16H598.641L601.172 608.145L611.297 598.113L621.422 581.812L626.484 571.781L625.219 566.766L617.625 564.258L616.359 561.75L618.891 552.973Z" fill="#5D7943"/>
<path d="M503.719 575.543H513.844L518.906 581.812V594.352L512.578 606.891L504.984 615.668L498.656 616.922L494.859 611.906V589.336L499.922 579.305L503.719 575.543Z" fill="#68322F"/>
<path d="M789.75 575.543L797.344 576.797L803.672 583.066L806.203 590.59V609.398L802.406 618.176L796.078 616.922L788.484 608.145L783.422 596.859L782.156 591.844V583.066L787.219 576.797L789.75 575.543Z" fill="#66322F"/>
<path d="M642.938 623.191H653.062L658.125 628.207L659.391 630.715V645.762L654.328 660.809L649.266 665.824L644.203 663.316L637.875 650.777L636.609 647.016V633.223L640.406 625.699L642.938 623.191Z" fill="#65322F"/>
<path d="M756.844 731.027L765.703 734.789L768.234 739.805V751.09L761.906 763.629L754.312 769.898L746.719 772.406L744.188 769.898V744.82L749.25 734.789L751.781 732.281L756.844 731.027Z" fill="#66322F"/>
<path d="M797.344 667.078H806.203L811.266 672.094L813.797 678.363V693.41L808.734 705.949L806.203 708.457H801.141L793.547 697.172L791.016 689.648V673.348L797.344 667.078Z" fill="#66322F"/>
<path d="M546.75 605.637H554.344L559.406 610.652L560.672 614.414V623.191L555.609 635.73L548.016 645.762L545.484 648.27H541.688L537.891 642L536.625 635.73V623.191L540.422 611.906L546.75 605.637Z" fill="#67322F"/>
<path d="M644.203 734.789L653.062 736.043L658.125 743.566L659.391 754.852L654.328 769.898L649.266 776.168L644.203 774.914L637.875 764.883L635.344 757.359V744.82L639.141 738.551L644.203 734.789Z" fill="#65322F"/>
<path d="M577.125 670.84L585.984 672.094L591.047 678.363L592.312 680.871V695.918L587.25 708.457L583.453 712.219H578.391L569.531 694.664V677.109L577.125 670.84Z" fill="#693230"/>
<path d="M707.484 481.5H722.672V484.008H725.203L729 490.277V494.039H725.203L726.469 499.055L730.266 500.309L726.469 501.562V504.07H722.672L726.469 510.34L722.672 511.594L725.203 516.609L721.406 517.863H710.016L701.156 506.578L703.688 501.562L706.219 482.754L707.484 481.5Z" fill="#FBF8F6"/>
<path d="M534.094 729.773H542.953L549.281 736.043L553.078 744.82V761.121L550.547 769.898L544.219 768.645L535.359 761.121L529.031 751.09V737.297L534.094 729.773Z" fill="#6A3330"/>
<path d="M704.953 672.094L712.547 674.602L717.609 680.871V695.918L713.812 707.203L708.75 714.727L704.953 715.98L701.156 712.219L696.094 697.172V679.617L701.156 673.348L704.953 672.094Z" fill="#66322F"/>
<path d="M645.469 866.449H653.062L659.391 873.973L660.656 878.988V887.766L656.859 901.559L653.062 906.574H646.734L641.672 900.305L637.875 890.273V875.227L642.938 867.703L645.469 866.449Z" fill="#67322F"/>
<path d="M855.562 630.715H861.891L866.953 638.238L869.484 647.016V660.809L866.953 669.586L861.891 672.094L855.562 670.84L850.5 663.316L847.969 655.793V639.492L851.766 633.223L855.562 630.715Z" fill="#66322F"/>
<path d="M560.672 486.516H563.203V495.293L565.734 494.039L567 490.277H570.797L569.531 496.547L564.469 499.055L568.266 504.07L567 510.34H569.531L567 517.863L564.469 521.625L558.141 522.879L550.547 519.117L548.016 514.102L549.281 510.34L541.688 514.102H534.094V512.848H540.422V510.34H534.094L532.828 505.324L535.359 500.309L545.484 501.562L539.156 495.293V492.785L544.219 494.039L546.75 495.293V497.801H549.281V492.785L555.609 494.039L556.875 490.277L558.141 497.801H560.672V486.516Z" fill="#774039"/>
<path d="M469.547 451.406L474.609 453.914L480.938 456.422L486 457.676L497.391 466.453L515.109 475.23L511.312 480.246H508.781L506.25 487.77L503.719 489.023V486.516L492.328 484.008L480.938 476.484L472.078 463.945L468.281 452.66L469.547 451.406Z" fill="#5D7943"/>
<path d="M470.812 554.227H478.406L480.938 557.988V571.781L474.609 581.812L467.016 588.082L460.688 590.59L454.359 589.336L453.094 588.082V575.543L460.688 563.004L467.016 556.734L470.812 554.227Z" fill="#66322F"/>
<path d="M531.562 383.695H532.828L534.094 401.25L539.156 405.012V394.98H540.422L542.953 412.535L551.812 433.852L559.406 443.883L569.531 452.66L567 453.914L556.875 455.168L551.812 456.422L542.953 443.883L536.625 430.09L532.828 417.551L531.562 408.773V383.695Z" fill="#5D7943"/>
<path d="M588.516 791.215H597.375L602.438 793.723L606.234 801.246L607.5 806.262V818.801L603.703 828.832L596.109 827.578L587.25 817.547L583.453 806.262L584.719 794.977L588.516 791.215Z" fill="#67322F"/>
<path d="M499.922 788.707H510.047L516.375 794.977L520.172 806.262V817.547L517.641 825.07L512.578 826.324L499.922 815.039L496.125 807.516V793.723L499.922 788.707Z" fill="#67322F"/>
<path d="M437.906 633.223H446.766L451.828 638.238L453.094 643.254V659.555L449.297 668.332L444.234 673.348L439.172 672.094L432.844 657.047L431.578 652.031V642L435.375 634.477L437.906 633.223Z" fill="#6B3331"/>
<path d="M694.828 791.215L702.422 792.469L704.953 798.738H707.484L708.75 801.246V811.277L702.422 823.816L693.562 831.34L688.5 828.832L685.969 822.562V805.008L689.766 794.977L694.828 791.215Z" fill="#67322F"/>
<path d="M845.438 718.488H854.297L858.094 723.504L859.359 733.535L854.297 747.328L846.703 757.359L840.375 758.613L836.578 751.09V734.789L840.375 723.504L845.438 718.488Z" fill="#66322F"/>
<path d="M450.562 719.742L458.156 720.996L464.484 728.52L465.75 732.281V747.328L460.688 758.613L455.625 759.867L448.031 751.09L445.5 743.566V724.758L450.562 719.742Z" fill="#6A3230"/>
<path d="M826.453 551.719L832.781 554.227L840.375 563.004L844.172 570.527L846.703 586.828L845.438 589.336L836.578 588.082L823.922 576.797L820.125 570.527V555.48L826.453 551.719Z" fill="#67322F"/>
<path d="M555.609 845.133L561.938 846.387L568.266 853.91L572.062 863.941V881.496L570.797 884.004L564.469 882.75L554.344 873.973L549.281 863.941V851.402L555.609 845.133Z" fill="#66322F"/>
<path d="M783.422 788.707L792.281 789.961L794.812 793.723V806.262L789.75 816.293L780.891 823.816L773.297 825.07L772.031 823.816V803.754L775.828 793.723L783.422 788.707Z" fill="#67322F"/>
<path d="M649.266 966.762L656.859 969.27L660.656 973.031L661.922 976.793V986.824L658.125 996.855L651.797 1003.12L645.469 1000.62L640.406 991.84V975.539L645.469 968.016L649.266 966.762Z" fill="#66322F"/>
<path d="M736.594 847.641H744.188L747.984 852.656V865.195L742.922 875.227L735.328 881.496L729 882.75L725.203 878.988V865.195L730.266 852.656L736.594 847.641Z" fill="#66322F"/>
<path d="M530.297 897.797L539.156 899.051L545.484 906.574L549.281 917.859V929.145L546.75 932.906L539.156 931.652L530.297 921.621L526.5 914.098V901.559L530.297 897.797Z" fill="#69322F"/>
<path d="M849.234 777.422L858.094 778.676L860.625 781.184V791.215L855.562 803.754L847.969 813.785L842.906 812.531L840.375 810.023L839.109 803.754V794.977L844.172 781.184L849.234 777.422Z" fill="#67322F"/>
<path d="M603.703 911.59H611.297L617.625 919.113L620.156 927.891V941.684L617.625 946.699L612.562 945.445L603.703 937.922L598.641 927.891V917.859L601.172 912.844L603.703 911.59Z" fill="#66322F"/>
<path d="M813.797 837.609H820.125L823.922 841.371L825.188 851.402L821.391 861.434L816.328 868.957L811.266 872.719L806.203 871.465L803.672 866.449V853.91L808.734 842.625L813.797 837.609Z" fill="#67322F"/>
<path d="M578.391 965.508H587.25L594.844 970.523L599.906 978.047L601.172 981.809V991.84L598.641 996.855L589.781 994.348L582.188 988.078L577.125 979.301L575.859 969.27L578.391 965.508Z" fill="#66322F"/>
<path d="M768.234 897.797L775.828 899.051L778.359 902.812V911.59L773.297 921.621L763.172 930.398L758.109 931.652L755.578 929.145V916.605L760.641 904.066L765.703 899.051L768.234 897.797Z" fill="#67322F"/>
<path d="M479.672 838.863H489.797L497.391 847.641L498.656 851.402V871.465L492.328 870.211L483.469 863.941L477.141 852.656V841.371L479.672 838.863Z" fill="#6A3230"/>
<path d="M689.766 912.844L697.359 914.098L701.156 919.113V929.145L694.828 941.684L688.5 945.445L682.172 944.191L680.906 941.684V925.383L685.969 915.352L689.766 912.844Z" fill="#66322F"/>
<path d="M593.578 486.516H601.172L596.109 492.785L591.047 505.324V521.625L579.656 520.371L572.062 516.609L570.797 514.102L572.062 506.578V502.816L585.984 492.785L593.578 486.516Z" fill="#CB9B7A"/>
<path d="M715.078 963H722.672L726.469 966.762V978.047L721.406 986.824L713.812 993.094L704.953 994.348V978.047L711.281 965.508L715.078 963Z" fill="#67322F"/>
<path d="M649.266 388.711L653.062 389.965L659.391 408.773L661.922 418.805V426.328H659.391V430.09H656.859V440.121L655.594 448.898L651.797 450.152V417.551L648 397.488L646.734 389.965L649.266 388.711Z" fill="#91AB64"/>
<path d="M555.609 500.309H564.469L568.266 504.07L567 510.34H569.531L567 517.863L564.469 521.625L558.141 522.879L550.547 519.117L548.016 514.102L549.281 507.832L551.812 502.816L555.609 500.309Z" fill="#D0867E"/>
<path d="M749.25 491.531H751.781L753.047 499.055L747.984 501.562L746.719 495.293L749.25 491.531ZM742.922 486.516H745.453V496.547L746.719 502.816L735.328 506.578L731.531 505.324L730.266 515.355L723.938 514.102L721.406 510.34L725.203 509.086L722.672 504.07H726.469V501.562L729 500.309L725.203 496.547V494.039H729L730.266 491.531L732.797 490.277L734.062 492.785H739.125L740.391 494.039L742.922 486.516Z" fill="#BA866C"/>
<path d="M598.641 310.969L601.172 312.223L603.703 327.27V334.793L599.906 333.539V336.047L593.578 337.301L594.844 338.555V347.332L593.578 349.84H591.047V352.348H588.516L585.984 344.824V338.555H589.781V336.047L584.719 333.539L583.453 332.285L584.719 328.523H592.312L596.109 315.984L598.641 310.969Z" fill="#F9F6F3"/>
<path d="M774.562 408.773L775.828 412.535L765.703 430.09L755.578 440.121L754.312 442.629H751.781V445.137H749.25V447.645L742.922 451.406L721.406 466.453L707.484 476.484H704.953L706.219 472.723L723.938 458.93L734.062 452.66L737.859 448.898L750.516 438.867L763.172 425.074L773.297 410.027L774.562 408.773Z" fill="#633C31"/>
<path d="M525.234 741.059H527.766L531.562 753.598L536.625 761.121V763.629H529.031L513.844 759.867L511.312 752.344L513.844 751.09V753.598L518.906 752.344L520.172 749.836H515.109L516.375 744.82L525.234 741.059Z" fill="#CF827D"/>
<path d="M463.219 505.324L470.812 506.578H503.719L507.516 515.355H492.328L489.797 510.34L478.406 515.355L461.953 512.848L459.422 511.594V506.578L463.219 505.324Z" fill="#91AA64"/>
<path d="M753.047 502.816H764.438L760.641 510.34L764.438 511.594V515.355L756.844 516.609L751.781 515.355L753.047 519.117L751.781 521.625L759.375 522.879L758.109 529.148L753.047 526.641H751.781L750.516 531.656L746.719 530.402L742.922 526.641V522.879L745.453 521.625L744.188 519.117L749.25 514.102L747.984 506.578L753.047 502.816Z" fill="#CD9280"/>
<path d="M810 461.438H812.531L811.266 467.707L802.406 475.23L796.078 477.738H791.016V480.246L785.953 482.754H773.297L770.766 480.246L794.812 468.961L810 461.438Z" fill="#91AB64"/>
<path d="M653.062 239.496L660.656 240.75L665.719 247.02L664.453 254.543L659.391 258.305L650.531 257.051L646.734 252.035L648 243.258L653.062 239.496Z" fill="#D7B084"/>
<path d="M556.875 630.715L563.203 633.223V635.73L575.859 634.477L587.25 630.715L599.906 633.223L596.109 635.73L579.656 640.746L569.531 642H558.141L551.812 640.746L556.875 630.715Z" fill="#A64040"/>
<path d="M827.719 438.867H830.25L827.719 445.137L820.125 453.914L811.266 460.184L807.469 463.945L787.219 473.977L773.297 480.246V482.754H768.234L766.969 477.738L773.297 475.23L804.938 460.184L821.391 447.645L827.719 438.867Z" fill="#614F37"/>
<path d="M617.625 554.227L618.891 556.734L615.094 571.781L604.969 594.352L596.109 608.145L592.312 609.398L594.844 601.875L604.969 581.812L615.094 555.48L617.625 554.227Z" fill="#624B36"/>
<path d="M561.938 312.223L565.734 317.238L572.062 332.285L575.859 351.094L577.125 363.633L574.594 368.648L572.062 367.395L568.266 342.316L561.938 319.746V312.223Z" fill="#F4E9E1"/>
<path d="M792.281 583.066L798.609 584.32L801.141 588.082L802.406 600.621L799.875 608.145L794.812 605.637L789.75 595.605V586.828L792.281 583.066Z" fill="#D8B484"/>
<path d="M593.578 486.516H601.172L596.109 492.785L591.047 505.324L583.453 506.578L582.188 504.07L574.594 505.324V501.562L588.516 490.277L593.578 486.516Z" fill="#F6F0E8"/>
<path d="M640.406 496.547L645.469 499.055H658.125V502.816L660.656 504.07L659.391 511.594L653.062 514.102H644.203L642.938 502.816V500.309L640.406 499.055V496.547Z" fill="#D9BA85"/>
<path d="M646.734 742.312L651.797 744.82L653.062 747.328V756.105L649.266 766.137L644.203 764.883L641.672 758.613V746.074L646.734 742.312Z" fill="#D8B484"/>
<path d="M749.25 611.906L754.312 613.16L758.109 621.938L756.844 633.223L755.578 635.73L750.516 633.223L745.453 620.684L746.719 614.414L749.25 611.906Z" fill="#D8B384"/>
<path d="M768.234 425.074H770.766L772.031 431.344L769.5 435.105H766.969L765.703 440.121L760.641 446.391L755.578 448.898H747.984L749.25 445.137H751.781V442.629H754.312L756.844 437.613L768.234 425.074Z" fill="#90AA63"/>
<path d="M645.469 630.715L651.797 631.969L653.062 633.223V644.508L649.266 654.539L645.469 653.285L642.938 647.016V634.477L645.469 630.715Z" fill="#D8B484"/>
<path d="M504.984 583.066L510.047 584.32L511.312 585.574V594.352L506.25 604.383L501.188 606.891L499.922 603.129V593.098L503.719 584.32L504.984 583.066Z" fill="#D8B284"/>
<path d="M494.859 472.723L506.25 476.484L510.047 480.246L506.25 487.77L503.719 489.023V486.516L492.328 484.008L487.266 478.992L492.328 476.484L494.859 472.723Z" fill="#92AA64"/>
<path d="M801.141 674.602L806.203 675.855L808.734 680.871V690.902L804.938 698.426H802.406L798.609 690.902V677.109L801.141 674.602Z" fill="#D8B284"/>
<path d="M546.75 614.414L551.812 615.668L553.078 616.922V625.699L548.016 635.73L542.953 636.984L541.688 633.223V623.191L545.484 615.668L546.75 614.414Z" fill="#D8B484"/>
<path d="M646.734 478.992H649.266L653.062 492.785L654.328 487.77H656.859L658.125 494.039L653.062 496.547H650.531L659.391 497.801L658.125 500.309H645.469L635.344 495.293L640.406 489.023L645.469 490.277L646.734 492.785V478.992Z" fill="#C48373"/>
<path d="M755.578 739.805L761.906 741.059L763.172 742.312L761.906 753.598L754.312 762.375H751.781V747.328L755.578 739.805Z" fill="#D8B584"/>
<path d="M537.891 737.297L542.953 738.551L545.484 743.566V759.867H541.688L536.625 753.598L534.094 742.312L537.891 737.297Z" fill="#D8B384"/>
<path d="M856.828 636.984L861.891 638.238L864.422 642V655.793L861.891 662.062H859.359L854.297 648.27L855.562 638.238L856.828 636.984Z" fill="#D8B384"/>
<path d="M492.328 674.602L497.391 677.109L498.656 680.871V689.648L494.859 697.172L491.062 698.426L488.531 692.156V678.363L492.328 674.602Z" fill="#D7AC83"/>
<path d="M440.438 640.746L445.5 642L448.031 645.762V654.539L444.234 663.316H440.438L437.906 657.047V644.508L440.438 640.746Z" fill="#D8B484"/>
<path d="M666.984 485.262L668.25 489.023V490.277H670.781V492.785L675.844 491.531V495.293H672.047V497.801H678.375V500.309H674.578V502.816L677.109 505.324L668.25 506.578L664.453 502.816L665.719 497.801H659.391L663.188 486.516L666.984 485.262Z" fill="#CA9D79"/>
<path d="M707.484 679.617L712.547 683.379V692.156L708.75 703.441H704.953L702.422 695.918V684.633L707.484 679.617Z" fill="#D7AF84"/>
<path d="M579.656 678.363L584.719 679.617L585.984 682.125V693.41L582.188 702.188L577.125 697.172L575.859 692.156V682.125L579.656 678.363Z" fill="#D7AE83"/>
<path d="M666.984 509.086H684.703L679.641 511.594V514.102H677.109L675.844 520.371H669.516L670.781 527.895H666.984L664.453 522.879L661.922 525.387L659.391 519.117L665.719 520.371V515.355L666.984 509.086Z" fill="#CB9B78"/>
<path d="M594.844 260.812H602.438L606.234 265.828L604.969 272.098L602.438 274.605H593.578L589.781 268.336L592.312 262.066L594.844 260.812Z" fill="#D8B484"/>
<path d="M849.234 727.266L853.031 729.773V738.551L847.969 751.09L844.172 752.344L842.906 747.328V737.297L846.703 728.52L849.234 727.266Z" fill="#D7AC83"/>
<path d="M646.734 875.227L653.062 876.48L654.328 884.004L651.797 895.289L648 897.797L644.203 891.527L642.938 881.496L646.734 875.227Z" fill="#D8B584"/>
<path d="M711.281 260.812H717.609L721.406 264.574V272.098L716.344 275.859L710.016 274.605L706.219 269.59L708.75 262.066L711.281 260.812Z" fill="#DAB88A"/>
<path d="M502.453 794.977L507.516 796.23L511.312 801.246L512.578 806.262V816.293L507.516 815.039L502.453 808.77L501.188 806.262V796.23L502.453 794.977Z" fill="#D8B484"/>
<path d="M542.953 272.098L551.812 273.352L554.344 279.621L550.547 285.891H541.688L539.156 283.383V275.859L542.953 272.098Z" fill="#DBBB8F"/>
<path d="M592.312 798.738L597.375 799.992L599.906 805.008V820.055H594.844L591.047 812.531L589.781 802.5L592.312 798.738Z" fill="#D7B084"/>
<path d="M784.688 794.977L788.484 796.23L789.75 803.754L785.953 811.277L779.625 817.547H778.359V803.754L782.156 796.23L784.688 794.977Z" fill="#D8B284"/>
<path d="M737.859 853.91L742.922 855.164V865.195L735.328 875.227H731.531L732.797 862.688L736.594 855.164L737.859 853.91Z" fill="#D7AF84"/>
<path d="M556.875 853.91L561.938 855.164L564.469 860.18L565.734 875.227H561.938L556.875 868.957L554.344 857.672L556.875 853.91Z" fill="#D7B184"/>
<path d="M573.328 422.566L579.656 425.074L591.047 433.852L606.234 451.406L612.562 462.691L611.297 466.453L601.172 450.152L583.453 432.598L573.328 423.82V422.566Z" fill="#624A35"/>
<path d="M761.906 272.098L770.766 273.352L772.031 275.859V283.383L769.5 285.891H761.906L758.109 282.129L759.375 274.605L761.906 272.098Z" fill="#D8B284"/>
<path d="M697.359 799.992L702.422 801.246L703.688 802.5V810.023L697.359 820.055L693.562 821.309V805.008L697.359 799.992Z" fill="#D8B384"/>
<path d="M470.812 561.75L474.609 565.512L472.078 574.289L467.016 580.559L461.953 581.812L460.688 580.559L461.953 571.781L467.016 564.258L470.812 561.75Z" fill="#D8B484"/>
<path d="M815.062 845.133L820.125 846.387L821.391 847.641L820.125 857.672L815.062 865.195L811.266 866.449L810 858.926L812.531 848.895L815.062 845.133Z" fill="#D8B284"/>
<path d="M828.984 561.75L834.047 564.258L840.375 574.289V583.066L834.047 579.305L828.984 573.035L827.719 570.527V563.004L828.984 561.75Z" fill="#D7B184"/>
<path d="M870.75 655.793L877.078 657.047L875.812 669.586L869.484 675.855L864.422 673.348L866.953 668.332L869.484 657.047L870.75 655.793Z" fill="#D8AF87"/>
<path d="M451.828 727.266L456.891 728.52L459.422 736.043L458.156 748.582H454.359L450.562 741.059V728.52L451.828 727.266Z" fill="#D7B084"/>
<path d="M649.266 975.539L654.328 976.793L655.594 979.301V988.078L651.797 995.602H648L646.734 991.84V979.301L649.266 975.539Z" fill="#D7B184"/>
<path d="M484.734 845.133L489.797 846.387L492.328 851.402V865.195H488.531L484.734 858.926L482.203 852.656L483.469 846.387L484.734 845.133Z" fill="#D7B084"/>
<path d="M691.031 919.113L696.094 921.621V930.398L691.031 937.922L687.234 939.176L685.969 929.145L689.766 920.367L691.031 919.113Z" fill="#D7AF84"/>
<path d="M742.922 486.516H745.453V496.547L746.719 502.816L735.328 506.578L732.797 505.324L731.531 499.055L734.062 497.801V501.562L740.391 500.309L741.656 487.77L742.922 486.516ZM749.25 491.531H751.781L753.047 499.055L747.984 501.562L746.719 495.293L749.25 491.531Z" fill="#9B544C"/>
<path d="M853.031 784.945L855.562 786.199V797.484L850.5 805.008L846.703 806.262V792.469L850.5 786.199L853.031 784.945Z" fill="#D7B184"/>
<path d="M606.234 917.859L610.031 919.113L613.828 930.398L612.562 939.176L606.234 934.16L603.703 927.891V920.367L606.234 917.859Z" fill="#D7B084"/>
<path d="M583.453 970.523L589.781 973.031L593.578 980.555L594.844 988.078L592.312 989.332L584.719 983.062L582.188 978.047V971.777L583.453 970.523Z" fill="#D7AF84"/>
<path d="M556.875 630.715L563.203 633.223V635.73H565.734V638.238H575.859L579.656 640.746L569.531 642H558.141L551.812 640.746L556.875 630.715Z" fill="#BA4C4B"/>
<path d="M545.484 510.34H549.281V516.609L553.078 521.625L549.281 522.879L542.953 521.625L536.625 522.879V520.371L544.219 517.863V515.355L523.969 520.371L525.234 516.609L532.828 514.102L544.219 511.594L545.484 510.34Z" fill="#7A3533"/>
<path d="M542.953 520.371L549.281 521.625V525.387L554.344 524.133L553.078 530.402L550.547 532.91L545.484 535.418V537.926H542.953V532.91L545.484 531.656L546.75 527.895L540.422 530.402L541.688 522.879L537.891 521.625L542.953 520.371Z" fill="#C68D73"/>
<path d="M735.328 337.301L736.594 341.062L731.531 366.141L727.734 367.395L704.953 364.887L699.891 362.379H712.547L729 364.887L730.266 352.348L734.062 338.555L735.328 337.301Z" fill="#773533"/>
<path d="M531.562 905.32L537.891 906.574L541.688 915.352V924.129L536.625 921.621L531.562 914.098V905.32Z" fill="#D7B184"/>
<path d="M768.234 905.32H772.031L773.297 910.336L769.5 919.113L764.438 924.129H761.906L763.172 912.844L768.234 905.32Z" fill="#D6AB83"/>
<path d="M639.141 502.816L642.938 504.07L645.469 512.848L650.531 514.102V515.355L636.609 516.609V514.102L630.281 516.609H623.953L625.219 512.848L636.609 510.34L640.406 505.324L639.141 502.816Z" fill="#B67368"/>
<path d="M584.719 509.086H591.047V521.625L579.656 520.371L575.859 519.117V516.609L583.453 515.355L584.719 512.848L578.391 511.594V510.34L584.719 509.086Z" fill="#F4E8E1"/>
<path d="M717.609 969.27H721.406L722.672 975.539L718.875 983.062L715.078 986.824H711.281L712.547 976.793L717.609 969.27Z" fill="#D7AF84"/>
<path d="M644.203 517.863L645.469 520.371H650.531L649.266 531.656H646.734V535.418H644.203V526.641L640.406 529.148H636.609L637.875 524.133L640.406 522.879V519.117L644.203 517.863Z" fill="#AC6E60"/>
<path d="M430.312 491.531L437.906 494.039L451.828 500.309L465.75 502.816L470.812 504.07H467.016V506.578L453.094 505.324V502.816L442.969 501.562L430.312 492.785V491.531Z" fill="#605739"/>
<path d="M535.359 500.309L541.688 501.562V505.324L545.484 506.578L544.219 512.848L541.688 514.102H534.094V512.848H540.422V510.34H534.094L532.828 505.324L535.359 500.309Z" fill="#AD7B6C"/>
<path d="M718.875 438.867H721.406L720.141 442.629L710.016 451.406L703.688 457.676L697.359 466.453H694.828L697.359 460.184L708.75 446.391L718.875 438.867Z" fill="#615238"/>
<path d="M726.469 501.562H732.797L731.531 510.34L730.266 515.355L723.938 514.102L721.406 510.34L725.203 509.086L722.672 504.07H726.469V501.562Z" fill="#CA957F"/>
<path d="M650.531 240.75L658.125 242.004V249.527L653.062 252.035H649.266L648 243.258L650.531 240.75Z" fill="#F7F1EC"/>
<path d="M504.984 733.535H508.781V736.043H511.312L515.109 743.566L513.844 749.836L510.047 751.09L504.984 733.535Z" fill="#D0837E"/>
<path d="M666.984 515.355L672.047 516.609L675.844 520.371H669.516L670.781 527.895H666.984L664.453 522.879L661.922 525.387L659.391 519.117L665.719 520.371L666.984 515.355Z" fill="#C08473"/>
<path d="M827.719 438.867H830.25L827.719 445.137L820.125 453.914L810 461.438L807.469 460.184L813.797 453.914L822.656 446.391L827.719 438.867Z" fill="#624735"/>
<path d="M640.406 489.023L645.469 490.277L648 499.055H644.203L635.344 496.547L639.141 490.277L640.406 489.023Z" fill="#BA766A"/>
<path d="M631.547 492.785L644.203 500.309L642.938 504.07L641.672 505.324L640.406 507.832L629.016 506.578V504.07L637.875 505.324L639.141 499.055L631.547 497.801V492.785Z" fill="#823937"/>
<path d="M774.562 408.773L775.828 412.535L766.969 427.582L759.375 431.344L761.906 426.328L770.766 413.789L774.562 408.773Z" fill="#624534"/>
<path d="M731.531 505.324L732.797 507.832H735.328L734.062 514.102L735.328 519.117L731.531 520.371L730.266 524.133H727.734V520.371H730.266V517.863L726.469 516.609L730.266 515.355L729 511.594L731.531 505.324Z" fill="#893D3B"/>
<path d="M783.422 470.215L785.953 471.469L787.219 473.977L773.297 480.246V482.754H768.234L766.969 477.738L773.297 475.23L783.422 470.215Z" fill="#61583A"/>
<path d="M556.875 505.324H561.938L565.734 510.34V514.102H558.141L554.344 510.34L556.875 505.324Z" fill="#DABE86"/>
<path d="M663.188 514.102L668.25 516.609L665.719 517.863V520.371L659.391 519.117V521.625H656.859L655.594 525.387H653.062L654.328 515.355H661.922L663.188 514.102Z" fill="#7E3735"/>
<path d="M602.438 591.844H604.969L602.438 598.113L594.844 609.398H592.312L594.844 601.875L599.906 593.098L602.438 591.844Z" fill="#615037"/>
<path d="M698.625 544.195H702.422L707.484 554.227L706.219 557.988L694.828 547.957L698.625 544.195Z" fill="#607A45"/>
<path d="M831.516 433.852H835.312L832.781 442.629L821.391 456.422L818.859 453.914L827.719 443.883L830.25 436.359L831.516 433.852Z" fill="#91AB64"/>
<path d="M570.797 520.371L578.391 521.625L573.328 525.387L578.391 531.656V534.164L573.328 531.656L570.797 526.641H568.266L567 522.879L570.797 520.371Z" fill="#D4A582"/>
<path d="M746.719 517.863H750.516V521.625H747.984L751.781 527.895L750.516 531.656L746.719 530.402L742.922 526.641V522.879L745.453 521.625L744.188 519.117L746.719 517.863Z" fill="#C67E71"/>
<path d="M663.188 415.043H664.453L665.719 421.312V435.105L663.188 441.375H661.922L663.188 415.043Z" fill="#65322F"/>
<path d="M732.797 522.879L741.656 524.133V531.656L736.594 532.91L737.859 524.133L732.797 529.148H730.266L731.531 524.133L732.797 522.879Z" fill="#B27363"/>
<path d="M536.625 635.73H537.891L540.422 644.508L541.688 647.016H535.359L531.562 642V638.238L536.625 635.73Z" fill="#B94D4C"/>
<path d="M546.75 500.309L551.812 504.07L548.016 510.34L542.953 509.086H545.484L541.688 505.324V502.816L546.75 500.309Z" fill="#934944"/>
<path d="M750.516 519.117L751.781 521.625L759.375 522.879L758.109 529.148L747.984 524.133V521.625H750.516V519.117Z" fill="#CA987A"/>
<path d="M655.594 520.371L659.391 524.133L660.656 529.148L659.391 531.656L653.062 530.402V525.387H655.594V520.371Z" fill="#B87D68"/>
<path d="M532.828 514.102H544.219L541.688 516.609L523.969 520.371L525.234 516.609L532.828 514.102Z" fill="#6C3330"/>
<path d="M753.047 502.816H764.438L763.172 506.578L754.312 507.832V505.324L751.781 504.07L753.047 502.816ZM747.984 506.578L753.047 507.832V510.34H749.25L747.984 506.578Z" fill="#BA7A69"/>
<path d="M754.312 495.293L759.375 496.547L756.844 500.309H754.312L751.781 505.324H746.719L754.312 495.293Z" fill="#803A38"/>
<path d="M548.016 430.09L553.078 435.105L560.672 446.391L555.609 445.137L548.016 435.105V430.09Z" fill="#91AB64"/>
<path d="M594.844 262.066L599.906 263.32L598.641 269.59L592.312 270.844V264.574L594.844 262.066Z" fill="#FDFDFD"/>
<path d="M542.953 520.371L549.281 521.625L546.75 526.641L540.422 530.402L541.688 522.879L537.891 521.625L542.953 520.371Z" fill="#B67B6A"/>
<path d="M731.531 490.277H732.797L734.062 497.801L730.266 501.562L725.203 496.547V494.039H729L730.266 491.531L731.531 490.277Z" fill="#BD7E6B"/>
<path d="M749.25 491.531H751.781L753.047 499.055L747.984 501.562L746.719 495.293L749.25 491.531ZM744.188 496.547L746.719 501.562H744.188V496.547Z" fill="#B1836C"/>
<path d="M537.891 506.578H545.484L544.219 512.848L541.688 514.102H534.094V512.848H540.422V510.34H534.094L537.891 506.578Z" fill="#D49E81"/>
<path d="M561.938 486.516H563.203V495.293L565.734 494.039L567 490.277H570.797L569.531 496.547L565.734 497.801L561.938 496.547V486.516Z" fill="#A8625A"/>
<path d="M559.406 623.191L560.672 626.953L567 628.207L564.469 633.223L559.406 631.969L558.141 628.207L559.406 623.191Z" fill="#9F3C3C"/>
<path d="M560.672 500.309L565.734 501.562L568.266 506.578L564.469 507.832L556.875 505.324L560.672 500.309Z" fill="#D2907F"/>
<path d="M635.344 499.055H639.141L637.875 505.324L629.016 504.07L627.75 506.578V502.816L635.344 499.055Z" fill="#D9A88F"/>
<path d="M572.062 333.539L574.594 336.047L577.125 346.078V352.348L574.594 351.094L572.062 339.809V333.539Z" fill="#DABE86"/>
<path d="M539.156 492.785L544.219 494.039L546.75 495.293V497.801H549.281L550.547 494.039V499.055L545.484 500.309L539.156 495.293V492.785Z" fill="#BF7C6A"/>
<path d="M827.719 438.867H830.25L827.719 445.137L821.391 452.66L818.859 450.152L827.719 438.867Z" fill="#5F653D"/>
</svg>
