<?xml version="1.0" encoding="UTF-8"?>
<svg version="1.1" viewBox="0 0 1248 832" width="1248" height="832" xmlns="http://www.w3.org/2000/svg">
<path transform="translate(492,199)" d="m0 0 6 1 23 13 20 11 6-1 14-8 5-3 6 1 16 9 6 1 6-4 13-6 8 4 2 3-1 21 9 3 28 15 22 12 34 18 9 5 9-3 12-6 5 1 6 4 1 9-1 5 24 12 22 12 28 15 3 2 1 10-5 5-3 2 1 9 9 5 4 5v7l4 2 12 8 9 5 16 9 6 2v-5l-5 1 5-5-8-5 2-1 9 5v14l6 2 1 1v13l-17 9v13l1 11 1 26 3 4v13l-18 10-48 26-20 11-7 3-6-1-29-15-23-12-34-18-11-5-13 5-4 2-4-1-4-2-5 1-8 3-5-1-22-12-16-9-2-2 1-5 4-2 2-4v-11l-3-3-25-14-12-6-3-2-5 1-23 12-22 12-10 4-5-1-19-9-6 2-33 17-22 12-25 13-7 3-7-1-27-14-22-12-26-14-9-5-1-13 3-6v-22l1-24-25-14-1-12 7-5 1-12 3-3 16-8 15-8v-22l-10-6-1-1v-11l8-5 19-11 16-8 5-2-1-11-1-4 1-6 24-12 5 1 5 3 2 2v5l5-1 1-4 10-2 16-8 16-9 24-13 18-10zm-200 164 1 2 2-1z" fill="#3D2E23"/>
<path transform="translate(493,213)" d="m0 0 16 8 25 13 10 5 22-13 5 1 23 12v20l5 2 5 3 6-2 14-8 26 14 22 12 51 27 1 24 8 5 5-1 18-10 1-6 6 2 25 13 22 12 5 3-3 3-23 12-22 12-17 9-17-8-22-12-32-17-29-16-48-26-23-13-23-12-11-6-5 2-25 13-22 12-28 15-22 12-26 14-6 3-5-1-23-13-28-15-23-13-2-2 21-12 7-3v6l6 2 3 2 6-1 17-9h2v-18l10-6 26-14 18-10 26-14 18-10z" fill="#544C47"/>
<path transform="translate(492,199)" d="m0 0 6 1 23 13 20 11 6-1 14-8 5-3 6 1 16 9 6 1 6-4 13-6 8 4 2 3-1 21 9 3 28 15 22 12 34 18 9 5 9-3 12-6 5 1 6 4 1 9-1 5 24 12 22 12 28 15 3 2 1 10-1 2h-5l-2 1-1-4h-2l-1 3h-7l-19 10-2-1 14-8-1-2-25 13-14 8v2l-4 1-1 2 14-7 2 1-10 6-16 8-3 1v-2l8-4v-2l-6 2-4 2-17-9-44-24-16-8-3-2-3 1-3-3-4-3-7-3-5-4-1 4h4v2l5 2h3l8 6 17 9-3 1-23-12-5-3h-7-4l-1-3-2-2 2-1-5-3-1 5-3-2v3l1 2-6-2-7-4 3-1 3 1-2-6v-3l-14-8 2-1 14 7 4 1-2-2-4-2-5-1-2-4-18-10 3-1 23 13 23 12 18 10 22 12 26 14 32 17 5 2 23-12 22-12 19-10-4-3-53-28v6l-21 12-4-1-8-5v-24l-6-2-23-12-22-12-32-17-16-9-14 8-6 2-10-6v-20l-6-2-19-10-4 1-21 12-16-8-21-11-14-7-21 11-18 10-26 14-36 20-1 18-21 11-6-1-7-4-1-5-19 10-7 4 8 5 22 12 23 13 11 6-3 1-22-12-7-4-4 1 1 2-4-1-8-4v2l-3 2h-3v-2h-5v2l-6-2-11-7-9-6v-11l8-5 19-11 16-8 5-2-1-11-1-4 1-6 24-12 5 1 5 3 2 2v5l5-1 1-4 10-2 16-8 16-9 24-13 18-10z" fill="#2B2823"/>
<path transform="translate(825,372)" d="m0 0h1l1 16 4 1 4-1 3 1v2l5 2 12 7 9 2 8 5 14 7 1-4h-1l-4-1 5-4-8-5 2-1 9 5v14l6 2 1 1v13l-17 9v13l1 11 1 26 3 4v13l-18 10-48 26-20 11-7 3-6-1-29-15-17-9v-3h2l1-2v2l6-2h13l-2-2 1-2 5 1 23 12-1-47-23-12-1-2 3-3h-2l2-4 2-1-11-5h-5l-3-5-11-6 2-2v2l6-1-13-8 2-1 10 5 1-45 1-2-2-11h3v3h5v2l-4 1-1-2v6l3 1-1 1v28l1 7 6 2 11 6v16l19 10v-13l-1-2 4 2-1 14 24-13h2v-14l-16 8-2-1 22-12 13-7 2 1-16 9h-2l1 14 25-13v-14l-4 1 3-3 25-13 2 1-22 12h-2l1 14 23-12 5-2v-14l-3-1-4-3-23-12-18-10 1 2v10l-1 10-5 3-2-1 5-3z" fill="#3E2F24"/>
<path transform="translate(317,341)" d="m0 0h5l1 14v13l6 2 8 5-2 1-14-8-1-9-14 8 4 3h-2l1 7v9l6 2 21 12 1-15-3-1 2-1 5 4h-3l1 13 3 3 24 13-1-14-1-2 6 2 5 3-2 1-6-3 1 14 14 8 3 1-1-15h2v15l19-10v-3l-2-2 2-1v-8l-5 3-3-1 7-4h2v-36l-11-6 2-1 3 1 3-6h2l1-3 4 1 7-1-5 5v3h-2v4l6-1v2l-6 2 1 48 8-4 4 1-5 3 5-1 4-1v2l-4 1 3 7 3 2-33 18-1 3-1 50 25-13 2 1-2 2 10-5h6l2 1h7l4 1v2h-2v3l-33 17-20 10-7-1-27-14-22-12-26-14-9-5-1-13 3-6v-22l1-24-25-14-1-12 7-5 1-12 3-3 16-8zm-25 22 1 2 2-1z" fill="#3F2F24"/>
<path transform="translate(824,362)" d="m0 0h1l2 9 9 5 4 5v7l4 2 12 8 5 4-6-1-17-10-3-3-1 2v-2h-2l-1 2-4-2-1-4-1 26-4 3 4-2 1-10v-12l5 2 23 12 18 10 2 2v14l-28 15h-1v-15l23-12-17 8-10 6 3-1v15l-22 12-5 2v-15l17-9-16 8-19 10 14-7h3v14l-23 12-3 1v-14h-1v14l-16-8-5-3v-15l-3-3 4-4v-47l8-5 10-5 1 9v-9l8-5 10-5 1 1v46l-4 3 6-3-1-1v-47l8-5z" fill="#534B46"/>
<path transform="translate(542,293)" d="m0 0 4 1 19 10 3 2v45l-5-1-3-1 1 2h3v13l-29 12h-2v-14l-3 1h2v14l-21 9h-1v-14l-1-1-6-3v-2h-4l1 2 6 2 3 2v14l-5-2-15-8 1-3v-11l4 1-4-2v-40l20-11 2 4-1 5h2v-10l18-10h1v51l15-7h2l-1-20v10l-1 9-11 6h-2l-1-17v-33z" fill="#6E4F3F"/>
<path transform="translate(322,318)" d="m0 0 16 8 4 3v49h-2l7 4h2l-6-4v-48l6 2 15 9v48l-9-3 11 5-1-1v-48l7 3 13 7 1 1v48l-1 1 8 4-5 4-4 1 1 6v9l-4-1-13-7-1-1v-14l5 1-7-3 1 1v14l-6-2-21-12-1-2v-13-2h-1v16l-15-8-13-7-1-17-3-3 16-8 1 10 8 4-7-4-1-13v-14l-3-1 2-1z" fill="#5E4D44"/>
<path transform="translate(824,362)" d="m0 0h1l2 9 9 5 4 5v7l4 2 12 8 5 4-6-1-17-10-3-3-1 2v-2h-2l-1 2-4-2-1-4-1 26-4 3 4-2 1-10v-12l5 2 3 3-1 10-2 2 2 5h-2l-2 9-3 5v2l-5 2-2 4-5 2h-7l-6 2-7-1-6-2 2-4 1-1h-2v-16h-2v5l-5 5-6 9-4 3h-3v-42l8-5 10-5 1 9v-9l8-5 10-5 1 1v46l-4 3 6-3-1-1v-47l8-5z" fill="#7C5846"/>
<path transform="translate(746,391)" d="m0 0h3v3h5v2l-4 1-1-2v6l3 1-1 1v28l1 7 6 2 11 6v16l19 10v-13l-1-2 4 2-1 14 20-11 3 1-16 9h2l7-3 3 1-3 2v8l4 1-10 6-7 4v43l1 4 9-5h7l-2 3 6-3h2v3l8 1 2 2-1 4-23 12-10 5-6-1-29-15-17-9v-3h2l1-2v2l6-2h13l-2-2 1-2 5 1 23 12-1-47-23-12-1-2 3-3h-2l2-4 2-1-11-5h-5l-3-5-11-6 2-2v2l6-1-13-8 2-1 10 5 1-45 1-2z" fill="#2A2622"/>
<path transform="translate(406,349)" d="m0 0 4 1 7-1-5 5v3h-2v4l6-1v2l-6 2 1 48 8-4 4 1-5 3 5-1 4-1v2l-4 1 3 7 3 2-33 18-1 3-1 50 25-13 2 1-2 2 10-5h6l2 1h7l4 1v2h-2v3l-33 17-20 10-7-1-27-14-7-4-2-4 9-2 4-1 1-2 10 4-4-2v-2l6 2 15 8v-51l-6 2-9-5 4-2 1-6-6-4 2-1-1-3-6-3 3-1 12 6-1-15h2v15l19-10v-3l-2-2 2-1v-8l-5 3-3-1 7-4h2v-36l-11-6 2-1 3 1 3-6h2z" fill="#2B2722"/>
<path transform="translate(335,418)" d="m0 0 16 8 12 7 16 8 7 3 5-1v51l-6-2-21-11-1-30v28l-4-1-23-12-1-1-1-17z" fill="#544C46"/>
<path transform="translate(469,400)" d="m0 0h1v54l-19 10h-1l-1-39-1 40-14 8-11 5v-53l18-10 5-3h4v-2z" fill="#7C5846"/>
<path transform="translate(347,321)" d="m0 0 9 3 2-2 6 1 24 13 16 9 2 1v2l3 1-3 1-1 2h-2l-2 7h-3l9 5v32l-1 4-8 4 7-2 1 9v2l-1 4-17 9h-2v-16l5-4-7-4 2-1-1-48-16-9-3-1v47l1 2-6-2-9-5 2-1 10 5-1-48-20-11 1 48 6 4-3 1-8-5 2-1v-48l-5-3v-3h5v2l2-2h4z" fill="#3C2D22"/>
<path transform="translate(531,299)" d="m0 0h1v34h-2l-7 11-8 11-2 1-1-32-1 37-8 5h-4l1 2 6 2 3 2v14l-5-2-15-8 1-3v-11l4 1-4-2v-40l20-11 2 4-1 5h2v-10z" fill="#7C5846"/>
<path transform="translate(464,335)" d="m0 0h1v50l-15 8-20 10-1-21v-28l15-8h2l1 6 1-8z" fill="#7D5A46"/>
<path transform="translate(317,341)" d="m0 0h5l1 14v13l6 2 8 5-2 1-14-8-1-9-14 8 4 3h-2l1 7v9l6 2 16 9 1 2-5-2-13-6 3 3 9 5 10 6-2 1-7-3-2 4h-2v3l-6-1-10-6v-2l-6-2-16-9-5-3-1-12 7-5 1-12 3-3 16-8zm-25 22 1 2 2-1z" fill="#2C2823"/>
<path transform="translate(805,373)" d="m0 0 2 1v46l-14 8-4 1v-16h-2v5l-5 5-6 9-4 3h-3v-42l8-5 10-5 1 9v-9l8-5z" fill="#7C5846"/>
<path transform="translate(542,293)" d="m0 0 4 1 19 10 3 2v45l-5-1-14-7-1-20v10l-1 9-11 6h-2l-1-17v-33z" fill="#7B5846"/>
<path transform="translate(731,462)" d="m0 0 6 2 20 11 4 2 2 2-1 4 1 4h2l2 10 1 7-2 6-2 4h-2l-1 5-2-2-1 6-6-2-21-11z" fill="#7C5846"/>
<path transform="translate(569,307)" d="m0 0 16 8 3 2 1 26v-25l14 7 7 4v15l-1 3h-2v2l-2 1-2 7h-2l1 3-1 3-7-1-4-2-1-3-2 2-13-6-5-2z" fill="#7B5846"/>
<path transform="translate(420,426)" d="m0 0h1l1 9v36l-1 9-25 13h-2v-50l2-4z" fill="#544C46"/>
<path transform="translate(790,495)" d="m0 0h1l1 26 1 13 1 4 9-5h7l-2 3 6-3h2v3l8 1 2 2-1 4-23 12-10 5-6-1-29-15-17-9v-3h2l1-2v2l6-2h13l-2-2 1-2 5 1 23 12v-17z" fill="#2C2723"/>
<path transform="translate(820,475)" d="m0 0h2v48l-14 8-15 8-1-5v-43l10-6z" fill="#544C46"/>
<path transform="translate(878,444)" d="m0 0h1l2 23 1 26 2 3-6-2-21 11-4-1-1-5v-41l25-13z" fill="#7C5846"/>
<path transform="translate(825,372)" d="m0 0h1l1 16 4 1 4-1 3 1v2l5 2 12 7 9 2 8 5 14 7 1-4h-1l-4-1 5-4-8-5 2-1 9 5v14l6 2 1 1v13l-18 10-8 5-6 3-3-1v-2l-3-1v-3l-6 2-6 3h-2v-2l9-5-6 2-25 13-2-1 14-8 8-4v-14l-4 1 3-3 25-13 2 1-22 12h-2l1 14 23-12 5-2v-14l-3-1-4-3-23-12-18-10 1 2v10l-1 10-5 3-2-1 5-3z" fill="#2A2722"/>
<path transform="translate(849,460)" d="m0 0h2v42l-2 7-23 12-3 1v-48l22-12z" fill="#7C5846"/>
<path transform="translate(306,401)" d="m0 0 8 5 18 10 1 1 1 47-6-2-10-6-12-6h-2v-25l1-22z" fill="#574D47"/>
<path transform="translate(638,345)" d="m0 0 5 2 8 4v14h2v-12l14 7v47l-5-2-9-4-1-15v13l-5-2-8-4-1-4z" fill="#B27A52"/>
<path transform="translate(335,418)" d="m0 0 16 8 11 6 1 24v23l-4-1-23-12-1-1-1-17z" fill="#B17951"/>
<path transform="translate(762,479)" d="m0 0 5 1 22 12v47l-6-2-22-12-1-1 1-7 1-3h2l2-7 1-8-2-5-1-6-3-2v-6z" fill="#544C46"/>
<path transform="translate(334,383)" d="m0 0 5 2 2 2h-3l1 13 3 3 24 13-1-14-1-2 6 2 5 3-2 1-6-3 1 14 6 5 4 3-2 3 6 4-1 6-2 2-6-1-15-8-22-12-1 29h-2l-1-31-11-6 2-1v-3h2l2-5 6 2-16-9-3-1-1-4 6 2 11 6 5 1 1 1 1-15-3-1z" fill="#3C2D22"/>
<path transform="translate(469,400)" d="m0 0h1v54l-19 10h-1l-1-39h-1v-13h2v-2z" fill="#7B5846"/>
<path transform="translate(833,434)" d="m0 0 2 1-16 9h-2l1 14 9-3 25-13 4 1-9 5h-2v2l12-6 3 1 3 6-1 3-8 4h-2v41h-1l-1-8v-29l1-2-27 14-2 2-5 2-7 3-5-1v-8l1-2-8 4-2-1v-2l15-8 3-3h2v-14l-16 8-2-1 22-12z" fill="#3B2C22"/>
<path transform="translate(688,372)" d="m0 0 5 2 15 8v47l-5-2-14-7-1-1z" fill="#7B5846"/>
<path transform="translate(343,330)" d="m0 0 6 2 15 9v33l-1 3-11 6-5-2-4-3z" fill="#7B5846"/>
<path transform="translate(365,342)" d="m0 0 7 3 13 7 1 1v22l-1 16-4-1v3l-10 1-6-4z" fill="#7C5846"/>
<path transform="translate(728,393)" d="m0 0 17 8 2 2v47l-16-8-3-2z" fill="#544C47"/>
<path transform="translate(427,355)" d="m0 0h1v49l-17 9h-1v-49z" fill="#544C46"/>
<path transform="translate(387,354)" d="m0 0 6 2 14 8v32l-1 4-10 5-6-1-3-2z" fill="#544C46"/>
<path transform="translate(727,463)" d="m0 0 2 2 1 12v31l-5-1-16-9-4-2v-23h3l1-3 3 1 1-2 3-2 4-3 3 1z" fill="#7C5846"/>
<path transform="translate(709,383)" d="m0 0 18 9v47l-6-2-12-7z" fill="#7C5846"/>
<path transform="translate(483,325)" d="m0 0h1v50l-15 8h-2v-49z" fill="#7D5946"/>
<path transform="translate(611,330)" d="m0 0 16 8 6 4v35l-6-1-16-7z" fill="#544C47"/>
<path transform="translate(765,394)" d="m0 0h3v47l-3 2-6-1-7-4v12h-1l-1-19v-28l8-5z" fill="#544C46"/>
<path transform="translate(609,344)" d="m0 0h1v24l-6-2v14l-25-10-14-6v-12l8 4-1-2h6l9 4 1-9h1l1 11 11 3-1-3 5-11h2v-2h2z" fill="#4F453F"/>
<path transform="translate(878,444)" d="m0 0h1l2 23 1 26 2 3-6-2-5 2-1-6-4-2-4-4h3l-1-7-1-1v-5l-5-1 7-17-2-2z" fill="#574D47"/>
<path transform="translate(320,358)" d="m0 0h1l1 10 9 5v7l6 5v16l-15-8-13-7-1-17-3-3z" fill="#534B46"/>
<path transform="translate(623,419)" d="m0 0 6 2 5 3 1 7v49l-5-1-7-4z" fill="#7B5846"/>
<path transform="translate(826,389)" d="m0 0 5 2 3 3-1 10-2 2 2 5h-2l-2 9-3 5v2l-5 2-2 4-5 2h-7l-6 2-7-1-6-2 2-4 5-4 14-6 4-4 12-5 1-10z" fill="#795745"/>
<path transform="translate(805,373)" d="m0 0 2 1v38l-5 4-5 1-3-9-5 4v-16l-1-4v-9l8-5z" fill="#B37B52"/>
<path transform="translate(563,379)" d="m0 0 9 3v40l-12 3h-3v-43z" fill="#7C5846"/>
<path transform="translate(638,345)" d="m0 0 5 2 8 4v14h2v19l-1 2v13l-5-2-8-4-1-4z" fill="#7B5846"/>
<path transform="translate(653,434)" d="m0 0 6 2 5 3v56l-6-2-5-3z" fill="#7E5A46"/>
<path transform="translate(331,420)" d="m0 0h2l1 44-6-2-15-9v-4l2-1v-2l4-3-5 2 1-6-1-2h3v-2l-2-1 5-5 1-2h2v-3h4l1-3z" fill="#7B5846"/>
<path transform="translate(523,396)" d="m0 0h3l1 11v18l-1 18-10 5h-2v-48z" fill="#7C5846"/>
<path transform="translate(322,318)" d="m0 0 16 8 4 3v12l-2-3-5 8-4 4h-2v2l2 1-3 2 1 9 3 7h-3l-6-3-1-13v-14l-3-1 2-1z" fill="#544C47"/>
<path transform="translate(539,389)" d="m0 0h2v44l-4 4-8 4v-47z" fill="#7C5846"/>
<path transform="translate(554,383)" d="m0 0h2v44l-12 6v-46z" fill="#7D5946"/>
<path transform="translate(668,361)" d="m0 0 14 7-1 35-12 6-1-6z" fill="#7B5846"/>
<path transform="translate(507,438)" d="m0 0 2 2 1 16-1 2h3v-6l2 2v9l2 1v1l6-1 1 2h-2l-1 5-10 4-5-1-21-10-1-7 2-6-2-1 4-3v7h3v2l5-2 4 2 6 2h2z" fill="#2B2723"/>
<path transform="translate(731,462)" d="m0 0 6 2 20 11 4 2 2 2-1 4 1 4h2l2 10 1 7-2 6-2 4h-2l-1 5-2-2v-37h-7v-2l-5 2-1-4-15 7z" fill="#745646"/>
<path transform="translate(596,393)" d="m0 0 9 3 3 2v43l-12-6z" fill="#B07951"/>
<path transform="translate(581,386)" d="m0 0 12 5 1 16-1 26-12-6z" fill="#7C5846"/>
<path transform="translate(569,307)" d="m0 0 16 8 3 2v14l-15 11-4 2z" fill="#B27A52"/>
<path transform="translate(511,291)" d="m0 0 2 1-17 10-12 6-3 3 9-2-2 3-14 7-5 3h-2v2l-22 11-2-1 6-4-4-2 1 3-3 1-2 1-2-1-2 4-5 3-6 1-1 2-9 3-2 1-2 3-1-1-2 1h-4l-2-4-9-5 2-1 11 6 5-1 25-13 22-12 26-14z" fill="#2B2622"/>
<path transform="translate(464,335)" d="m0 0h1v50l-15 8h-2v-7l11-7-1-27 1-5-10 4-1-1v-6z" fill="#7C5846"/>
<path transform="translate(531,306)" d="m0 0h1v27h-2l-7 11-8 11-2 1v-22l9-14v-2l5-5z" fill="#B17951"/>
<path transform="translate(365,342)" d="m0 0 7 3 13 7 1 1v7l-8 7-12 8h-1z" fill="#B07951"/>
<path transform="translate(561,351)" d="m0 0h3v13l-29 12h-2v-14l18-7z" fill="#7A5846"/>
<path transform="translate(871,415)" d="m0 0h3v14l-28 15h-1v-15l23-12z" fill="#544C47"/>
<path transform="translate(361,448)" d="m0 0 2 3v28l-4-1-23-12 4-4 16-10z" fill="#7B5846"/>
<path transform="translate(849,476)" d="m0 0 2 3v23l-2 7-19 10-2-1 4-8 11-23z" fill="#B17951"/>
<path transform="translate(340,337)" d="m0 0 2 4v37l-10-5-1-3-2-2v-2l-2-8 1-4 2-1-1-3h2l2-4h2l2-5z" fill="#7C5946"/>
<path transform="translate(843,430)" d="m0 0h1v15l-22 12-5 2v-15l17-9z" fill="#544C47"/>
<path transform="translate(704,448)" d="m0 0 4 1 20 10 2 2v16h-1l-1-12-7 1h-3l-2 3-6 2-2 2h-3v22h-1z" fill="#544C47"/>
<path transform="translate(636,425)" d="m0 0 16 8v24l-6-2-10-5z" fill="#7C5846"/>
<path transform="translate(699,387)" d="m0 0 9 4v33h-7l-2-4-3-3-2-4v-8h2l-1-6 2-5h2z" fill="#D99452"/>
<path transform="translate(335,418)" d="m0 0 16 8 11 6-4 3-15 8-5 3h-3z" fill="#7A5846"/>
<path transform="translate(457,347)" d="m0 0h2l1 32-10 7h-2v-36z" fill="#DF9952"/>
<path transform="translate(813,446)" d="m0 0h3v14l-23 12-3 1v-14l16-9z" fill="#544C47"/>
<path transform="translate(362,433)" d="m0 0 10 4 3 2v2l-3 3 1 5h2l1 5-1 9h-2l-1 5-3 1v4h-2v4l-3 1-1-36h-1z" fill="#7B5846"/>
<path transform="translate(546,308)" d="m0 0h1l1 25-1 9-11 6h-2l-1-23 2 1 8-13z" fill="#7D5946"/>
<path transform="translate(824,362)" d="m0 0h1l2 9 9 5 4 5v7l4 2 12 8 5 4-6-1-17-10-3-3-1 2v-2h-2l-1 2-4-2-2-7-1-2-3-1v-3h-5l2-9z" fill="#5E5048"/>
<path transform="translate(820,483)" d="m0 0h1l1 15v23l-3 1-2-2-3-1-2-5-3-5-1-3 1-4 1-5 2-6 4-2v-3z" fill="#7B5846"/>
<path transform="translate(709,391)" d="m0 0 10 5v33l-6-2-4-2z" fill="#DA9652"/>
<path transform="translate(586,331)" d="m0 0h2l1 18-1 10-10-4-9-4v-7l12-9z" fill="#7F5A46"/>
<path transform="translate(483,325)" d="m0 0h1v37l-3-4v-2h-3v-5l-2-2-2-1v-3l-4-2-1-4h-2v-5z" fill="#544C46"/>
<path transform="translate(542,293)" d="m0 0 4 1 1 1v13l-9 15-4 4-1-2v-27z" fill="#B17951"/>
<path transform="translate(728,393)" d="m0 0 10 5 1 8-1 10 1 3-3 6-4 5h-2l-1 3-1-3z" fill="#7C5846"/>
<path transform="translate(745,475)" d="m0 0 2 2v3l5-2v2l4-1 2 2h-2v2l-16 12-7 5h-2v-17l12-7z" fill="#B27A52"/>
<path transform="translate(362,357)" d="m0 0h2v17l-1 3-11 6-5-2-3-2v-8l13-10z" fill="#B17951"/>
<path transform="translate(406,349)" d="m0 0 4 1 7-1-5 5v3h-2v4l6-1v2l-6 2v41l-2 7-1-2h-2v-8l-5 3-3-1 7-4h2v-36l-11-6 2-1 3 1 3-6h2z" fill="#2A2622"/>
<path transform="translate(503,314)" d="m0 0h1v7l-3 2-2 9-1 7-3 4-3 1 3 4-2 4 1 4 4 1-1 2-3 4-4-2v-40z" fill="#544C46"/>
<path transform="translate(531,299)" d="m0 0h1v7l-6 10-3 4-9 14h-1v-25z" fill="#7D5946"/>
<path transform="translate(469,400)" d="m0 0h1v30l-5-1v-2l-4-2-9-3 3-5 4-5-1-6z" fill="#544C47"/>
<path transform="translate(768,447)" d="m0 0 15 8 6 4v14l-16-8-5-3z" fill="#544C47"/>
<path transform="translate(688,493)" d="m0 0 2 1v10l1 3h-3v2l-16 7-4-1-4-2v-2h-4l1-2 2-3v-6l2-1 1 5h3l-1-2 7-1-2 3 4-1 2-2 8-1v-4l-3-1z" fill="#2D2924"/>
<path transform="translate(633,444)" d="m0 0 2 1v35l-5-1-6-4v-23h3l1 1 1 2 2-1z" fill="#A7734F"/>
<path transform="translate(573,383)" d="m0 0 6 2 1 1v40l-7-3z" fill="#7A5846"/>
<path transform="translate(490,362)" d="m0 0 9 3 1 3 6 2 3 2v14l-5-2-15-8 1-3z" fill="#574D46"/>
<path transform="translate(647,401)" d="m0 0 19 9 2 2v12l-6-2-15-8z" fill="#795846"/>
<path transform="translate(539,389)" d="m0 0h2v17l-3 5-9 9v-26z" fill="#B17951"/>
<path transform="translate(367,403)" d="m0 0 6 2 11 6 1 6v9l-4-1-13-7-1-1z" fill="#544C47"/>
<path transform="translate(728,484)" d="m0 0h1l1 9v15l-5-1-15-8 1-3 16-11z" fill="#AC7650"/>
<path transform="translate(788,395)" d="m0 0 2 2v13l4-2 1-2 2 10 5-1 5-3v8l-14 8-4 1v-16h-2v-11z" fill="#7B5846"/>
<path transform="translate(644,455)" d="m0 0 8 4v30l-6-2-2-1z" fill="#D59252"/>
<path transform="translate(525,396)" d="m0 0h1l1 11v18l-1 18-10 5h-2v-19h4l1 3 5-5z" fill="#755646"/>
<path transform="translate(666,381)" d="m0 0h1v26l-5-2-9-4v-10l9-6-1-2z" fill="#7C5846"/>
<path transform="translate(320,358)" d="m0 0h1l1 10 9 5v7l1 2-6-2-16-9v-2l-5-2 4-3z" fill="#514842"/>
<path transform="translate(632,395)" d="m0 0 6 1 8 4v13l-6-2-17-8 1-3z" fill="#7C5846"/>
<path transform="translate(530,332)" d="m0 0 2 1v17l-18 10h-2v-24h1l1 19 8-11z" fill="#7C5846"/>
<path transform="translate(394,407)" d="m0 0 12 6-1 4-17 9h-2v-14z" fill="#544C47"/>
<path transform="translate(609,344)" d="m0 0h1v24l-6-2v6l-15-7 2-4 10 2-1-3 5-11h2v-2h2z" fill="#534A45"/>
<path transform="translate(636,451)" d="m0 0 7 3v31l-7-3z" fill="#E09952"/>
<path transform="translate(565,352)" d="m0 0 14 8 10 6-1 3h-2v3l-10-3-11-5z" fill="#7B5846"/>
<path transform="translate(646,366)" d="m0 0h5v26h-7v-2h-2v-13h2l-1-4z" fill="#B27A51"/>
<path transform="translate(387,354)" d="m0 0 6 2v3l2 12-1 5 1 5-3 4-5 2z" fill="#805A46"/>
<path transform="translate(796,392)" d="m0 0 1 2h6v3h-2v2l5 1v13l-6 4-4-1z" fill="#DF9952"/>
<path transform="translate(444,353)" d="m0 0h2v34l-5 1-1-9v-23z" fill="#DC9752"/>
<path transform="translate(459,348)" d="m0 0h1l1 23 2 2 2-2v14l-15 8h-2v-7l11-7-1-27z" fill="#B17951"/>
<path transform="translate(317,341)" d="m0 0h5l1 14v13l6 2 8 5-2 1-14-8-1-9-6 3-3-2v-2l3-3 1-8h2v-2l-4-2z" fill="#3E2E23"/>
<path transform="translate(569,307)" d="m0 0 16 8 2 2-16 10-2 1z" fill="#7C5846"/>
<path transform="translate(760,477)" d="m0 0 3 2-1 4 1 4h2l2 10 1 7-2 6-2 4h-2l-1 5h-1z" fill="#7D5946"/>
<path transform="translate(566,329)" d="m0 0h1v16l-3 3-7-1-7-4 5-5z" fill="#B07951"/>
<path transform="translate(753,440)" d="m0 0 6 2 2 1v2h3l2 1v15l-15-8 2-1z" fill="#534B46"/>
<path transform="translate(513,369)" d="m0 0h2v2l4-1 6 3v2l2 1 1 3-18 7v-14l3-1z" fill="#574C46"/>
<path transform="translate(441,415)" d="m0 0 1 2-3 2-2 7-12 13-2 2v-16z" fill="#544C46"/>
<path transform="translate(423,456)" d="m0 0 2 1 3 4v3l4 1 1 1h3l3 1 1 3-17 8z" fill="#544C47"/>
<path transform="translate(681,404)" d="m0 0h1v12h-3v3l-8 4h-2v-12h2v-2z" fill="#755443"/>
<path transform="translate(825,372)" d="m0 0h1l1 16 4 1 4-1 3 1v2l5 2 12 7-4 1-7-2-18-10 1 2v10l-1 10-5 3-2-1 5-3z" fill="#3E2E23"/>
<path transform="translate(303,367)" d="m0 0 4 2v15l-5-2-11-6v-2z" fill="#544C47"/>
<path transform="translate(785,418)" d="m0 0h2v13l-16 9h-2v-5l5-3h2l2-4 6-9z" fill="#554C46"/>
<path transform="translate(805,373)" d="m0 0 2 1v11h-1l-1-8-9 6-1 10-3 2h-3l-1-3v-9l8-5z" fill="#795746"/>
<path transform="translate(386,354)" d="m0 0h1l1 48 4 2h8l5-2 1 9-7-1-5-2-8 4v-2l5-4-7-4 2-1z" fill="#3B2C22"/>
<path transform="translate(605,374)" d="m0 0 16 8 11 6-1 3-3-1-1 3h-2l-1-3 1-1-5-2-4-1-10-5z" fill="#534B46"/>
<path transform="translate(408,374)" d="m0 0h2v31l-2 7-1-2h-2v-8l-5 3-3-1 7-4h2l1-24z" fill="#2E2822"/>
<path transform="translate(530,363)" d="m0 0h2v14l-4 1-3-3v-2l-7-2-4 1 1-3z" fill="#7A5846"/>
<path transform="translate(420,444)" d="m0 0 2 2v11l-5 4-2 3-3-1-2-3 1-5 8-10z" fill="#7C5846"/>
<path transform="translate(638,345)" d="m0 0 5 2 8 4-2 6-6 1-1 3h-3l-1-2z" fill="#544C47"/>
<path transform="translate(596,393)" d="m0 0 9 3 3 2v2l-5 5-1 2h-2l-2 4-2 1z" fill="#7C5846"/>
<path transform="translate(554,383)" d="m0 0h2l-1 7-3 5v2l-5 3-2 1-1-4v-10z" fill="#AD7650"/>
<path transform="translate(699,387)" d="m0 0h1v33l-5-3-1-7v-5h2l-1-6 2-5h2z" fill="#B17951"/>
<path transform="translate(808,372)" d="m0 0 7 1-1 5-3 9-1 24h-2z" fill="#B17951"/>
<path transform="translate(746,391)" d="m0 0h3v3h5v2l-4 1-1-2v6l3 1-1 1v39h-1l-2-15h-1v-23l1-2z" fill="#2E2822"/>
<path transform="translate(591,415)" d="m0 0h2v18l-10-5v-4l6-7h2z" fill="#A97450"/>
<path transform="translate(332,448)" d="m0 0h1l1 16-6-2-8-5 5-4z" fill="#AF7851"/>
<path transform="translate(539,389)" d="m0 0h2v6h-2l-2 4-7 8h-1v-13z" fill="#7D5946"/>
<path transform="translate(611,370)" d="m0 0 16 6 4 3-6 3-5-1-9-5z" fill="#544C47"/>
<path transform="translate(795,392)" d="m0 0h1v19l-2-3-5 4v-17z" fill="#B27A52"/>
<path transform="translate(879,399)" d="m0 0 6 2 5 3v14l-10-2-4-4-4-1-2-4 6 2 10 5 1-4h-1l-4-1 5-4-8-5z" fill="#715A4A"/>
<path transform="translate(772,372)" d="m0 0 1 2-5 3v2l-4 1-1 2 14-7 2 1-10 6-16 8-3 1v-2l8-4v-2l-4-1 10-6z" fill="#292622"/>
<path transform="translate(824,362)" d="m0 0h1l2 10h-2v9l-1-2-3-1v-3h-5l2-9z" fill="#554C47"/>
<path transform="translate(769,394)" d="m0 0h1l1 13-1 2 3-1v2l2 1-2 1v5h3l-2 6-4 7h-1z" fill="#544C47"/>
<path transform="translate(596,339)" d="m0 0 5 1-1 2 1 3-2 4h-2v2l-7 3v-9z" fill="#B17951"/>
<path transform="translate(524,413)" d="m0 0h1v14l-7 6v-4h-3l2-6z" fill="#B27A52"/>
<path transform="translate(847,399)" d="m0 0 17 3 6 4 3 5-10-2-16-9z" fill="#322C27"/>
<path transform="translate(588,349)" d="m0 0h1l1 11 6 2-3 1-2-1-1 2-5-1-7-4-4-1-2-4h6l9 4z" fill="#5D4537"/>
<path transform="translate(385,375)" d="m0 0h1v26l-5-2-8-4 3-3 5 1v-3l4 1z" fill="#544C47"/>
<path transform="translate(849,460)" d="m0 0h2l-1 9-5 1h-4l-2 1-7-1 4-3z" fill="#544C47"/>
<path transform="translate(611,399)" d="m0 0 4 2-1 1-1 41-2-1z" fill="#7E5A46"/>
<path transform="translate(365,342)" d="m0 0 7 3 6 3-4 3-9 5z" fill="#7C5846"/>
<path transform="translate(363,374)" d="m0 0h1v15l-6-2-6-3v-2l9-5h2z" fill="#7D5946"/>
<path transform="translate(510,339)" d="m0 0h1v20l-4 2-1-7-2-3z" fill="#B17951"/>
<path transform="translate(607,425)" d="m0 0h1v16l-10-5 2-4h2l2-4z" fill="#7D5946"/>
<path transform="translate(636,444)" d="m0 0 3 3h3v2l2 1 1-2 2 2 5-2v9l-6-2-10-5z" fill="#B07851"/>
<path transform="translate(875,415)" d="m0 0 5 2 7 4-4 3-8 4z" fill="#544C47"/>
<path transform="translate(653,353)" d="m0 0 14 7v10h-1l-1-7-4-1v-3l-8 4z" fill="#7D5946"/>
<path transform="translate(490,343)" d="m0 0 5 5-2 4 1 4 4 1-1 2-3 4-4-2z" fill="#5D4E46"/>
<path transform="translate(681,404)" d="m0 0h1v12l-6-2-5-3v-2z" fill="#745646"/>
<path transform="translate(290,355)" d="m0 0 2 1-4 5 3-1 7 3-4 5-7 2v-12zm2 8 1 2 2-1z" fill="#5B4E46"/>
<path transform="translate(669,367)" d="m0 0h3v2l7 2-2 4-7 5h-1z" fill="#B27A52"/>
<path transform="translate(849,492)" d="m0 0 2 2v8l-2 7-6 2 1-5z" fill="#7D5946"/>
<path transform="translate(654,401)" d="m0 0 6 2 5 3h4l2 2v3h-2l-1 2-8-5-8-4v-2z" fill="#3F2F23"/>
<path transform="translate(610,373)" d="m0 0 1 3 6 2 5 3 10-1v6l-3 1-16-8-4-3z" fill="#45382F"/>
<path transform="translate(568,307)" d="m0 0h1l1 44 6 2-3 2 1 2-5-2-3-2v-2h2z" fill="#403126"/>
<path transform="translate(611,330)" d="m0 0 8 4v3l-7 7h-1z" fill="#7B5846"/>
<path transform="translate(787,413)" d="m0 0h2v16l4-1-3 3-17 9-2-1 14-8h2z" fill="#3B2D22"/>
<path transform="translate(453,383)" d="m0 0 9 3-2 2-10 5h-2v-7z" fill="#7C5846"/>
<path transform="translate(490,362)" d="m0 0 9 3-1 5-5 3h-3z" fill="#524741"/>
<path transform="translate(590,361)" d="m0 0 14 5v6l-15-7z" fill="#544C47"/>
<path transform="translate(342,330)" d="m0 0h1l1 48 6 4-3 1-8-5 2-1z" fill="#3E2E23"/>
<path transform="translate(427,358)" d="m0 0h1v30h-1l-1-7 1-2h-2v-7l-1-4 1-4v-3h2z" fill="#7B5846"/>
<path transform="translate(687,495)" d="m0 0 1 4v2h-6l-7 4-3-1 5-5z" fill="#392C22"/>
<path transform="translate(644,331)" d="m0 0 5 2 2 2 7 3 2 1v2l-4 1-11-6v-2l-3-1z" fill="#3C2D22"/>
<path transform="translate(305,453)" d="m0 0 5 2-3 1v9l-5 1v-10z" fill="#2C2823"/>
<path transform="translate(589,318)" d="m0 0 8 4-1 3-5 4h-2z" fill="#A6724F"/>
<path transform="translate(786,401)" d="m0 0h1v13h-7l3-9z" fill="#B27A52"/>
<path transform="translate(622,384)" d="m0 0 5 1 5 3-1 3-3-1-1 3h-2l-1-3 1-1-5-2z" fill="#514943"/>
<path transform="translate(753,440)" d="m0 0 6 2 2 1v2l-5 4h-3z" fill="#504843"/>
<path transform="translate(870,407)" d="m0 0 6 2 10 5v2l-4 1-5-3-1-2-4-1z" fill="#5D4F46"/>
<path transform="translate(747,414)" d="m0 0 2 1 2 16v11h-1l-2-15h-1z" fill="#3D2D22"/>
<path transform="translate(403,402)" d="m0 0h2l1 9-6-2-4-3z" fill="#544C47"/>
<path transform="translate(856,456)" d="m0 0h2l-1 5-4 8h-1v-11z" fill="#544C47"/>
<path transform="translate(434,437)" d="m0 0h2l-1 4-3 4-2 1-1 2h-2l1-5h2l-1-4z" fill="#B07951"/>
<path transform="translate(340,388)" d="m0 0 7 1 1 4-2 1-2-1-1 2-3-1-1-5z" fill="#6D5040"/>
<path transform="translate(805,376)" d="m0 0h1l1 10-2 1v-2l-4-1-1-2-2-1z" fill="#E29B53"/>
<path transform="translate(805,373)" d="m0 0 2 1v11h-1l-1-8-7 4-1-2 4-4z" fill="#A4714E"/>
<path transform="translate(311,344)" d="m0 0h2l1 3-1 8-2-2 1-2-4 1v-6z" fill="#46352A"/>
<path transform="translate(816,367)" d="m0 0 3 1-3 6-7-1 1-3z" fill="#785746"/>
<path transform="translate(464,365)" d="m0 0h1l-1 9-2 1v-3l-2 1v-7z" fill="#896148"/>
<path transform="translate(313,344)" d="m0 0 4 1v2h-2v8l-2 3-3-1 2-3z" fill="#292622"/>
<path transform="translate(746,391)" d="m0 0h3v3h5v2l-4 1-1-2v6l3 1h-4z" fill="#292622"/>
<path transform="translate(538,295)" d="m0 0 2 1-4 6-3 3v-7z" fill="#7D5946"/>
<path transform="translate(408,374)" d="m0 0h2l-1 23h-1l-1-21z" fill="#3E2E23"/>
<path transform="translate(407,365)" d="m0 0 3 1v8h-2l-1 2z" fill="#332A22"/>
<path transform="translate(590,361)" d="m0 0 7 3v3l-6-1-2-2z" fill="#775746"/>
<path transform="translate(364,439)" d="m0 0 5 1v4l-5 2z" fill="#B07851"/>
<path transform="translate(611,399)" d="m0 0 4 2-2 2-1 17h-1z" fill="#A06F4E"/>
<path transform="translate(490,343)" d="m0 0 5 5-1 3-4-1z" fill="#5A4E46"/>
<path transform="translate(875,397)" d="m0 0 4 2-4-1z" fill="#665549"/>
<path transform="translate(865,392)" d="m0 0 4 2-4-1z" fill="#9F704F"/>
<path transform="translate(873,396)" d="m0 0 2 1z" fill="#544C47"/>
<path transform="translate(871,395)" d="m0 0 2 1z" fill="#83634C"/>
<path transform="translate(869,394)" d="m0 0 2 1z" fill="#B27A52"/>
<path transform="translate(863,391)" d="m0 0 2 1z" fill="#B27A52"/>
</svg>
