<?xml version="1.0" encoding="UTF-8"?>
<svg version="1.1" viewBox="0 0 1024 1024" width="1024" height="1024" xmlns="http://www.w3.org/2000/svg">
<path transform="translate(512,237)" d="m0 0h30l16 2 36 8 23 6 2-2h5l2-3 3-1 2-6h6l3 2v2l4-4 5 1 1 3 6 2 3 7v6l5 2 1 1v7l16 7 12 7 8 6 4-2 4-5 4 1 2 1v3l5 1 2 2v4l6 2 3 12v9l25 14 16 7 15 7 27 12 33 16 26 14 22 13 15 9 11 7 5-14-1-6-4-7v-4h3l2 5h2l2-7 3-1v17l-4 17 9-7 1-3 1-11 4-9h2l-1 9-1 6h3v-2l16-11 7-1-2 4-8 6-5 6 12 3 1 4h-13l-7-1-11 12-1 6 8 6 5 2 2-4h6l2-2 5 1 3 8 1 1v6l1 6 4 1 1 6h-2v6l-1 1-1 51-5 13-8 11-12 12-11 8-21 14-21 12-22 12-16 8-19 8-21 7-23 5-53 9-17 4-16 7-12 7-12 11-8 10-9 16-10 20-9 13-11 12-15 12-10 7-13 8-16 8-15 5-22 5-38 4-14 1h-35l-18-3-16-4-36-12-37-12-20-7-16-7-20-11-21-14-20-14-18-10-21-9-25-9-16-6-16-7-19-9-14-8-16-10-27-18-13-11-9-12-4-10-1-10 1-38 4-10 8-11 10-10 16-11 21-12 16-8 26-14 17-12 9-9 6-9 3-8 1-40 4-11 8-11 10-9 7-6 2-5 2-1v-7l2-2h4l3-4 7 1 2 2 5-1 3-7 6-2 7 1 3-2 5 1 3 4 32-8 30-7 23-6 25-10 16-8 19-10 10-6 14-7 15-7 19-8 20-6z" fill="#273B4E"/>
<path transform="translate(535,275)" d="m0 0h22l19 3 41 10 28 7 15 6 10 7 7 7 9 16 8 8 16 10 19 8 19 7 36 12 24 10 11 6 9 7 6 8 8 17 11 11 16 10 18 10 15 10 6 7 2 6-1 10-6 10-12 13-7 7-11 9-15 12-17 10-15 7-27 10-16 5-27 6-40 7-33 7-20 6-16 8-9 7-7 9-11 25-7 16-10 16-14 15-8 6-10 5-20 6-24 4-10 1h-13l-3-7-1-7v-15l4-8 11 1 9-2 7-2 11-3 8-6 1-2-7 2h-9l-3-1v-2l12-1 1-1-7 1-12-2-2-2v-2l1-4 4-2h18v2h2l1 5v3l5-2 2-4-5-3-6-2h-16l-10 3-2 1-1 5 4 1 9 4 1 2-8-1-6-3-2-4v-5l5-4 10-3h14l10 3 2 1 1-22 3 1v31l5-2 9-17 3-8 4-9 5-14 4-6 7-10 6-7 12-8 12-7 7-3 8-4 15-6 4 1 3-12h2l-1 11 13-4 9-3 21-5 6-2-2-7 5-6 6-2h17l8 4 3 3v2l15-9 1-1h19l2-15 1-2h2l1 5 10-2 10-8 6-9 4-8-1-13-6-10-7-4v-2l-3-1-4-8-4-6-1-3-5-2-7-6 1 15-2-1-4-15-10-2-12-7-3-1v-2l-5-1-6-3-6-2-7-3-2-4h-7l-10-2-7-3-10-3-10-5-19-6-21-9-6 1-1 3 2 4-3 1h-7l-7-6 2-5 2-6v-6l-7-10-7-9v-3l4-2-1-5-8-3-12-3-12-1-13 2-8-4-19-4h-23l-27 5-11 4-3 2h-5l1 13h-2l-2-9v-5l-13 6h-7l-14 3-9 3-7 1 1 9-12 6-4 5-11 5-12 6-10 4-2 1 6 3 3 3v5l-6 4-3 1h-13l-8-3-2-3v-3l-14 4-11 5-6 3-8 1-4 16 2 1 1 1-1 3h-2l-1 2v-2h-2v3l-10 7-7 11-1 9 12-2h12l14 3 2 1-1 3-14-3h-14l-5 1 1 3 3-1h10v2l-17 4 2 5 5 2-1 2-7-3-6-2-6-1 3 5 9 4 4 1h24l11-3h3v-2l4-4-1-5-4-5 5 1 3 4v6l-5 6-8 4-8 2h-21l-12-3-8-5-3-3-3 7-5 6-13 10-13 1-1-1-1 8-12 7h-2l-1 3-11 8-5 5-5 6-4 4-3 7-5 14-1 2h15l8 3 4 4-1 6-5 4 2 1v2h2v2l6 2 4-5 5-2h10l7 4v5l-6 4-4 1 3 2 14 1v2l9 1 9 4 6 3h4l-1 4-8 4-20 12h-4l-1-13-4-1-3 2v13l-2 1-29-6-16-5-21-10-8-6-12-11-11-13-9-14-4-10v-15l4-12 7-10 9-9 18-11 38-19 18-11 11-9 7-7 5-8 1-3v-14l-8-21v-10l5-10 9-8 16-8 11-5 30-9 51-12 25-9 16-8 39-20 20-9 21-7 34-8z" fill="#42586A"/>
<path transform="translate(512,237)" d="m0 0h30l16 2 36 8 23 6 2-2h5l2-3 3-1 2-6h6l3 2v2l4-4 5 1 1 3 6 2 3 7v6l5 2 1 1v7l16 7 12 7 8 6 4-2 4-5 4 1 2 1v3l5 1 2 2v4l6 2 3 12v9l25 14 16 7 15 7 27 12 33 16 26 14 22 13 15 9 11 7 5-14-1-6-4-7v-4h3l2 5h2l2-7 3-1v17l-4 17 9-7 1-3 1-11 4-9h2l-1 9-1 6h3v-2l16-11 7-1-2 4-8 6-5 6 12 3 1 4h-13l-7-1-11 12-1 6 8 6 5 2 2-4h6l2-2 5 1 3 8 1 1v6l1 6 4 1 1 6h-2v6l-1 1-1 41h-1l-1-24-5 13-8 11-13 13-17 12-17 11-26 15-23 12-21 10-18 6-3-1-2-5-6-3-9 1-9 6-3 5 1 4-8 2-42 7-23 6-16 7-14 9-9 8-10 14-16 33-10 14-15 15-13 10-15 10-21 10-20 6-22 4-4-1-1-4-9-3-4-2v-1l11-1v2l1-1v-2l24-1v-2l-14-1-3-2-13 1-3-2 10-7h-8l-9 5-4-1-3-4-1-4 30-3 24-5 15-5 9-5 11-9 8-9 7-10 9-17 10-24 6-11 9-10 14-8 16-6 29-7 67-13 17-4 30-10 21-9 17-9 16-12 11-9 13-12 9-10 6-10 2-11-3-9-4-5-15-10-22-12-12-8-11-10-5-8-5-12-9-10-11-7-19-9-28-10-33-11-22-9-15-9-9-8-14-22-8-7-15-7-21-6-42-10-20-5-8-1h-28l-32 4-36 10-20 8-17 8-19 10-23 12-25 10-16 4-33 8-21 5-20 7-17 8-11 8-7 8-2 7 1 13 7 17 1 7-2 9-6 9-11 11-15 10-24 13-28 14-12 8-10 9-7 11-4 12v14l4 11 7 11 11 14 2 4-6 2-5 5v6l-7 4-9 2-19-12-16-11-10-8-10-10-6-10-2-5-1-13 3-11-2 1 2-5 8-10 9-9 16-11 21-12 16-8 26-14 17-12 9-9 6-9 3-8 1-40 4-11 8-11 10-9 7-6 2-5 2-1v-7l2-2h4l3-4 7 1 2 2 5-1 3-7 6-2 7 1 3-2 5 1 3 4 32-8 30-7 23-6 25-10 16-8 19-10 10-6 14-7 15-7 19-8 20-6z" fill="#3B4E50"/>
<path transform="translate(532,273)" d="m0 0h28l17 3 44 11 17 4 18 6 11 6 9 8 10 17 7 8 15 10 18 8 34 12 30 10 20 9 11 6 12 11 10 20 8 9 13 9 25 14 12 8 6 5 4 7 1 8-3 10-7 10-11 12-13 12-17 13-11 7-19 10-29 11-19 6-24 5-57 11-29 7-16 6-11 6-9 8-6 10-16 36-8 14-12 14-9 8-10 6-13 5-22 5-24 3-11 1 3 6 4 1 9-5h9l-5 5-5 3 6 1 9-1 3 2 11 1 3 1v2l-5 1h-19l1 2 3 2-7-1-1-1-7 1 9 3 4 4 1 2 14-2 19-4 19-7 19-10 15-11 11-9 13-13 10-16 14-29 8-11 6-7 10-8 14-8 15-6 25-6 43-7v-4l3-5 8-6 5-2 9 1 5 4 1 4 12-3 19-8 30-15 24-14 16-10 16-11 10-8 11-11 7-11 4-11 2-1 1 35-5 13-8 11-12 12-11 8-21 14-21 12-22 12-16 8-19 8-21 7-23 5-53 9-17 4-16 7-12 7-12 11-8 10-9 16-10 20-9 13-11 12-15 12-10 7-13 8-16 8-15 5-22 5-38 4-14 1h-35l-18-3-16-4-36-12-37-12-20-7-16-7-20-11-21-14-20-14-18-10-21-9-25-9-16-6-16-7-19-9-14-8-16-10-27-18-13-11-9-12-4-10-1-10 1-38 3-7 3-2-1 5-2 7 1 13 6 12 9 10 9 8 30 20 8 5 12-3 3-2v-6l4-5 3-2h5l-11-14-9-13-4-9-1-4v-14l4-12 7-11 8-8 15-10 38-19 22-13 10-8 9-9 5-10 1-7-3-12-5-11-1-13 2-7 9-10 14-9 21-9 23-7 39-9 14-4 12-3 21-9 39-20 16-8 19-8 28-8 11-3zm3 2-24 2-34 8-24 8-33 16-23 12-16 8-25 9-25 6-26 6-30 9-22 10-11 8-6 8-2 5v10l5 13 3 8v14l-4 8-9 10-11 9-15 9-23 12-22 11-15 10-10 10-6 10-3 10v15l4 10 7 11 8 10 11 12 11 9 21 11 15 5 17 4 17 3 1-1v-13l5-2 2 1 1 13 6-1 14-9 7-3 3 2-4-1-4 2v2l34 18 5 3 6-1 1-2-4-2 7 2h2l5-2 11-6 7-3 14-8 4-4-5 2-3 1v-2l3-1-4-3-3-2 8 4 4-2-1-4 1-7v-4l3 1 2-1-1 22h-3-2l-1 3-4-1-24 14-35 21v3l7 6h2l2 5 12 13h6l4 1v3l9 6 15 6 29 8 25 6 30 5 31 3h26l-2-12-6-9-5-4-10-4h-4v-2l9 1 9 2-1-8-1-2 3 1-3-9-1 3-2-4-2-5v-4l5 8 2 5h2v2 3h2l1-5v-13l-2-8h2l1 6v16l-2 7 2 10 5 5 1-2v-15l-1-13 1-1 2 8h-1v26l-3 1v5l7 1v-18l2 21 3 7h13l23-3 19-4 17-6 11-7 11-11 9-12 9-16 14-33 7-10 7-6 14-8 18-6 17-4 29-6 44-8 24-6 26-9 21-9 18-10 13-10 11-9 13-12 7-7 8-11 3-9-1-9-6-8-11-8-18-10-15-9-9-7-8-8-9-19-8-9-13-8-20-9-60-21-20-8-15-9-10-9-8-13-4-6-7-7-12-7-18-6-66-16-15-2z" fill="#1F232B"/>
<path transform="translate(563,251)" d="m0 0h1l2 9 9 1 2 1 1-2 15 3 5 4 4 4 9 3 6 1 1-4 6 3v2l-2 1 1 2-3 1-2-1v2h11l17 5 16 6 7 3 1 2h5l11 8 4 4v6l1 3h-2l3 3 11 6h11l2 4v4h2v2l4-1 1-3h2l1 6h3l2 4v5h4l2 5 4 2 7 3 15 1v-2h8l4 2 13 1 12 7 3 2 2-2 2 4 10 3 3 3 4 9 3 2v2l6 2 11 6 8 5 2 4 1 8 5 3 4 2v2l5-1 6 10 4 3 5 2h31l-6 9-5 5-1 2 7 1 3 2 7 2 4 4v10l-1 4v7l4 5v5l-4 1-2-2-1 5h-2v2h3v2l-4 2-7 1-9 6-3 5v8l1 5h-3l-5-1-5 5 1 7-8 3-19 3-5 3v8l-5-1-9 2-8 4-5 4-1 2h-2l-1 3-5-1v3l2 1-5 3-2 3-11-1-10 5-4 4-1 5 1 2-8 2-42 7-23 6-16 7-14 9-9 8-10 14-16 33-10 14-15 15-13 10-15 10-21 10-20 6-22 4-4-1-1-4-9-3-4-2v-1l11-1v2l1-1v-2l24-1v-2l-14-1-3-2-13 1-3-2 10-7h-8l-9 5-4-1-3-4-1-4 30-3 24-5 15-5 9-5 11-9 8-9 7-10 9-17 10-24 6-11 9-10 14-8 16-6 29-7 67-13 17-4 30-10 21-9 17-9 16-12 11-9 13-12 9-10 6-10 2-11-3-9-4-5-15-10-22-12-12-8-11-10-5-8-5-12-9-10-11-7-19-9-28-10-33-11-22-9-15-9-9-8-14-22-8-7-15-7-21-6-42-10-20-5-8-1h-28l-32 4-36 10-20 8-17 8-19 10-23 12-25 10-16 4-33 8-21 5-20 7-17 8-11 8-7 8-2 7 1 13 7 17 1 7-2 9-6 9-11 11-15 10-24 13-28 14-12 8-10 9-7 11-4 12v14l4 11 7 11 11 14 2 4-6 2-5 5v6l-2 1-2-1v-2l-4-1v-2h-3v-2l-4 1 2-4h-2v2h-2l-1-8v-8l-2-5-12-9-7-8-1-12 1-6-8-5 1-5 3-2h7l1-2v2l2-1v-16h6l6 8h3l-4-10-9-4-3-1v-2h11l11 1 1-4 5-4 13-4 11-9 14-6 8-10 5-2 7 1v-2h2l2-4 2 4v-5l8-6v-2l9-2 10-10 2-1-1-4 1-4-3-5v-3l3-2 1-6-7-10v-11l7-14 7-7 7 1 1-2 9-2 6-1 5-2 2-6h2v-2l14-1 10-4 1-6 4-3h11v-2h3l1-3 3 2 2-2 14-2 1 1 7-3 2-3h4v-2h9l12-7 11-4 13-2 3-1-1-5 6 1h4v-2h-4l2-4 7-7 12-8 9-5 2-2 7-1 13-5h6v5h8l3-2 2-6 12-2 3-1 2-5 3-2v3l-1 2v6l4 2h13l11-5h2l1-6 15-2h14l2 2h7l5-1v-8l5 5z" fill="#516769"/>
<path transform="translate(631,241)" d="m0 0h6l3 2v2l4-4 5 1 1 3 6 2 3 7v6l5 2 1 1v7l16 7 12 7 8 6 4-2 4-5 4 1 2 1v3l5 1 2 2v4l6 2 3 12v9l25 14 16 7 15 7 27 12 33 16 26 14 22 13 15 9 11 7 5-14-1-6-4-7v-4h3l2 5h2l2-7 3-1v17l-4 17 9-7 1-3 1-11 4-9h2l-1 9-1 6h3v-2l16-11 7-1-2 4-8 6-5 6 12 3 1 4h-13l-7-1-11 12-1 6 8 6 5 2 2-4h6l2-2 5 1 3 8 1 1v6l1 6 4 1 1 6h-2v6l-1 1-1 41h-1l-1-24-5 13-8 11-13 13-17 12-17 11-26 15-23 12-21 10-18 6-3-1-2-5-1-4 5-5v-3h5l1-2h2l2-4 7-5 8-3 9-1h1v-6l3-3 14-3 11-2 5-1-2-4 1-5 5-4 5 1h2l-1-4v-8l4-6 9-6 11-2v-2h-3v-2h2l-1-4 2-2 4 2h2l-2-6-3-4v-7l1-4v-10l-4-4-7-2-9-3 2-4 7-8 2-3h-30l-8-4-6-8-1-4-5 1-9-6-1-1-2-10-4-4-12-6-9-5-6-7-3-7-8-3-6-3-11-6-5-3-13-1-4-2-8-1v2h-15l-8-4-5-5v-2h-4v-5l-2-1v-3h-3l-2-4-2 4v-2h-4v-2h-2l-2-5v-3l-11 1-14-8v-2h2l-2-4-1-7-6-4-7-5h-5l-3-3-21-8-17-5-11-1v-2l4-1-1-4 1 2h2l-1-2-8-4-2-4 3-4v-5l-10-3v-2h7l4 1 2-2h5l2-3 3-1z" fill="#3A4D4F"/>
<path transform="translate(931,383)" d="m0 0h2v17l-4 17 9-7 1-3 1-11 4-9h2l-1 9-1 6h3v-2l16-11 7-1-2 4-8 6-5 6 12 3 1 4h-13l-7-1-11 12-1 6 8 6 5 2 2-4h6l2-2 5 1 3 8 1 1v6l1 6 4 1 1 6h-2v6l-1 1-1 41h-1l-1-24-5 13-8 11-13 13-17 12-17 11-26 15-23 12-21 10-18 6-3-1-2-5-1-4 5-5v-3h5l1-2h2l2-4 7-5 8-3 9-1h1v-6l3-3 14-3 11-2 5-1-2-4 1-5 5-4 5 1h2l-1-4v-8l4-6 9-6 11-2v-2h-3v-2h2l-1-4 2-2 4 2h2l-2-6-3-4v-7l1-4v-10l-4-4-7-2-9-3v-2l5-3 5-4 4-7 5-5-4 3-12-1v-1l11-2 5-7 2-5h-2l2-10 2-5-1-6-4-7v-4h3l2 5h2l2-7z" fill="#3B4E50"/>
<path transform="translate(512,237)" d="m0 0h30l16 2 36 8 15 4-3 1v2l10 2 1 1v5l-3 5 4 7-2 2-12-3-6-4-5-5-15-3-3 1-9-2-3-3-1 2-3-1-1-2-1 6-5 2h-7l-2-2h-14l-15 1-1 6-13 6h-13l-5-3v-6l2-4-8 8-12 2-2 6-3 2h-8l-1-4 1-2-9 2-13 5-5 1-10 6-14 10-7 8h4v2l-8 1-1 1v2l-6 3-10 1-15 6-8 5h-7l-2-1v2l-4 1-5 5-5 1-1-1-13 2-3 2-2-2-1 2h-3v2l-11 1-2-4v-3l-3-1-2-6-6-1v-2h2v-2l-2-1 27-7 30-7 23-6 25-10 16-8 19-10 10-6 14-7 15-7 19-8 20-6z" fill="#3A4D4F"/>
<path transform="translate(337,642)" d="m0 0 5 1 11 4 4 5v4l7-2 10 1 25 10 7 3 14 3 11 2 9 3 7 2 17 5v3l6 1 9 4 6 5 5 10 1 9h-26l-31-3-19-3-28-6-30-8-15-5-12-6-4-3v-3l-10-1-8-8-5-6 1-3 5-5-3-6 4 1 1 5 16-8z" fill="#425769"/>
<path transform="translate(781,578)" d="m0 0h2l1 4 6-2 6-1-5 5-3 5 1 4-8 2-42 7-23 6-16 7-14 9-9 8-10 14-16 33-10 14-15 15-13 10-15 10-21 10-20 6-22 4-4-1-1-4-9-3-4-2v-1l11-1v2l1-1v-2l24-1v-2l-14-1-3-2-13 1-3-2 8-5 18 1 20-4 9-3 16-2 7-4 9-11v-12l3-3h6l3 1 6-8 1-6 1-3 4-2 2-5 1-12-2-4h2l4-10v-7l-1-4 4 2h3l3-5 6-4 7-4h2v-2l10-3 3-3 9 1 1-2 9-3 5-3 9-1 2 1h11l9-4 4-2 15-1 27-8 4-1v-2l-3-1 2-1 2 1z" fill="#3B4F51"/>
<path transform="translate(331,687)" d="m0 0 36 12 31 8 29 5 23 3 12 1 29 1v7l-3 5-1 1h-10l-6 4-11 3 10 2 12 1-5 5-7 8-23-2-23-5-51-17-17-5-24-9-15-7v-2h9l7-3 1-6-4 1v-2h4l-1-3-3-1z" fill="#3A4E50"/>
<path transform="translate(159,599)" d="m0 0 11 6 14 7 10 4 26 6 15 3 1 1 1 7h9l19 10 16 9 1 7 1 1 7-1 1-6 6 4 5 5 7 9 1 3-5 4-3-3h-5l-3 6-1 10 2 4-5-2-14-9-14-10-19-12-17-8-13-5-11-4-14-5-22-9-3-3 6-1v-5l3-2h3v-6l-9 1-4-5h7l1 3 2-1v-2l-2-1h-11l-1-3z" fill="#3B4E50"/>
<path transform="translate(631,241)" d="m0 0h6l3 2v2l4-4 5 1 1 3 6 2 3 7v6l5 2 1 1v7l16 7 12 7 8 6 4-2 4-5 4 1 2 1v3l5 1 2 2v4l6 2 3 12v9l5 4-3 1-5-2-1 1h-7l-1 1h-14l-6-1h-2v-2l-4-1-4-4v-6l-3-3-11-8h-5l-3-3-21-8-17-5-11-1v-2l4-1-1-4 1 2h2l-1-2-8-4-2-4 3-4v-5l-10-3v-2h7l4 1 2-2h5l2-3 3-1z" fill="#1F242C"/>
<path transform="translate(79,502)" d="m0 0 2 1-8 8 5-1 3-2h4l-2 6-2 5 6-3 4-6 5 1 2 3 2 11-9 2-1 5 8 5-1 12 2 7 7 8 11 8 2 5v9l1 5-1 2h2v-2h2v3h2v2h3v2l4 1v2l2 1-5 3-9 2-19-12-16-11-10-8-10-10-6-10-2-5-1-13 3-11-2 1 2-5 8-10 9-9z" fill="#3B4F51"/>
<path transform="translate(532,273)" d="m0 0h28l17 3 44 11 17 4 18 6 11 6 9 8 10 17 7 8 15 10 18 8 34 12 30 10 20 9 11 6 12 11 10 20 8 9 13 9 25 14 12 8 6 5 4 7 1 8-3 10-7 10-11 12-13 12-17 13-11 7-19 10-29 11-19 6-24 5-57 11-29 7-16 6-11 6-9 8-6 10-16 36-8 14-12 14-9 8-10 6-13 5-22 5-24 3-11 1 3 6 4 1 9-5h9l-5 5-5 3 6 1 9-1 3 2 11 1 3 1v2l-5 1h-19l1 2 3 2-7-1v-1l-9-1v-1l10-2 1-1-12-1-8-3-8-16-2-9v-16l2-2 2 23 2 7 30-3 25-5 17-6 11-7 10-10 9-12 9-16 14-33 7-10 8-7 14-8 18-6 17-4 29-6 44-8 24-6 26-9 21-9 18-10 13-10 11-9 13-12 11-12 5-9 1-10-3-7-5-6-21-13-18-10-11-8-10-10-9-19-7-8-13-8-20-9-60-21-20-8-15-9-10-9-7-10-5-9-7-7-12-7-18-6-66-16-15-2h-22l-24 2-34 8-24 8-33 16-23 12-16 8-25 9-25 6-26 6-30 9-22 10-11 8-6 9-1 3v10l5 13 3 8v14l-4 8-9 10-9 8-18 11-23 12-22 11-15 10-9 9-6 10-4 13h-1v-7l5-12 7-9 10-9 15-9 34-17 22-13 10-8 9-9 5-10 1-7-3-12-5-11-1-13 2-7 9-10 14-9 21-9 23-7 39-9 14-4 12-3 21-9 39-20 16-8 19-8 28-8 11-3z" fill="#0E1013"/>
<path transform="translate(122,534)" d="m0 0 2 3 2 16 7 13 10 13 12 13 10 8 21 11 15 5 17 4 17 3v-13l4-3 5 2v13l7-3 13-8 7-3 8 4-3 1-6-2-4 1v2l6 2 26 14 7 4 6-1-8-4 3-1 9 3 5-1 13-7 7-3 14-8 2-2-5 3-2-1 3-3-6-3-2-3 9 3h4l-1-4 1-7v-5l6 1v27h-1l-1-5-2 1-2-1-1 5-1-3-11 6-21 12-30 18 5 5 2 3-4-2-4-3-2 6-7 1-2-2v-7l-5-2-19-10-11-6h-9l-1-1-1-7-33-7-13-4-18-8-11-7-1 2h-2v6l-9 1-6-4 1-5-2 3h-3v2l10 5-3 5-2 4-4-3 1-3-4-1-1-4h-6l-1 4-5-3v-2h2v-2l8-3 2-1v-6l4-5 3-2h5l-11-14-9-13-4-9-1-4z" fill="#0B0D0E"/>
<path transform="translate(313,565)" d="m0 0 5 4h-4v14l6-1-1-14 2-1v17l6 2 25 13 5 5v3h-4l-8-3 8 4-1 2h-2l1 2 5-3 2 1-8 5-13 8-8 3-10 6-3-1-3 1-6-2 5 2-3 3-5-1-29-15-9-5v-2l6-2 3 1-4-2v-2l10-5 27-16 4-3v-17zm49 20 3 2v32h-4v-6h1l1-22-3 1-2-1v7l-2 4v-14l2-1v2h5z" fill="#0F1114"/>
<path transform="translate(59,526)" d="m0 0 1 3-3 9 1 13 6 12 9 10 9 8 30 20 8 5h5l-2 1 1 2 4 2 1-3h6l2 4 3 1v2l2 1-1 1 2 1 3-6 1-1-9-6v-2h3l2-4v3l1 4 4 2h9v-6h2v6h11l3 2-1 3h-2l-1-2h-6l3 3h9l1 4-1 2-5 2-1 5-5 2 14 6 14 5 10 4 20 7 15 7 16 9 19 13 14 10 7 4v2l4 1v-2l4 2 1 3 3-1 1 3h-2l1 2h5l4 2 2-3 6 1h3l1 3-9-1 1 2 19 8 19 7 32 10 26 9 23 6 17 3 16 1 7-8 4-3-18-2-4-2 8-3 7-3 3-2h10l3-5v-8l3-1v9l-3 7-2 1-12 1v1l12 1 5-7 2-10h1v8l-4 9-5 6-11 8h-2l-1 7 2-5 5-3 13-9 5-1 6 5 4 7 1-1-6-11-1-5 3 1 2 5 10 4 1 3-7-1 1 5 2-1h9l-2 3-10 1-1 6-2 5h-2l-1-7v-3l-17 1h-12l-2 9-3 6h-2v-10l1-5h-11l-21-3-28-8-46-15-32-11-23-10-6-2-4-4-16-10-17-12-18-12-14-8-19-8-31-11-20-8-18-8-13-8-6-3v5h-2l-1-8-5-2-18-11-16-11-13-10-9-9-5-8-2 12h-1v-40l3-5z" fill="#090A0B"/>
<path transform="translate(485,651)" d="m0 0h2l2 6v16l-2 7 2 10 3 4 1-1v-15l-1-13 2-2 3 7v5l-1 3v12l-1 8-2 2v3l4 1 2 1 5 14 4 8 8 3 12 1h9v1l-10 2h-17l5 5 4 3-3 1-9-3-2-2-1-4-2-1 6 12 2 5-2 4-3-8-5-6-6-1-16 12h-3l-2 9h-1v-7l2-4 14-10 5-7 1-4-6 8-12-1-3-1 3-2 14-1 2-7 1-9h-2l-3-12-5-8-5-4-14-5v-2l4-1 13 3-1-9 2-1-2-4-1 3-5-12v-5l5 5 3 9h2l1-12h1v8l-2 9h2v-18zm-185 8h2l4 6 10 11h6l4 2v3l16 8 15 5 30 8 17 4 30 5 31 3 26 1-1 2h-28l-27-3-31-5-21-5-26-7-22-8-4-1-1 4 4 1v3h-4l4 1v6l-6 3-5-2-4 1-3-2-2 4-4-2h-5l-1-3h2l-2-2-3 1-2-5-2-1v2l-4-2v-3l-1-4 1-7 3-6 1-1h5l4 3 2-3h2l-10-13z" fill="#20242D"/>
<path transform="translate(266,317)" d="m0 0 5 1 3 4h7v2h-2v2h6l2 2 1 5 2 1 2 6-2 3h-2l1 4-3 4-8 2-1 1h-14v2h-2v3l-7 4-10-2v2h-16l-2-1v-3h-6l-3-2 1-6v-3l4-9 2-1v-7l2-2h4l3-4 7 1 2 2 5-1 3-7 6-2 7 1z" fill="#20252C"/>
<path transform="translate(159,599)" d="m0 0 11 6 14 7 10 4 26 6 15 3 1 1 1 7h9l19 10 16 9 1 7 1 1 7-1 1-6 6 4 5 5 7 9 1 3-5 4-3-3h-5l-2 5h-2l-7-14-11-5v-2l-4-2-4-4-12-2v-2l4-2 1-2-3 2-8-1 1-2-6 1-18-6-2-1h-17l-9-2-6-4-4-2-1-3-1 2h-3l-1-5v3l-10-1-3-1 1-4 5-1v-6l-9 1-4-5h7l1 3 2-1v-2l-2-1h-11l-1-3z" fill="#506669"/>
<path transform="translate(331,687)" d="m0 0 36 12 31 8 29 5 23 3 12 1 29 1v7l-3 5-1 1h-10l-4 1-25-1-17-5 1-3h-12l-8-1h-4l-1-3h-3-1l-6-2-9-1h-10l-14-3-1-3-3-1v-2h-8l-2 1-2-1v2l-3 1-12-5 1-7-4 1v-2h4l-1-3-3-1z" fill="#506769"/>
<path transform="translate(939,416)" d="m0 0 1 3-4 5 1 5 7 5 5 2 2-4h6l2-2 5 1 3 8 1 1v6l1 6 4 1 1 6h-2v6l-2 3-1 5-2-1v-2l-13 1-1 1h-5l-7-2-5-3-1-2-5-2-3-9-6-4-2-6-9 7-3-1 7-6 5-5h2l3 10h2l-3-9 2-4-2-1h2v-8l6-6 4-1z" fill="#1F242C"/>
<path transform="translate(968,482)" d="m0 0h1v21l-2-1-1-7-7 11-9 10-11 9-14 10-17 11-21 12-18 10-23 11-11 5-27 8-23 5-49 8-24 7-16 8-11 8-9 9-8 13-16 32-8 11-9 10-14 12-15 11-14 8-16 7-20 6-24 4v8l1 5-4-2-2-2v-8l3 1-1-7-2-1 1-3 3 3 1 2 14-2 19-4 19-7 19-10 15-11 11-9 13-13 10-16 14-29 8-11 6-7 10-8 14-8 15-6 25-6 43-7v-4l3-5 8-6 5-2 9 1 5 4 1 4 12-3 19-8 30-15 24-14 16-10 16-11 10-8 11-11 7-11 4-11z" fill="#0C0E11"/>
<path transform="translate(709,283)" d="m0 0 4 1 2 1v3l5 1 2 2v4l6 2 3 12v9l5 4-3 1-5-2-1 1h-7l-1 1h-14l-6-1h-2v-2l-4-1-4-4v-6l-1-4 7-7 3-4 6-1 1-5z" fill="#252A32"/>
<path transform="translate(472,596)" d="m0 0h9l8 3 2 2v6l-7 4-5 1-1 7-4 8-5 4-9 2-7-1-8-8-2-8 4-9 4-4 13-4z" fill="#3F5561"/>
<path transform="translate(664,273)" d="m0 0 5 1 4-1 19 10 9 7h3v3l-7 3-3 5-4 2-2 3-5-2-8-6h-5l-3-3-21-8-17-5h-5l1-6 17 2 7 2 7-2z" fill="#3B4E4F"/>
<path transform="translate(673,461)" d="m0 0h2l-2 10h8l5 3 4 7v9l-3 6-6 5-10 1-7-1-6-4-3-6v-10l3-5 7-5 5-1z" fill="#405664"/>
<path transform="translate(687,589)" d="m0 0 2 1v2l-19 5-13 5-11 6-9 8-6 10-16 36-8 14-12 14-9 8-10 6-13 5-22 5-24 3-11 1 3 6 4 1 9-5h9l-5 5-5 3 6 1 9-1 3 2 11 1 3 1v2l-5 1h-19l1 2 3 2-7-1v-1l-9-1v-1l10-2 1-1-12-1-8-3-8-16-2-9v-16l2-2 2 23 2 7 30-3 25-5 17-6 11-7 10-10 9-12 9-16 14-33 7-10 8-7 14-8 18-6z" fill="#0F1113"/>
<path transform="translate(298,676)" d="m0 0 4 1 1 5h5l5 3-3-4-3-1v-2h2v-2l6 1 3 4 3-2 1 2 6 3-1 9h2l1-2 4 2v3h-4l4 1v6l-6 3-5-2-4 1-3-2-2 4-4-2h-5l-1-3h2l-2-2-3 1-2-5-2-1v2l-4-2 2-1-1-6h2l-1-6 3-1-1-4z" fill="#1D2129"/>
<path transform="translate(311,656)" d="m0 0 3 3v2h2l4 6v2h2v2l4 2 6 5 9 4h2v-3l-2-1v-2l7 1 9 3v2l8 1 3 2 1 4 7 4 21 6-1 3-14-3v2l-11-2-24-7-16-7-5-4v-3l-10-1-7-7 1-3 5-1-4-7z" fill="#66777D"/>
<path transform="translate(100,488)" d="m0 0 4 1-2 4h11l11 5v2h-11l-11-1v2l9 2 5 5 3 9-5-1-5-7-6-1 1 2v14l-3 1v-2h-2l-3-11-5-1-5 7-5 1 1-5 3-6-7 3-6 1 4-5h2l2-4 5-5 9-6z" fill="#242D39"/>
<path transform="translate(122,534)" d="m0 0 2 3 2 16 7 13 10 13 12 13 10 8 21 11 15 5-2 2-10-3-18-8-11-7-1 2h-2v6l-9 1-6-4 1-5-2 3h-3v2l10 5-3 5-2 4-4-3 1-3-4-1-1-4h-6l-1 4-5-3v-2h2v-2l8-3 2-1v-6l4-5 3-2h5l-11-14-9-13-4-9-1-4z" fill="#101316"/>
<path transform="translate(727,604)" d="m0 0 2 1-1 2-21 7-14 8-9 7-8 8-8 13-16 32-8 11-9 10-14 12-15 11-14 8-16 7-20 6-24 4v8l1 5-4-2-2-2v-8l3 1-1-7-2-1 1-3 3 3 1 2 14-2 19-4 19-7 19-10 15-11 11-9 13-13 10-16 14-29 8-11 6-7 10-8 14-8 15-6z" fill="#0A0C0D"/>
<path transform="translate(631,241)" d="m0 0h6l3 2v2l4-4 5 1 1 3 6 2 3 7v6l5 2 1 1v5l-2-3-1 2h-11v-3l-3 1-3-4-6-1-2-4-4 1-2 1v8l-10-1-2-6v-5l-2-1 2-2h5l2-3 3-1z" fill="#3E5054"/>
<path transform="translate(909,503)" d="m0 0h10l6 5 2 9v6l-5 5h-3l-6 1h-9l-5-4-2-3v-8l4-6z" fill="#161A1F"/>
<path transform="translate(557,627)" d="m0 0 3 1v28l-1 4h-2l-1 2-7 3-5 1h-9l-3-1v-2l12-1 1-1-7 1-12-2-2-2v-2l1-4 4-2h18v2h2l1 5v3l5-2 2-4-5-3-6-2h-16l-10 3-2 1-1 5 4 1 9 4 1 2-8-1-6-3-2-4v-5l5-4 10-3h14l10 3 2 1z" fill="#50646F"/>
<path transform="translate(539,340)" d="m0 0h17l8 4 2 3-1 6-4 3-6 2h-16l-7-3-3-2-1-7 4-4z" fill="#273B4F"/>
<path transform="translate(266,317)" d="m0 0 5 1v8l5-1 1 5 2-1h6v6l1 2h-2l-1 2v-2l-7 5-4-8h-6v3l5 1 2 5-6 2-8-3-2-5-3-1-1-8h-2v-3l-3 1 2-6 6-2 7 1z" fill="#3C4F52"/>
<path transform="translate(939,416)" d="m0 0 1 3-4 5 1 5 7 5 6 3-1 3-4-2v5l-6-1 1 5-7-2 2 7-1 2 2 2-5 4-3-3-1-3-6-4-2-6-9 7-3-1 7-6 5-5h2l3 10h2l-3-9 2-4-2-1h2v-8l6-6 4-1z" fill="#16181B"/>
<path transform="translate(677,340)" d="m0 0h3l1 12 3 6 1 3 4 2 10 6 9 3v2l-8-1-14-7-3 6-4 3-9 1-7-3-3-5 1-7 4-5 5-2h7z" fill="#5E6F76"/>
<path transform="translate(277,606)" d="m0 0 16 8 17 9 10 5-5 4-10-3 7 3-3 3-5-1-29-15-9-5v-2l6-2 3 1-2-1v-2z" fill="#3B4F52"/>
<path transform="translate(375,534)" d="m0 0h13l9 3 4 4-1 5-4 4-7 2h-14l-8-3-3-2-1-6 5-5z" fill="#273B4F"/>
<path transform="translate(285,402)" d="m0 0h8l5 3 3 7-1 9-4 5-4 1h-10l-5-2-3-7 1-9 7-6z" fill="#607278"/>
<path transform="translate(318,584)" d="m0 0 6 2 25 13 9 6-2 3-5-2-6-2 8 4-3 3-4 1-26-14-14-7v-2l7-4z" fill="#384A4E"/>
<path transform="translate(709,283)" d="m0 0 4 1 2 1v3l5 1 2 2v4l6 2 1 6h-2l-1 6-7 1v-3h-8l-1-3h-5l-2 3 5-1 1 4-5 1-10-2-3-1 1-5h7l-1-6 5-1h3l-1-5h3v-2l-3-1z" fill="#3E5154"/>
<path transform="translate(302,591)" d="m0 0 10 4 7 4-4 1 4 2 2-2 16 8 8 5-5 4-6 3-16-8-24-13-2-2z" fill="#405667"/>
<path transform="translate(823,434)" d="m0 0 7 1 4 4 1 4-3 11-4 4-7 1-7-2-4-4-2-4v-6l4-5 10-3z" fill="#5E6F76"/>
<path transform="translate(263,614)" d="m0 0 6 2 18 10 19 10-3 3-8 5-4-1 1-2-2-3-1-4-6-1-2 3-5-2-23-12-1-2z" fill="#415667"/>
<path transform="translate(238,609)" d="m0 0 5 1 1 15 5-3 5 1 22 12 5 3v10l-6-2-28-15-5-3v5h-4l-1-2v-17l3-1-3-3z" fill="#3C5154"/>
<path transform="translate(498,254)" d="m0 0 9 1 5 4 1 2v8l-13 6h-13l-5-3v-6l5-6 8-5z" fill="#0E1013"/>
<path transform="translate(968,482)" d="m0 0h1v21l-2-1-1-7-7 11-9 10-11 9-14 10-17 11-21 12-18 10-23 11-11 5-9 3-4-1 5-3 20-8 32-16 24-14 16-10 16-11 10-8 11-11 7-11 4-11z" fill="#0A0B0C"/>
<path transform="translate(239,607)" d="m0 0 5 2v13l7-3 9-5 2 1-9 6 25 13 3 2 2-4 6 1 2 2v4l3 3-5-1v-2l-4 1-2-1v20l3-1 1 3-5-1-1-1v-7l-5-2-19-10-11-6h-9l-1-1-1-7-33-7-2-2 9 1 26 5v-13zm-1 2v3l2 1-3 1v17l2 2h3v-5l37 20h2v-10l-18-10-11-6-5 1-3 2-1-15z" fill="#0E1012"/>
<path transform="translate(668,419)" d="m0 0h13l8 3 3 4-1 6-8 4h-17l-6-3-3-4 1-5 6-4z" fill="#556871"/>
<path transform="translate(289,599)" d="m0 0 5 1 39 20-4 4-6 3-6-2-26-13v-4l-4-3-3-3z" fill="#3C5054"/>
<path transform="translate(959,430)" d="m0 0 5 1 3 8 1 1v8l-2-1v-2h-3l-1 4 4 1h-3l-1 2v-2l-6-1-2-5-5 1-2 4h6l1 3v3l-3 2-6-1v-5l-3 1-2 4h-2l-1 3h-4v-2l2-1-2-3v-4-4l5 1 2 1-1-5 6 1v-5l4 1 1-2-2-1 3-4h6z" fill="#3D5155"/>
<path transform="translate(233,325)" d="m0 0 7 1 1 2h-3v2l9 3v-2h4v8l4-1 1 4-2 3 7-1 2 2v3l-3 1h-8l-9-2-1 4-7-1v-2l-4-1v-3h2v3l3-2 2-5 3 1 1-4h-5l-2 4h-2v2h-2v-3h-2l-2-5-3-3 2-4h4z" fill="#3D4F53"/>
<path transform="translate(261,363)" d="m0 0h2v2l-15 8-8 7-5 10v10l5 13 3 8v14l-4 8-9 10-9 8-18 11-23 12-22 11-15 10-9 9-6 10-4 13h-1v-7l5-12 7-9 10-9 15-9 34-17 22-13 10-8 9-9 5-10 1-7-3-12-5-11-1-13 2-7 9-10 14-9z" fill="#0E1013"/>
<path transform="translate(460,600)" d="m0 0 3 1-1 5 1 2-8 3-3 5 3 7 2 1h7l5-5v-6l-1-2 4 1v9l5-2-2 7-6 5-9 2-7-1-8-8-2-8 4-9 4-4z" fill="#415769"/>
<path transform="translate(194,375)" d="m0 0 1 4-1 4v7h13l3 2-1 6-6 4h-2l1 4h-5v-2h-3v14l-4 13-8 11-7 7-5 4-2-1 11-12 7-9 4-10 1-40 2-5z" fill="#0C0E10"/>
<path transform="translate(300,659)" d="m0 0h2l4 6 10 11h6l4 2v3l16 8 15 5 30 8 17 4 11 2 2 1v2l-19-3-38-10-25-9-4-1-2 5h-2l1-9-6-2-2-2-3 2-2-5-6-1v2h-2v2l4 1 2 4-4-1-6-2-2-5h-3v4l-2 1v6 3 3h-2l-2-3 1-10 3-6 1-1h5l4 3 2-3h2l-10-13z" fill="#101215"/>
<path transform="translate(249,325)" d="m0 0h2v3h2l1 2v6l4 1 1 5 6 1 4 1 4-1-3-5-4-1v-3l6-1 4 8 5-4 8-1-2 10v2l-7 2-4-1v2l-6-1-1 2h-9v-3h3l-2-4h-7l1-6-4 1-1-3 1-6h-4v2h-5l-5-3 1-3 8 1z" fill="#20262E"/>
<path transform="translate(723,529)" d="m0 0 13 2 10 3 3 3-1 4-7 3-5 1h-8l-9-2-7-4 2-5 5-4z" fill="#4D616E"/>
<path transform="translate(485,651)" d="m0 0h2l2 6v16l-2 7 2 10 3 4 1-1v-15l-1-13 2-2 3 7v5l-1 3v12l-1 8-4 2-4-8-1-1-1-7-1 5-7-1 10 5v5h-2l-5-5-5-3-11-4v-2l4-1 13 3-1-9 2-1-2-4-1 3-5-12v-5l5 5 3 9h2l1-12h1v8l-2 9h2v-18z" fill="#0A0B0C"/>
<path transform="translate(296,452)" d="m0 0h12l14 3 2 1-1 3-14-3h-14l-5 1 1 3 3-1h10v2l-17 4 2 5 5 2-1 2-7-3-6-2-9-1-1-4 4-5 8-4z" fill="#42586A"/>
<path transform="translate(944,387)" d="m0 0h2l-1 9-1 6h3v-2l16-11 7-1-2 4-8 6-5 6 12 3 1 4h-13l-7-1-7 8h-3l-5 4 2-4 9-9 1-2-2 1-3 1v-13z" fill="#1E2328"/>
<path transform="translate(55,584)" d="m0 0h3l6 12 10 11 15 11 17 11 21 13 27 15v2l-9-3-22-12-16-10-27-18-13-11-9-12z" fill="#2E3235"/>
<path transform="translate(341,676)" d="m0 0 7 1 9 3v2l8 1 3 2 1 4 7 4 21 6-1 3-14-3v2l-11-2-14-4 4-5-3-3-12-5-1-3-4-1z" fill="#526675"/>
<path transform="translate(456,292)" d="m0 0h4v2l3 2v3h-2l1 6h-3l-1 5-13 4-9 5-3 1v2h-2l1-4 10-6 10-4 3-1 1-2-2-1 1-2-17 7-11 6-4 1-2 4h-3l3-5 4-1v-2l19-10 6-3-10 3v-3z" fill="#586A72"/>
<path transform="translate(673,461)" d="m0 0h2l-2 9-2 7 3-1 7 3 2 3-1 9-3 3h-10l-5-2-1-10 5-6z" fill="#617279"/>
<path transform="translate(253,528)" d="m0 0h7l9 3 2 2v5l-5 4-4 1h-8l-8-3-3-3 1-5 5-3z" fill="#51656F"/>
<path transform="translate(920,418)" d="m0 0h4l-2 7-5 6-3 2 5-1 3-1-2 4-5 5-2 4-7 6-2-1 8-9 2-3h-25l3-3 10-5h9l-17-9v-1l9 1 7 1 9 3 2-4-2-1z" fill="#0D0F12"/>
<path transform="translate(298,676)" d="m0 0 4 1 1 5h5l5 3-3-4-3-1v-2h2v-2l6 1 3 4 3-2 1 2 6 3-1 5-7-1v3l5 1-2 4-5-1v-3h-4v-2l-4 3h-2v-2l-4-1-2-6-6 2-1-4 3-1-1-4z" fill="#3A4E53"/>
<path transform="translate(844,546)" d="m0 0h2l-1 3-21 10-31 11-19 5-35 7-23 4-23 5h-5l1-2 27-6 50-9 24-6 26-9 21-9z" fill="#0E1013"/>
<path transform="translate(234,689)" d="m0 0 6 2 15 9 19 13 13 9 20 12 17 8 8 4v2l-5-1-12-5-17-9-19-12-17-12-15-10-15-8z" fill="#272B2E"/>
<path transform="translate(102,488)" d="m0 0 2 1-2 4h11l11 5v2h-11l-11-1v2l9 2 5 5 3 9-5-1-5-7-6-1 1 2v10h-2v-7l-3-6-6-4v-3h2l3 3 5 2h4l-7-2-4-3 1-4 2-1 1-5z" fill="#0F1215"/>
<path transform="translate(932,464)" d="m0 0 4 1 2 3 9 2 1 1h5l2-1 10-1 3 3 2-4v39h-1l-1-24-1-2v-5l-12 1h-9l-8 1v2l-3-1-1-5-3-1z" fill="#2B3C4D"/>
<path transform="translate(414,480)" d="m0 0h11l6 3 2 4-3 5-6 2h-8l-9-4-1-4 5-5z" fill="#2A3F52"/>
<path transform="translate(494,705)" d="m0 0 5 2 9 20 8 3 12 1h9v1l-10 2h-17l5 5 4 3-3 1-9-3-2-2-2-5-3-2v-8h-2l1-7-3-1z" fill="#435867"/>
<path transform="translate(437,708)" d="m0 0 50 1 3 1 1 5h-26l-31-3-2-2z" fill="#576A71"/>
<path transform="translate(525,425)" d="m0 0 17 1 11 4 3 4-5-1-7-3-5-1h-16l-10 3-5 3-1 3 1 4 9 3 5 1h17l10-3 6-4 1-3h2l-1 5-6 5-9 3-7 1h-9l-10-2-8-4-3-3-1-4 3-5 6-4z" fill="#50646F"/>
<path transform="translate(462,602)" d="m0 0 5 5 7 2v2l-5 1 1 1v6l-4 5-2 1h-7l-5-5-1-4 3-5 8-4-1-4z" fill="#65767C"/>
<path transform="translate(931,421)" d="m0 0h2l-1 12 1 4 3 1v3l-6 2 1 4h-3l2 6v4h-2l-1-3-6-4-2-6-9 7-3-1 7-6 5-5h2l3 10h2l-3-9 2-4-2-1h2v-8z" fill="#1D2128"/>
<path transform="translate(484,681)" d="m0 0 2 3 1 7 4 6v3h2v3l4 1 2 1-1 2-4-2v2h-2v8l-2-3-2-9-2-5-1-4-3-3-7-3 3-1 6 2zm-67 28 26 3 22 2 26 1-1 2h-28l-27-3-18-3z" fill="#0F1114"/>
<path transform="translate(931,383)" d="m0 0h2v17l-4 17 9-7h2l-1 3h-2l-2 4-7 5h-2v-7l-1-1v3h-2l1-9 2-5-1-6-4-7v-4h3l2 5h2l2-7z" fill="#394249"/>
<path transform="translate(704,289)" d="m0 0h4v2h-3l2 5-4 1h-5l2 6-3 1h-5l-1 4h2l-1 6 11 4h2l1-2 2 1v2l7 1 5-3 6 1 1-4 2-1v5l5 2 2 2-3 1-5-2-1 1h-7l-1 1h-14l-6-1h-2v-2l-4-1-4-4v-6l-1-4 7-7 3-4 6-1z" fill="#0C0F11"/>
<path transform="translate(522,720)" d="m0 0h9l-5 5-5 3 6 1 9-1 3 2 11 1 3 1v2l-5 1h-19l1 2 3 2-7-1v-1l-9-1v-1l10-2 1-1-12-1-6-2v-3z" fill="#13161A"/>
<path transform="translate(581,698)" d="m0 0m-82-13h1l2 23 2 7 30-3 25-5 17-6 5-2 1 2-16 7-25 6-24 3-11 1 3 6 1 4-3-1-8-18-1-6v-16z" fill="#111519"/>
<path transform="translate(225,575)" d="m0 0h10l7 4v5l-6 4h-11l-6-3-1-1v-5l4-3z" fill="#4B5F6D"/>
<path transform="translate(313,565)" d="m0 0 5 4h-4v14l6-1-1-14 2-1v17l6 2 25 13 4 4-6-2-22-12-8-4-9 2-3 2-3-1 7-5v-17zm49 20 3 2v32h-4v-6h1l1-22-3 1-2-1v7l-2 4v-14l2-1v2h5z" fill="#090A0B"/>
<path transform="translate(191,502)" d="m0 0h7l2 4-3 5-4 2-4 20-1 9-2 2v-10l2-17-5-2-2-4 2-7z" fill="#596B72"/>
<path transform="translate(322,602)" d="m0 0 6 1 16 9 1 2-11 6-16-8 1-7h2z" fill="#3B4E52"/>
<path transform="translate(357,590)" d="m0 0 6 1v27h-1l-1-5-2 1-2-1-1 5-1-3-11 6-16 9-2-1 22-14 9-5-6 3-2-1 3-3-6-3-2-3 9 3h4l-1-4 1-7z" fill="#0D0F11"/>
<path transform="translate(146,589)" d="m0 0 5 1 6 6v12l-9 1-6-4 1-6-5-1 1-5 4-3 3 9 5 1-5-4-2-6z" fill="#242C36"/>
<path transform="translate(360,385)" d="m0 0h8l9 4v4l-9 4h-8l-10-4 1-4 5-3z" fill="#536670"/>
<path transform="translate(263,614)" d="m0 0h2l8 8 1 5 6 2 3 2-2 5-5-2-23-12-1-2z" fill="#344448"/>
<path transform="translate(735,402)" d="m0 0h11l5 3 1 4-4 4-2 1h-13l-5-4 1-5z" fill="#546771"/>
<path transform="translate(946,405)" d="m0 0 1 2h-2l-2 4-10 10-7 6-1 11-1 4 2 3v4h-2l-3-6v-4l-7 4 1-4 5-5 2-3-4 3-12-1v-1l11-2 5-7 2-5h-2l1-3v2h2v-3l2 1-1 7 10-7 3-3v-5l1 2z" fill="#415769"/>
<path transform="translate(886,504)" d="m0 0h3l1 8-14 13-3-1h-3l-12 9h-3l1-3 4-2 11-9z" fill="#546770"/>
<path transform="translate(532,273)" d="m0 0h28l17 3 8 2v2l-9-1-19-3h-22l-24 2-26 6-4-2 19-5z" fill="#0F1215"/>
<path transform="translate(157,504)" d="m0 0m-1 1 1 3-9 7-8 8-2 3-2 10-4 1v5l-3-1-5 5v-12l3-1 1-2 5-2 5-10 5-5 11-8z" fill="#586A72"/>
<path transform="translate(261,363)" d="m0 0h2v2l-15 8-8 7-5 10v10l5 13 3 8v14l-4 8-9 10-4 3 1-4 8-8 5-10 1-7-3-12-5-11-1-13 2-7 9-10 14-9z" fill="#0D0F11"/>
<path transform="translate(289,368)" d="m0 0h9l-1 2-25 5-9 4-4 3h-2l-1 8-2 4v9l-2 1-1-2v-7l1-10-3 8-2 5-2-2 2-9 5-6 4-1 5-4 12-5z" fill="#5F7177"/>
<path transform="translate(356,656)" d="m0 0 12 2 2 5-4 4-3 1h-9l-6-3-1-5 4-3z" fill="#536670"/>
<path transform="translate(155,610)" d="m0 0 5 1 7 7v8l-9 1-5-3-1-3-1 2h-3l-2-5v-3l5-3 2 2v5l4 1 6 2-9-6-1-5z" fill="#20252F"/>
<path transform="translate(375,534)" d="m0 0h13l9 3 4 4-1 5-4 4-7 2h-14l-8-3-3-2-1-6 5-5zm7 2-12 2-5 3 1 5 7 3h17l8-3 1-4-5-4z" fill="#526570"/>
<path transform="translate(353,349)" d="m0 0h5l-3 3-15 2-10 1-15 4-19 4-17 4h-3v-2l17-5 19-4 20-5z" fill="#5B6C73"/>
<path transform="translate(327,459)" d="m0 0 5 1 3 4v6l-5 6-8 4-8 2h-21l-12-3-8-5-1-4 14 7 4 1h24l11-3h3v-2l4-4-1-5z" fill="#536670"/>
<path transform="translate(910,504)" d="m0 0 8 1 2 2-1 6-3 3-8 2h-7l-2-1 1-5 8-7z" fill="#415767"/>
<path transform="translate(529,650)" d="m0 0h18v2h2l1 3-9 4h-7v2l-8-1-2-2v-2l1-4z" fill="#4D616E"/>
<path transform="translate(539,340)" d="m0 0h17l8 4 2 3-1 6-4 3-6 2h-16l-7-3-3-2-1-7 4-4zm3 2-10 3-3 3 2 4 7 3 12 1 9-2 5-3v-4l-7-4-5-1z" fill="#536670"/>
<path transform="translate(848,478)" d="m0 0h13l4 3v5l-4 3h-12l-5-3v-5z" fill="#556871"/>
<path transform="translate(727,362)" d="m0 0 2 3 16 3 25 9v2l-7-1-24-8-11-2v6h10v2h-9l-7-1v-2h4v-5h-19l-4-2v-1l24 1z" fill="#748389"/>
<path transform="translate(577,507)" d="m0 0h7v2l-14 4-2 2-1 4 5 2 7 2h14l8-2h2v-6l-4-3-12-3v-2l10 1 8 4 2 5-3 5-10 4-10 1-11-2-6-4-2-2v-5l6-5z" fill="#50646F"/>
<path transform="translate(474,286)" d="m0 0 2 1-3 3-4 2 12-2-4 6 5 1h5l-1 2-8 2h-9l-6-2-1-3-3-2v-3z" fill="#43596A"/>
<path transform="translate(924,513)" d="m0 0h1v6l-4 6-3 2h-5v2h-9l-4-3 1-2 1 1h5v-5l-5-1v-1l18-4 2 6z" fill="#0D0E10"/>
<path transform="translate(668,419)" d="m0 0h13l8 3 3 4-1 6-8 4h-17l-6-3-3-4 1-5 6-4zm4 2-9 2-4 3 1 4 6 3 11 1 9-2 4-3-1-4-6-3z" fill="#526570"/>
<path transform="translate(271,319)" d="m0 0 3 3h7v2h-2v2h6l2 2 1 5 2 1 2 6-2 3h-2l1 4-3 4-8 2-1 1h-13l-1-2h6l1-3 6 2v-2l11-1-1-6 2-2 1-4-5-1 1-6-8 1-1-4-5 1-1-1z" fill="#0C0D0F"/>
<path transform="translate(503,282)" d="m0 0h6v2l-22 5h6v2l-13 4 11-2-4 4-9 1-2-3 3-4-6 2h-5l3-3 4-1 1-3 1 2 9-3z" fill="#65757C"/>
<path transform="translate(485,651)" d="m0 0h2l2 6v16l-2 7 2 10 3 4 1-1v-15l-1-13 2-2 3 7v5l-1 3v12l-1 8-4 2-4-8-1-1-2-10v-4h2v-18z" fill="#070808"/>
<path transform="translate(189,558)" d="m0 0h11l8 3 4 4-1 6-5 3-11 2-10-1-7-3-1-3 9 3h15l7-3 1-3-4-3-12-2-12 2-3 2-2 3v-4l5-4z" fill="#526570"/>
<path transform="translate(445,613)" d="m0 0h2l1 3 2-3 2 9 4 3h9l5-2-3 4h-2l1 3-1 2-5 1-7-1-8-8-2-8z" fill="#3F5561"/>
<path transform="translate(306,614)" d="m0 0 6 1 4-1v4l4-2 3-1 10 5-4 4-6 3-6-2-10-5-1-3z" fill="#3A4D5A"/>
<path transform="translate(541,344)" d="m0 0h11l5 2 1 4-3 3-3 1h-10l-5-3-1-4z" fill="#4E626E"/>
<path transform="translate(491,715)" d="m0 0h2v9l-3 7-2 1-12 1-2 1 7 1 4 4-3 2-19-2-4-2 8-3 7-3 3-2h10l3-5v-8z" fill="#090A0B"/>
<path transform="translate(223,342)" d="m0 0 1 4-2 1 1 4h-3l-1 5 8 1v3h7l1-3 5 3h4l1-3h2v2h7l1-2 5-2 3-1v2h-2v3l-7 4-10-2v2h-16l-2-1v-3h-6l-3-2 1-6v-3l2-4z" fill="#080A0A"/>
<path transform="translate(802,578)" d="m0 0h7l5 3 1 5-3 1v-5l-9 6-7 2h-7l2-5 9-6z" fill="#394C52"/>
<path transform="translate(87,498)" d="m0 0 2 1-6 5 4 2-1 7 1-1 3-4 7 1 3 4 1 10h-2l-3-11-5-1-5 7-5 1 1-5 3-6-7 3-6 1 4-5h2l2-4 2-3z" fill="#0B0C0E"/>
<path transform="translate(302,619)" d="m0 0 17 8 1 2-5 3-10-3 7 3-3 3-5-1-4-2v-11h2z" fill="#405565"/>
<path transform="translate(191,381)" d="m0 0h1l1 23h1v14l-4 13-8 11-7 7-5 4-2-1 11-12 7-9 4-10z" fill="#283137"/>
<path transform="translate(360,383)" d="m0 0 14 1 6 5v5l-6 4-3 1h-13l-8-3-2-3 1-5 3-3zm0 2-8 3-2 2v3l10 4h8l9-4v-4l-9-4z" fill="#576972"/>
<path transform="translate(628,375)" d="m0 0h6l3 3 1 3-1 3 2 4-3 1h-7l-7-6 2-5z" fill="#43575B"/>
<path transform="translate(437,780)" d="m0 0 15 2 22 1h23l-1 2-5 1h-35l-18-3-5-1z" fill="#292E31"/>
<path transform="translate(566,284)" d="m0 0 26 7 13 1 16 1 6 1v2h-26l-17-3-17-6z" fill="#627379"/>
<path transform="translate(249,325)" d="m0 0h2v3h2l1 2v6l4 1 1 5 6 1 2 2h-2l-1 5-1 2h-3v-3h3l-2-4h-7l1-6-4 1-1-3 1-6h-4v2h-5l-5-3 1-3 8 1z" fill="#131519"/>
<path transform="translate(144,570)" d="m0 0h2v3h2l1 3 2 1v3l4 2 8 8 3 2v2l4 1 11 8 1 2-6-2-9-5 3 3-3 1-6-4-1-3h3v-2l-4-2-10-10v-3l-3-1z" fill="#62747B"/>
<path transform="translate(405,401)" d="m0 0h16l11 3 6 5 1 7-3 2 1-6-5-4-8-3-9-1-14 2-8 4-2 6-2-1v-5l5-5z" fill="#4E626E"/>
<path transform="translate(729,531)" d="m0 0h7l10 3 3 3-1 4-7 3-5 1h-8l-9-2-4-3 1-4 4-3 6-1v2l-5 1 1 5 4 2h12l4-2v-4l-4-2-11-1z" fill="#273B4F"/>
<path transform="translate(726,529)" d="m0 0h14l8 4 3 3-1 6-6 4-4 1h-16l-10-5v-2l5 2 9 2h8l10-3 2-1-1-4-6-3-16-2z" fill="#556871"/>
<path transform="translate(188,562)" d="m0 0h10l6 3-1 4-2 2h-14l-4-4z" fill="#51656F"/>
<path transform="translate(296,452)" d="m0 0h12l14 3 2 1-1 3-14-3h-14l-11 2-10 5-2 4h-2l1-5 5-4 6-3z" fill="#556871"/>
<path transform="translate(249,321)" d="m0 0 4 1 3 5 1 5-2 3 4-2 3 1h3l1 2 5 2 2 5-6 2-8-3-2-5-3-1-1-8h-2v-3l-3 1z" fill="#3B4F56"/>
<path transform="translate(564,700)" d="m0 0m-6 1h6v2l-9 3v3l-9 2h-5l1-3-7 1h-9l3-2 16-4z" fill="#5F7179"/>
<path transform="translate(933,500)" d="m0 0h7l6 3-2 4-6 4h-6l-5-3 2-6z" fill="#101215"/>
<path transform="translate(727,355)" d="m0 0 10 3 47 16 18 7-1 3-20-8-44-15-11-4z" fill="#0F1114"/>
<path transform="translate(204,436)" d="m0 0h8l2 2v6l-5 3h-10l-1-1v-6z" fill="#0C0D0F"/>
<path transform="translate(277,606)" d="m0 0 3 1v4l3 1 1 4 1 3v4l-6-2-13-7v-2l6-2 3 1-2-1v-2z" fill="#405665"/>
<path transform="translate(498,256)" d="m0 0h6l6 4 1 1v6l-12 5v-2l10-4v-2l-10 2-8-5 3-3z" fill="#435967"/>
<path transform="translate(414,480)" d="m0 0h11l6 3 2 4-3 5-6 2h-8l-9-4-1-4 5-5zm1 2-6 3 1 4 5 2h10l6-3-2-4-5-2z" fill="#526570"/>
<path transform="translate(672,421)" d="m0 0 11 1 7 4-1 4-6 3-12 1-10-3-2-2 1-4 6-3zm-4 2-4 3 1 4 3 2h13l3-2v-5l-4-2z" fill="#273B4F"/>
<path transform="translate(409,406)" d="m0 0h5l1 3-11 2-1 3 6 2h10l6-2-1-3-7-3v-1h6l5 4-1 5-6 3h-15l-6-4-1-3 3-4z" fill="#546771"/>
<path transform="translate(851,442)" d="m0 0 4 1 14 8 2 1-3-4v-2l4 1 6 3 3 3v6l-10-3v-2l-8-2-11-7z" fill="#6A7A82"/>
<path transform="translate(689,318)" d="m0 0 5 1 3 1v2l6-1 7 1 6 2 3 9-1 2h-2l-2-5v-3l-11 1-14-8z" fill="#405565"/>
<path transform="translate(525,425)" d="m0 0 17 1 11 4 3 4-5-1-7-3-5-1h-16l-10 3-5 3-2 2v-4l5-4 9-3z" fill="#546771"/>
<path transform="translate(491,261)" d="m0 0 5 2 3 2 11-2-1 4-10 3h3 4l-1 3-5 2h-13l-5-3 1-5 2 4 2 1h8l2-5-7-3z" fill="#0B0C0E"/>
<path transform="translate(314,563)" d="m0 0h6l2 2v17h-1l-1-13v13l-6 1v-14-2l-1-3z" fill="#1E232B"/>
<path transform="translate(502,669)" d="m0 0h1l-1 10 1 3-2 4-2 1v18l-7-1v-5l3-1v-26l2 3v6h2l1-6z" fill="#202A35"/>
<path transform="translate(283,639)" d="m0 0h6l4 5-1 2h-2l-1 14-2 1-2-2h-2z" fill="#1E2229"/>
<path transform="translate(631,550)" d="m0 0h9l4 3-1 5-2 1h-10l-4-3 1-4z" fill="#4F626D"/>
<path transform="translate(720,580)" d="m0 0m-7 1h7v2l-37 8-7 1v-3l16-4z" fill="#405667"/>
<path transform="translate(250,531)" d="m0 0 4 1-1 1 4 1h5l1 2-2 1h-7v2l10-2v-3l-1-1-8-1v-1h9l6 4-3 4-3 1h-13l-6-3 1-4z" fill="#273B4F"/>
<path transform="translate(624,680)" d="m0 0v3l-3 9-6 3h-6l-2-2 1-7 2-1h6l3 1z" fill="#0C0D0F"/>
<path transform="translate(238,609)" d="m0 0 5 1 1 18h-2v5h-4l-1-2v-17l3-1-3-3z" fill="#2A343E"/>
<path transform="translate(802,382)" d="m0 0 6 2 13 7 12 11 10 20 8 9 3 3h-3l-10-10-9-19-7-8-13-8-10-5z" fill="#0C0D0F"/>
<path transform="translate(311,656)" d="m0 0 3 3v2h2l4 6v2h2l1 6-3 2-5-1-6-6 1-3 5-1-4-7z" fill="#576970"/>
<path transform="translate(844,546)" d="m0 0h2l-1 3-21 10-31 11-10 2 3-3 30-10 21-9z" fill="#0C0E10"/>
<path transform="translate(416,321)" d="m0 0h2l-3 9h-2l-2 5-4 4-15 8-9 3h-10l1-2 16-4 16-8 6-8z" fill="#5A6C73"/>
<path transform="translate(230,640)" d="m0 0 16 4 5-1 3 2-5 1h7l4-1-1 3h-16l1 3 5 1v-2l3 1-1 6h-3v-2l-7-2-1-5v-2l-10-4z" fill="#101316"/>
<path transform="translate(100,488)" d="m0 0 2 1-2 3-1 4h-2l-1 4 4 2 10 3v1h-7l-8-4v-2h-2l-1 4-2-2-2-1-1-2-4 1 5-4 9-6z" fill="#405261"/>
<path transform="translate(391,416)" d="m0 0 5 2 9 3h18l11-3v3l-7 3-6 1h-14l-13-4-3-3z" fill="#536670"/>
<path transform="translate(143,599)" d="m0 0v3l1 4 4 2h9v-6h2v9h-6l3 6 10 6-2 1-11-5-2-6-3 2h-3l2-4-9-6v-2h3z" fill="#0F1215"/>
<path transform="translate(494,705)" d="m0 0 5 2 9 21-5 1-3-3v-3h-2l1-7-3-1z" fill="#394C5A"/>
<path transform="translate(733,533)" d="m0 0 7 1 3 2-1 5-4 2h-12l-6-3v-5l1-1h6v2l-4 1v2h17v-2l-7-2z" fill="#51646F"/>
<path transform="translate(901,431)" d="m0 0h13v2l5-1 3-1-2 4-5 5-2 4-7 6-2-1 8-9 2-3-13-1-3-2z" fill="#101316"/>
<path transform="translate(625,276)" d="m0 0 17 2 4 2-1 6-6-1-10-3h-5z" fill="#3D525F"/>
<path transform="translate(472,596)" d="m0 0h9l8 3 2 2v6l-7 4h-9v-2l9-2 4-2v-3l-4-2-9-1-9 2-4 1 3-4z" fill="#556771"/>
<path transform="translate(146,589)" d="m0 0 5 1 6 6v12h-3l-2-7-6-5-2-6z" fill="#4C6367"/>
<path transform="translate(538,288)" d="m0 0h8l14 3 17 4 5 1v2h-9l-25-6-10-2z" fill="#5C6E75"/>
<path transform="translate(471,600)" d="m0 0h11l3 3-2 4-10 1-6-3v-3z" fill="#596B72"/>
<path transform="translate(455,299)" d="m0 0 3 1-9 4-19 9-4 3h-3l-2 4h-3l3-5 4-1v-2l19-10 6-2z" fill="#738388"/>
<path transform="translate(616,655)" d="m0 0 1 3-8 15-13 16-10 9-5 2 4-5 8-7 9-10 11-18z" fill="#0C0D0F"/>
<path transform="translate(597,651)" d="m0 0h2l-2 6-9 11-11 10-11 6h-4v-2l14-7 10-9 9-12h2z" fill="#5B6D74"/>
<path transform="translate(931,461)" d="m0 0 8 1v4l9 1 4 4v-3l5 1 6-2 7-1-1 7-2-1v-2l-13 1-1 1h-5l-7-2-5-3-1-2-4-2z" fill="#070808"/>
<path transform="translate(581,511)" d="m0 0h3l-1 3-7 1v3l13 1 6-1-2-3-6-2 1-2 6 1 3 3-1 5-5 2h-11l-6-3-1-4 4-3z" fill="#526570"/>
<path transform="translate(297,674)" d="m0 0h5l4 3 1-2 3 1-1 2h-2v2l4 1 2 4-4-1-6-2-2-5h-3v4l-2 1v6 3 3h-2l-2-3 1-10 3-6z" fill="#0B0C0E"/>
<path transform="translate(162,608)" d="m0 0h8l3 2-1 3h-2l-1-2h-6l3 3h9l1 4-1 2-7 2-1 2-2-7-6-6v-2z" fill="#121619"/>
<path transform="translate(136,603)" d="m0 0h2v2l10 5-3 5-2 4-4-3 1-3-4-1-1-4h-4l1-3z" fill="#42586A"/>
<path transform="translate(377,538)" d="m0 0h5v3l-8 2 1 1h14v-2l-6-2v-2l7 1 3 3-2 4-4 2h-9l-5-2-2-2 1-4z" fill="#4F626E"/>
<path transform="translate(963,528)" d="m0 0 1 4-8 10-11 11-9 7-1-3 14-13 5-5 6-7z" fill="#242A2D"/>
<path transform="translate(641,272)" d="m0 0 2 1v3l4 1 1-2 5 2 3-3 7-1-1 3-8 4-6 1-6-2-12-1v-4l9 1z" fill="#0A0B0C"/>
<path transform="translate(499,685)" d="m0 0h1l2 23 2 7h7v2l-5 1 3 6 1 4-3-1-8-18-1-6v-16z" fill="#0D0E10"/>
<path transform="translate(727,604)" d="m0 0 2 1-1 2-21 7-14 8-4 3-2-1 5-5 10-6 14-6z" fill="#0A0B0C"/>
<path transform="translate(815,404)" d="m0 0 4 3 2 5 2 9 4 6 11 9 1 3-5-2-6-4-3-3v-2h-2l-4-8-3-11z" fill="#68797F"/>
<path transform="translate(791,395)" d="m0 0 6 1 11 7 3 6 2 16 2 6-4-2-2-7-1-12-4-6-13-8z" fill="#5B6D74"/>
<path transform="translate(512,237)" d="m0 0h30l7 2v1h-28l-18 1 1-2z" fill="#252A2F"/>
<path transform="translate(886,504)" d="m0 0m-1 1m-1 1 2 1-2 4-12 12-14 10h-3l1-3 4-2 11-9z" fill="#718086"/>
<path transform="translate(495,718)" d="m0 0h1v8l-4 9-5 6-11 8-3-1 8-7 3-3-5-2-3-1 1-1 11 1 5-7z" fill="#08090A"/>
<path transform="translate(196,674)" d="m0 0 11 3 20 8 5 3v2l-5-1-19-8-14-5z" fill="#292D2F"/>
<path transform="translate(313,565)" d="m0 0 5 4h-4v14l6-1-1-14 2-1v17l6 2 5 3-2 1-10-5-9 2-3 2-3-1 7-5v-17z" fill="#070909"/>
<path transform="translate(966,388)" d="m0 0h4l-2 4-8 6-6 5v-2l-5 3 2-4-1-2 13-9z" fill="#292F32"/>
<path transform="translate(510,733)" d="m0 0 14 1 1 3-7 1 9 3v4h2l-1 4-2-3-9-2v-3l-8-6z" fill="#1B2128"/>
<path transform="translate(307,459)" d="m0 0 9 2 5 4-1 6-5 3-4 1h-15l-1-2 17-2 6-3-1-3-10-3z" fill="#536670"/>
<path transform="translate(489,261)" d="m0 0 2 1-1 2 7 2v3l-2 4h-8l-4-4z" fill="#242C36"/>
<path transform="translate(280,604)" d="m0 0 6 1 6 2-1 4 28 14-2 2-16-8-13-7-4-4-5-2z" fill="#0E1013"/>
<path transform="translate(680,320)" d="m0 0 3 3 8 11 12 9 24 12-3 1-16-7-11-7-10-9-7-10z" fill="#0D0F11"/>
<path transform="translate(539,731)" d="m0 0h11l3 1v2l-5 1h-19l1 2 3 2-7-1v-1l-9-1v-1l10-2 8-1z" fill="#0F1114"/>
<path transform="translate(891,525)" d="m0 0 5 1 2 2-1 5-6 3-6-2 1-5z" fill="#0F1114"/>
<path transform="translate(563,248)" d="m0 0h2l2 4h2l-1 7 9 1v2l-9-1-5-4-1 2-3-1-1-2-2 4-2-8 4-1 2 3z" fill="#111316"/>
<path transform="translate(495,743)" d="m0 0 4 2 7 4v2l-12 1h-11l3-3 8-4z" fill="#354950"/>
<path transform="translate(406,322)" d="m0 0h2l-1 3-28 13-8 3v-3l25-12z" fill="#5C6E75"/>
<path transform="translate(216,353)" d="m0 0 1 4 9 2v3l6 1v3h-9l-7-3-2-1v-6h2z" fill="#26394C"/>
<path transform="translate(495,465)" d="m0 0 8 1 2 2-1 4-6 2-7-2-1-4z" fill="#485C68"/>
<path transform="translate(303,409)" d="m0 0 2 2 1 6-1 2 2 1 1 1-1 3h-2l-1 2v-2h-2v3l-6 4-7 1-2-1v-2l8-2 5-4 2-6z" fill="#3C5053"/>
<path transform="translate(355,754)" d="m0 0 16 4 17 6 1 3-9-2-25-8z" fill="#2A2E30"/>
<path transform="translate(699,646)" d="m0 0m-1 1 1 3-12 9-9 9-6 9-2-3 6-8 13-13z" fill="#323638"/>
<path transform="translate(239,607)" d="m0 0 5 2v13l7-3 9-5 2 1-9 6 4 3h-3l-5-1-6 3-1-16-4 1 4 3h-5v9h-1l-1-13z" fill="#0C0D0F"/>
<path transform="translate(627,598)" d="m0 0h2l-2 4-5 5-7 9-4 10-1 5h-3l3-12 6-10 9-10z" fill="#5A6C73"/>
<path transform="translate(455,271)" d="m0 0h6l2 2-1 5-3 2h-8l-1-4z" fill="#0F1113"/>
<path transform="translate(155,610)" d="m0 0 5 1 7 7v6l-12-7-2-6z" fill="#455A6A"/>
<path transform="translate(219,345)" d="m0 0v3l-1 5-4 1-10 9-6 9-2-1 1-4 8-10z" fill="#363B40"/>
<path transform="translate(532,278)" d="m0 0h16l10 2 2 1v2l-20-2h-19l1-2z" fill="#5B6D74"/>
<path transform="translate(510,744)" d="m0 0 8 2v-2l8 1 2 2 2-1v7l-8-2v-1h-10z" fill="#101214"/>
<path transform="translate(699,599)" d="m0 0h5l-3 3-6 1-1 4h-7l-3 3-8-1v2l-13 3v-2l9-3 3-3 9 1 1-2 9-3z" fill="#13161A"/>
<path transform="translate(201,487)" d="m0 0h3v2l-4 1-1-2zm-3 2 1 3-4 1-1-2zm-6 3h2l-1 2zm-1 1 1 3-16 8h-5v2l-4 1-1-3 2-1h6v-2z" fill="#76858B"/>
<path transform="translate(245,409)" d="m0 0 3 3 2 7 2 3 1 5v12l-1 4h-2l-1-18-5-13z" fill="#697980"/>
<path transform="translate(315,610)" d="m0 0 12 5 8 4h2l-2 4-16 9-2-1 2-3-1-2 7-1 7-4-17-9z" fill="#0B0C0E"/>
<path transform="translate(270,608)" d="m0 0 9 4-3 1-6-2-4 1v2l6 2 26 14-2 2-26-14-5-3-4-1 3-3z" fill="#111417"/>
<path transform="translate(137,594)" d="m0 0 1 4 4-1v4l-1 2-9 3-1 2h-2l-1 4-5-3v-2h2v-2l8-3 2-1v-6z" fill="#14171B"/>
<path transform="translate(261,363)" d="m0 0h2v2l-15 8-8 7-5 10v11h-2l-1-3v-7l2-7 9-10 14-9z" fill="#0A0B0C"/>
<path transform="translate(606,252)" d="m0 0h7l6 2 2 8-2 2h-3l2 4 5 2-1 3-6-2-3-5 3-4v-5l-10-3z" fill="#16191B"/>
<path transform="translate(587,507)" d="m0 0 10 1 8 4 2 5-3 5-10 4-8-1v-1l12-2 5-1v-6l-4-3-12-3z" fill="#4B5F6D"/>
<path transform="translate(158,659)" d="m0 0 9 3 15 6 6 3v2l-6-1-18-7-6-3z" fill="#2C3033"/>
<path transform="translate(272,634)" d="m0 0 6 2 3 2v10l-6-2-4-4 2-1-1-2z" fill="#425868"/>
<path transform="translate(460,600)" d="m0 0 3 1-1 5v1l-9 3-2 1v-3l-4 4-1-3 3-5z" fill="#3F5460"/>
<path transform="translate(93,500)" d="m0 0h2l3 3 5 2 7 1 4 5 1 4 4 1-4 1-6-8-6-1 1 2v10h-2v-7l-3-6-6-4z" fill="#0B0C0E"/>
<path transform="translate(828,366)" d="m0 0 5 1 17 9 8 4-2 3-23-12-6-3z" fill="#21282E"/>
<path transform="translate(525,646)" d="m0 0 3 1 2 2-10 3-2 1-1 5 4 1 9 4 1 2-8-1-6-3-2-4v-5l5-4z" fill="#4E626E"/>
<path transform="translate(644,241)" d="m0 0 5 1 1 5 4 1-5 2-2-2v-4l-2 1-2 5-4-1v-3l-4 1v-3h-2v-2h6l1 3z" fill="#33383B"/>
<path transform="translate(357,590)" d="m0 0 6 1v27h-1v-14l-4-1-1-5z" fill="#2A343F"/>
<path transform="translate(668,588)" d="m0 0h6l-2 2-16 5-11 4-5 3h-2l1-3 12-6z" fill="#748389"/>
<path transform="translate(308,656)" d="m0 0h3l5 11-4-1-1 2-3 1-5-6 1-3z" fill="#415769"/>
<path transform="translate(711,573)" d="m0 0 2 2-5 2-27 5h-4v-2l13-3 14-2z" fill="#5A6C73"/>
<path transform="translate(495,740)" d="m0 0 5 2 3 3v2l-5-2-3-2-2 4-9 4 3 2h-9l5-5z" fill="#1E222A"/>
<path transform="translate(338,608)" d="m0 0 5 1 5 2 3 1 5-3 2 1-8 5-13 8-2-1 3-5 6-4-6-4z" fill="#161A1F"/>
<path transform="translate(686,349)" d="m0 0h5l2 2 5 2v2l-3 2 1 2-2 2-5-3-4-6z" fill="#7C8B92"/>
<path transform="translate(704,289)" d="m0 0h4v2h-3l2 5-4 1h-5l2 6-3 1h-5l-1 3h-3l2-5 4-2 4-6 6-1z" fill="#121418"/>
<path transform="translate(555,775)" d="m0 0h3v3l-22 4h-9v-2l2-1 21-3z" fill="#282D2F"/>
<path transform="translate(304,733)" d="m0 0 20 9 8 4v2l-5-1-12-5-11-6z" fill="#2E3335"/>
<path transform="translate(234,578)" d="m0 0 5 2 1 2-2 3-3 1h-10l-5-3 2-4 2 1v3l9 2v-2h-7l1-3h7z" fill="#374B5C"/>
<path transform="translate(188,427)" d="m0 0 2 1-1 4-6 9-8 8-5 4-2-1 11-12 7-9z" fill="#212629"/>
<path transform="translate(902,436)" d="m0 0h13l-6 9-3 1-3-5-4-4z" fill="#3B4F53"/>
<path transform="translate(735,340)" d="m0 0 6 1 2 3-1 5h-7l-3-2 1-6z" fill="#0C0E0F"/>
<path transform="translate(81,549)" d="m0 0 3 1 1 4 3 1-3 5-3-1-1-4-3 4-2-5h-2l2 6-3-3-1-7 4 2 2 2z" fill="#0C0E10"/>
<path transform="translate(87,498)" d="m0 0 2 1-6 5 4 2v5l-3 1 1-4-7 3-6 1 4-5h2l2-4 2-3z" fill="#0A0B0C"/>
<path transform="translate(924,410)" d="m0 0h5v7l9-7h2l-1 3h-2l-2 4-7 5h-2v-7l-1-1v3h-2z" fill="#1E2428"/>
<path transform="translate(479,709)" d="m0 0h8l3 1 1 5h-13v-3l-11-1v-1z" fill="#75848A"/>
<path transform="translate(382,699)" d="m0 0 9 1 5 1 1-2 9 3-3 1v2h-7l-13-3z" fill="#455A6A"/>
<path transform="translate(537,652)" d="m0 0 9 1v4l-3 1h-13l-3-1v-3l7-1v4l2-1z" fill="#2E4356"/>
<path transform="translate(148,581)" d="m0 0 4 2 9 9 2 1v2l-4 1-10-9-3-4z" fill="#415667"/>
<path transform="translate(144,570)" d="m0 0h2v3h2l1 3 2 1v3l4 2 8 8 3 2-1 2-5-2-11-11v-3l-3-1z" fill="#7D8B90"/>
<path transform="translate(802,578)" d="m0 0h7l2 2-3 3-5 2h-6l-5 1 1-3z" fill="#415769"/>
<path transform="translate(510,525)" d="m0 0 1 3-14 28h-2l3-9 8-16z" fill="#51656F"/>
<path transform="translate(619,476)" d="m0 0h2l1 17v16h-2l-1-3z" fill="#4F636F"/>
<path transform="translate(193,560)" d="m0 0 12 2 5 5-4 4-2 1h-6l5-4v-3l-5-2h-13l1-2z" fill="#273B4F"/>
<path transform="translate(91,510)" d="m0 0 5 1 2 3-1 6-9-1-1-3z" fill="#415769"/>
<path transform="translate(258,437)" d="m0 0 2 1-1 8-7 11-8 7h-2l2-4 8-8 4-8z" fill="#5A6C73"/>
<path transform="translate(894,419)" d="m0 0 9 1 7 1 1 3 6 3v1l-6 1-17-9z" fill="#191F23"/>
<path transform="translate(326,357)" d="m0 0h1l-1 8-9 27-2 1 1-7 9-28z" fill="#5A6C73"/>
<path transform="translate(583,717)" d="m0 0 4 4v2h3l-1 5-8-1-2 2-2-3v-4l4-1z" fill="#131619"/>
<path transform="translate(427,701)" d="m0 0 15 2 13 1v2l-2 1h-9l-13-2-5-2z" fill="#77868B"/>
<path transform="translate(300,659)" d="m0 0h2l4 6 10 11h6l2 1-2 4h-3-3l-1-4-5-1-2-2h2l-10-13z" fill="#0E1013"/>
<path transform="translate(297,642)" d="m0 0m-2 1h2v2 1l-1 3-3 3 7 6h-3l-5-4-2 6h-1v-16l1 2h2v-2z" fill="#0E0F12"/>
<path transform="translate(647,623)" d="m0 0h2v4l1 4 2 1-2 2h-5l-1-2h-2l-1 2-4-6 1-3 3 2h3z" fill="#131619"/>
<path transform="translate(294,459)" d="m0 0h10v2l-17 4 2 5 5 2-1 2-7-3-2-5 5-5z" fill="#546771"/>
<path transform="translate(953,403)" d="m0 0 14 4 1 4h-13l-3-2-3-3 4-1z" fill="#464D52"/>
<path transform="translate(919,439)" d="m0 0h2l4 10 2 4-5-2-3-5v-2l-9 7-3-1 7-6z" fill="#0C0D0F"/>
<path transform="translate(222,576)" d="m0 0h11v1l-11 3-1 3 4 2h12l-1 3h-11l-6-3-1-1v-5z" fill="#576A72"/>
<path transform="translate(943,507)" d="m0 0 2 1-5 5-13 4h-1v-7l4-1 2 1h6z" fill="#415768"/>
<path transform="translate(79,502)" d="m0 0 2 1-5 5-3 4-5 5-6 8h-3l2-5 11-12z" fill="#494D51"/>
<path transform="translate(102,499)" d="m0 0h11l10 1-2 1v2l-5 1v2l-5-2-9-3z" fill="#3C5158"/>
<path transform="translate(968,482)" d="m0 0h1v21l-2-1-1-7-3 5-3 1 2-5 5-13z" fill="#08090A"/>
<path transform="translate(368,384)" d="m0 0h6l6 5v5l-6 4-8 1v-2l10-4v-4l-8-3z" fill="#536670"/>
<path transform="translate(259,359)" d="m0 0 2 1-2 3-9 3-9 1-2 2-1-6h6v-2l10 1z" fill="#3E5360"/>
<path transform="translate(489,297)" d="m0 0h5l-3 3-13 3-15 1v-5l6 1h9z" fill="#5A6C73"/>
<path transform="translate(485,651)" d="m0 0h2l2 6v16l-2 7v7l-2-3-1-7h2v-18z" fill="#070808"/>
<path transform="translate(339,595)" d="m0 0 6 2 12 7v3h-4l-10-5-1-5-3-1z" fill="#3E5463"/>
<path transform="translate(916,515)" d="m0 0h2l2 7-3 3-7 1-1-5 1-2 5-2z" fill="#20242C"/>
<path transform="translate(635,419)" d="m0 0 3 1 1 31-3-1z" fill="#526570"/>
<path transform="translate(261,615)" d="m0 0 2 1 1 3-5 2 7-1v3 2h-2l-1 2-11-6 4-3z" fill="#405664"/>
<path transform="translate(205,438)" d="m0 0 7 1 1 2-3 4-9 1-1-5z" fill="#28394B"/>
<path transform="translate(697,343)" d="m0 0 4 1 1 4v2l12 5v2l-6-1-13-7-2-4z" fill="#687980"/>
<path transform="translate(728,313)" d="m0 0h1v5l5 2 2 2-3 1-5-2-1 1h-7l-1 1h-5l5-6 7 1 1-4z" fill="#0F1213"/>
<path transform="translate(635,258)" d="m0 0 2 1v2h2v3l5-2v4l-10 3-2-3v-3l1-4z" fill="#3B4F54"/>
<path transform="translate(504,659)" d="m0 0h2v8l-3 12-2 1 1-8-3 9h-2v-6l3-4 3-11z" fill="#070809"/>
<path transform="translate(664,547)" d="m0 0h2l-1 10-6 21h-2l1-8z" fill="#5A6C73"/>
<path transform="translate(959,430)" d="m0 0 5 1 3 8 1 5h-2v-3l-5-1 1-6-6 3-4-4 6-2z" fill="#2B3035"/>
<path transform="translate(634,255)" d="m0 0 4 1 1 4h6l2 2v3h-3v-3l-5 2v-3h-2l-2-2h-2l1 6-2 1-2-1v-7z" fill="#0C0E10"/>
<path transform="translate(714,478)" d="m0 0h2l-2 9-7 19h-2l2-9 6-17z" fill="#4F636F"/>
<path transform="translate(931,383)" d="m0 0h2v8l-2-4-2 5h-3l3 3-1 7-2-3-5-9v-4h3l2 5h2l2-7z" fill="#474F56"/>
<path transform="translate(528,286)" d="m0 0 2 2-1 2-15 3-7 4h-2v-3l10-5z" fill="#5A6C73"/>
<path transform="translate(644,721)" d="m0 0 1 3-11 12-7 6h-2l2-4z" fill="#1A1E21"/>
<path transform="translate(509,584)" d="m0 0h2l-1 13-2 16-3-1 3-27z" fill="#536670"/>
<path transform="translate(933,557)" d="m0 0m-1 1m-1 1 1 3-11 8-8 5h-2l2-4z" fill="#2F3436"/>
<path transform="translate(388,484)" d="m0 0h2l-1 8-5 22h-2v-7l5-20z" fill="#51646F"/>
<path transform="translate(639,322)" d="m0 0 2 1 4 24v8h-2l-4-27z" fill="#5A6C73"/>
<path transform="translate(494,738)" d="m0 0 6 1 7 8-1 3-3-2-3-5-5-2-12 8h-3l6-5z" fill="#070808"/>
<path transform="translate(385,703)" d="m0 0 11 1 19 4 2 1v2l-19-3-13-4z" fill="#101417"/>
<path transform="translate(466,683)" d="m0 0 7 1 2 4 7 2 4 3h1v5h-2l-5-5-5-3-11-4v-2z" fill="#0C0E11"/>
<path transform="translate(302,595)" d="m0 0 6 1 1 3-4 2-1 3-12-6 2-2h7z" fill="#35464C"/>
<path transform="translate(528,373)" d="m0 0h2l-1 7-7 24-2-1 4-17z" fill="#51646F"/>
<path transform="translate(581,698)" d="m0 0m-2 1 3 1-4 3-15 6-8 2h-4v-2l20-6z" fill="#0F1215"/>
<path transform="translate(306,614)" d="m0 0 6 1 4-1v5h-3l8 4-2 3-12-6-1-3z" fill="#415768"/>
<path transform="translate(545,346)" d="m0 0 9 1 1 3-2 1h-13l-2-1 1-3z" fill="#273B4F"/>
<path transform="translate(148,565)" d="m0 0h3l1 6 2 1 11 12v2l-5-2-7-8-5-9z" fill="#63747B"/>
<path transform="translate(177,569)" d="m0 0 9 3h15l5-1-1 3-10 2-10-1-7-3z" fill="#596B72"/>
<path transform="translate(934,502)" d="m0 0h7l2 1-2 4-5 2-6-1v-4z" fill="#232D39"/>
<path transform="translate(778,486)" d="m0 0h6l3 2-1 4-7 1-4-2 1-4z" fill="#4E616D"/>
<path transform="translate(409,406)" d="m0 0h5l1 3-11 2-1 3 6 2-1 3-6-2-3-5 3-4z" fill="#4F636F"/>
<path transform="translate(306,589)" d="m0 0 5 2 7 3h10l-1 4h-2l7 3-1 3-23-12-2-1z" fill="#3F545F"/>
<path transform="translate(961,500)" d="m0 0v3l-9 11-9 8-2-1 11-12 6-7z" fill="#0C0D0F"/>
<path transform="translate(102,495)" d="m0 0h10l10 2 2 1v2h-11l-8-1v-1l6-1-12 1z" fill="#232C32"/>
<path transform="translate(199,391)" d="m0 0 8 1v4l-4 1h-8l-2-1 2-4z" fill="#3C5055"/>
<path transform="translate(496,687)" d="m0 0h2l1 18-7-1v-5l3-1v-8z" fill="#3D5264"/>
<path transform="translate(797,553)" d="m0 0 2 2-10 5-10 3h-5l-1-2 17-5z" fill="#5F7077"/>
<path transform="translate(103,508)" d="m0 0h6l4 5-1 2h-4l-3 8h-1z" fill="#3A4E56"/>
<path transform="translate(583,386)" d="m0 0 2 1v23l-3 1v-16z" fill="#4D616E"/>
<path transform="translate(469,317)" d="m0 0 2 1 4 25v5h-2l-2-9-2-17z" fill="#5A6C73"/>
<path transform="translate(502,733)" d="m0 0 3 1 2 5 10 4 1 3-7-1v2l-4-2-5-9z" fill="#0F1114"/>
<path transform="translate(897,517)" d="m0 0 1 4 1-2h8l1 1v5l-1 1h-5l-3-1-2-3z" fill="#212830"/>
<path transform="translate(910,504)" d="m0 0 3 2-7 5 1 4-4 1-1-2-1 4-2-1 1-5 8-7z" fill="#50666A"/>
<path transform="translate(927,454)" d="m0 0 2 3 1 6h2v4l2 1h-2l-1 4-3-2-1-5h-1l-1-8h2z" fill="#415668"/>
<path transform="translate(786,353)" d="m0 0 2 1v6h-13l-4-2h-12l1-2 12-1 2 2h9l2-1z" fill="#13161B"/>
<path transform="translate(249,321)" d="m0 0 4 1 3 5 1 5-2 3 4-2 5 2-2 3-5-1-3-1-1-8h-2v-3l-3 1z" fill="#435665"/>
<path transform="translate(635,602)" d="m0 0 3 1-12 13-4 4-2 5h-2l1-6 5-6 6-4 3-5z" fill="#7C8A8F"/>
<path transform="translate(126,474)" d="m0 0h4v2l-21 11-2-1 4-4z" fill="#292E31"/>
<path transform="translate(946,449)" d="m0 0h7l1 3v3l-3 2-6-1v-5l-2-1z" fill="#3D5259"/>
<path transform="translate(622,381)" d="m0 0 4 1 2 2h9l2 4-3 1h-7l-7-6z" fill="#415769"/>
<path transform="translate(603,348)" d="m0 0h2l-3 11-4 14h-2l1-9 5-15z" fill="#51646F"/>
<path transform="translate(285,348)" d="m0 0m-15 1 6 2v-2h9v2l-7 2-1 1h-13l-1-2h6z" fill="#0C0D0F"/>
<path transform="translate(324,678)" d="m0 0h2v3l4 2 8 5-3 1-4-1-2 5h-2l1-9-6-2z" fill="#0B0C0D"/>
<path transform="translate(659,664)" d="m0 0 1 2-10 19-5 3 2-5 6-10 4-8z" fill="#0B0D0F"/>
<path transform="translate(117,587)" d="m0 0 3 1-1 5h2v-2h2l-2 4-5 1-3 1-2-4 1-4 3 2z" fill="#181D22"/>
<path transform="translate(467,439)" d="m0 0h3l-3 9-6 16-2 1 1-7z" fill="#526670"/>
<path transform="translate(416,321)" d="m0 0h2l-3 9h-2l-2 5-4 4-5 3h-3v-2l9-6z" fill="#6C7C82"/>
<path transform="translate(448,309)" d="m0 0h6v2l-11 4-8 5h-2v2h-2l1-4 10-6z" fill="#6A7A80"/>
<path transform="translate(617,623)" d="m0 0 2 2-2 11-3 8-3 1 1-5 4-15z" fill="#5C6E75"/>
<path transform="translate(584,571)" d="m0 0h1l-1 11-4 16h-2l1-9 4-17z" fill="#526570"/>
<path transform="translate(731,535)" d="m0 0 7 1 2 1v2l-7 1h-7l-3-1v-2z" fill="#293D51"/>
<path transform="translate(345,475)" d="m0 0h2l-1 16-2 11h-2l1-13z" fill="#51646F"/>
<path transform="translate(945,480)" d="m0 0 3 1 1 4 2-1-1 6h-3-1v2l-4-2-1-5h3z" fill="#0C0E0F"/>
<path transform="translate(233,401)" d="m0 0h2l8 20v10l-2 1-1-11-7-17z" fill="#0F1215"/>
<path transform="translate(223,342)" d="m0 0 1 4-2 1 1 4h-3l-1 5 8 1-1 3-7-2-2-1 1-6v-3l2-4z" fill="#090A0B"/>
<path transform="translate(717,288)" d="m0 0 4 2v6h2v2l2 1-5 3-4-1v-3l3-1-1-5h-5v-3z" fill="#131719"/>
<path transform="translate(503,282)" d="m0 0h6v2l-17 4h-7l4-3 7-2z" fill="#75848A"/>
<path transform="translate(479,735)" d="m0 0 5 2v3l-2 1-19-2 3-2h8z" fill="#20242C"/>
<path transform="translate(872,522)" d="m0 0 2 2-2 4-8 6-3-3 9-8z" fill="#415768"/>
<path transform="translate(420,402)" d="m0 0 9 1 7 4 3 4v5l-3 2 1-6-5-4-12-4z" fill="#536670"/>
<path transform="translate(277,376)" d="m0 0 3 1-1 2-9 4-6 5-4 6-1-4 8-9z" fill="#707F85"/>
<path transform="translate(724,532)" d="m0 0h2v2l-5 1 1 5 5 3v1l-8-1-4-3 1-4 4-3z" fill="#283C50"/>
<path transform="translate(805,449)" d="m0 0 3 4 2 3v3l11 2v1h-13v-2l-3-1-1-7z" fill="#3C5054"/>
<path transform="translate(299,359)" d="m0 0m-6 1h6v2l-20 5h-3v-2z" fill="#6A7B81"/>
<path transform="translate(664,311)" d="m0 0h2v2l3 1 3 7 3 8 1 3-4-2-3-5-1-9-3-1z" fill="#738288"/>
<path transform="translate(484,681)" d="m0 0 2 3 1 7 4 6 1 5-4-4-3-4-3-3-7-3 3-1 6 2z" fill="#3E5464"/>
<path transform="translate(593,669)" d="m0 0h2v9l-3 6h-2l-2 4h-3l4-7 3-7z" fill="#708086"/>
<path transform="translate(950,443)" d="m0 0 5 1 2 5 1 3-2 2v-3l-9-1v-4z" fill="#111418"/>
<path transform="translate(851,442)" d="m0 0 4 1 14 8 2 1v2l-8-2-11-7z" fill="#708086"/>
<path transform="translate(671,425)" d="m0 0h8l3 3-3 2h-8l-4-1 1-3z" fill="#273B4F"/>
<path transform="translate(416,331)" d="m0 0 1 2-8 24-2 1 1-7 6-18z" fill="#5A6C73"/>
<path transform="translate(384,305)" d="m0 0 13 1v2l-8 1-1 1h-3v-2l-5 5-2-1 3-6z" fill="#14171C"/>
<path transform="translate(705,303)" d="m0 0 5 1 2 2 7 1v4l-10-1-1-4-5 1z" fill="#0C0E10"/>
<path transform="translate(540,707)" d="m0 0h5l-5 5-12 1-2-3 9-2z" fill="#415769"/>
<path transform="translate(475,598)" d="m0 0 9 1-2 2h-11l-4 1 1 3 5 2v2l-6-1-4-3v-3l6-3z" fill="#405665"/>
<path transform="translate(730,428)" d="m0 0h2l1 2v15l-1 4h-2z" fill="#4B5F6D"/>
<path transform="translate(561,274)" d="m0 0h7l17 4v2l-9-1-19-3z" fill="#13171C"/>
<path transform="translate(157,504)" d="m0 0m-1 1 1 3-15 11-2-2 8-7zm-17 13m-1 1 2 2-2 1z" fill="#77868C"/>
<path transform="translate(927,445)" d="m0 0 5 1-1 3 4 1-1 4 2 2-5 4-2-1-1-11z" fill="#0C0D0F"/>
<path transform="translate(668,419)" d="m0 0h10l1 2-16 3-6 4 1-4 6-4z" fill="#546771"/>
<path transform="translate(678,419)" d="m0 0 9 2 5 5-1 6-4 2 2-5v-3l-6-3-6-1z" fill="#51646F"/>
<path transform="translate(362,386)" d="m0 0h8l-2 2 3 3-3 2h-7l-3-1v-2l6-1v-2z" fill="#273B4F"/>
<path transform="translate(764,357)" d="m0 0h7l8 3v2h-7l-6 2-2-4z" fill="#3D515B"/>
<path transform="translate(271,319)" d="m0 0 3 3h7v2h-2v2l2 1v2l-4 1-1-4-5 1-1-1z" fill="#191C1F"/>
<path transform="translate(474,658)" d="m0 0 5 5 3 9h-2l-1 3-5-12z" fill="#080A0B"/>
<path transform="translate(150,612)" d="m0 0 3 2v6l-2 3h-3l-2-5v-3z" fill="#20262F"/>
<path transform="translate(352,613)" d="m0 0m-2 1h2l-1 3-18 10-5 3-2-1 22-14z" fill="#070808"/>
<path transform="translate(853,393)" d="m0 0 4 2 2 2 1-2h2l-1 4-2 4-2-1-1-1v4h-2l-1-2z" fill="#101215"/>
<path transform="translate(193,396)" d="m0 0h13l-1 3-6 3h-6z" fill="#20242C"/>
<path transform="translate(360,385)" d="m0 0h8v1l-8 2-5 1 1 5 2 1-6-1-2-1 1-4 5-3z" fill="#3C5164"/>
<path transform="translate(194,375)" d="m0 0 1 4-1 4v7h13l-2 2-10 1-3 1v-17z" fill="#111315"/>
<path transform="translate(478,369)" d="m0 0 2 2-9 20-2 1 1-6 7-16z" fill="#51646F"/>
<path transform="translate(406,329)" d="m0 0v3l-10 6-4 2-4-1 2-3 10-4z" fill="#5D6E75"/>
<path transform="translate(944,387)" d="m0 0h2l-1 9-1 4h-2v6h-1l-1-10z" fill="#30373D"/>
<path transform="translate(370,387)" d="m0 0 6 1 2 4-4 3-6 2h-8l-2-2 12-1 3-2-1-3z" fill="#2B3F53"/>
<path transform="translate(658,254)" d="m0 0h1v6l5 2 1 1v5l-2-3-1 2-7-1v-2h3l-2-6h2z" fill="#455158"/>
<path transform="translate(487,696)" d="m0 0 4 5 2-1v3l4 1 2 1-1 2-4-2v2h-2l-1 5h-1l-2-9-2-5z" fill="#161B22"/>
<path transform="translate(298,676)" d="m0 0 4 1 1 1v6l-5 1h-3l1-4h2l-1-4z" fill="#3C505A"/>
<path transform="translate(706,611)" d="m0 0 2 1-3 3-12 7-4 3-2-1 5-5 10-6z" fill="#080A0A"/>
<path transform="translate(159,599)" d="m0 0 7 4 1 4h-5v2l-4-1z" fill="#556870"/>
<path transform="translate(314,563)" d="m0 0h6l2 2v17h-1l-1-14-2 1-4-2-1-3z" fill="#20282F"/>
<path transform="translate(253,532)" d="m0 0h10l3 4-4 3h-8v-2l7-1 1-1h-7l-3-2z" fill="#556871"/>
<path transform="translate(810,394)" d="m0 0 6 2 4 3v2l-6-3-1 4-5-1-1-4 3-1z" fill="#66767D"/>
<path transform="translate(368,332)" d="m0 0 4 1-10 4-13 4h-3v-2l8-3 12-3z" fill="#111519"/>
<path transform="translate(437,780)" d="m0 0 15 2 3 1v2l-13-1-9-2z" fill="#292F33"/>
<path transform="translate(437,557)" d="m0 0h2l-1 9-5 13-2 1 2-9z" fill="#526570"/>
<path transform="translate(363,543)" d="m0 0h2l3 3 5 2 14 1v1h-8v2l-8-1-7-4z" fill="#4E626E"/>
<path transform="translate(272,470)" d="m0 0 14 7 4 1v2l-9-1-8-5z" fill="#51646F"/>
<path transform="translate(967,466)" d="m0 0h3l-1 7-2-1v-2l-13 1h-3l1-3 5 1 6-2z" fill="#08090A"/>
<path transform="translate(261,354)" d="m0 0h2v2h-2v3l-7 4-5-1-3-2 7-1 5-3z" fill="#0B0D0F"/>
<path transform="translate(249,325)" d="m0 0h2l-1 3-2 2 3 1h-4v2h-5l-5-3 1-3 8 1z" fill="#24292D"/>
<path transform="translate(435,299)" d="m0 0 3 1-4 3-19 9-1-2z" fill="#111417"/>
<path transform="translate(611,686)" d="m0 0 5 1 2 4-3 2h-6v-5z" fill="#4A6065"/>
<path transform="translate(174,606)" d="m0 0 6 2 11 5 10 3-2 2-10-3-15-7z" fill="#101316"/>
<path transform="translate(925,510)" d="m0 0h1l1 13-5 5h-3-6v-1l6-2 4-4 1-2z" fill="#212934"/>
<path transform="translate(840,504)" d="m0 0h2l-1 7-6 16h-2l3-11z" fill="#5A6C73"/>
<path transform="translate(170,486)" d="m0 0 3 1-20 11-5 2 5-5z" fill="#0C0E0F"/>
<path transform="translate(722,333)" d="m0 0h3l1 6h3l2 4-1 3-7-4z" fill="#415767"/>
<path transform="translate(626,312)" d="m0 0 10 1 10 5v3l-12-5-8-2z" fill="#63747B"/>
<path transform="translate(565,250)" d="m0 0 4 2-1 7 9 1v2l-9-1-4-4v-6z" fill="#0C0E0F"/>
<path transform="translate(491,715)" d="m0 0h2v9l-3 7-2 1h-7v-2l7-2 2-4v-8z" fill="#080909"/>
<path transform="translate(381,695)" d="m0 0 10 2 6 2-1 3-13-3-3-3z" fill="#6D7D83"/>
<path transform="translate(603,655)" d="m0 0 4 1 1 5-4 7h-2l1-4 2-6-6 4v-3z" fill="#7B898F"/>
<path transform="translate(131,608)" d="m0 0h4l2 4 3 1v2l2 1-5 1-7-4z" fill="#232D3A"/>
<path transform="translate(250,531)" d="m0 0 4 1-1 1 4 1h5l1 2-2 1h-7v2l-4-2v-4z" fill="#394D5E"/>
<path transform="translate(924,513)" d="m0 0h1v6l-4 6-3 2-4-1 5-2-1-9 2-1 2 6z" fill="#070808"/>
<path transform="translate(581,511)" d="m0 0h3l-1 3-7 1v3l7 1-1 3-7-2-2-5 4-3z" fill="#4F636E"/>
<path transform="translate(98,506)" d="m0 0 4 4 1 4-1 6h2l-1 5h-2l-2-12-2-3z" fill="#1E242D"/>
<path transform="translate(102,488)" d="m0 0 2 1-2 4h11l4 2v2l-5-1h-13v-5z" fill="#0B0C0D"/>
<path transform="translate(272,484)" d="m0 0 2 1-3 20-2 1v-8l2-13z" fill="#51646F"/>
<path transform="translate(751,371)" d="m0 0 5 1 14 5v2l-7-1-14-5z" fill="#748389"/>
<path transform="translate(237,337)" d="m0 0 5 1v5l-4-2-2 6-3 1v-6l2-1z" fill="#0F1114"/>
<path transform="translate(389,289)" d="m0 0 4 1-10 6-8 2 2-4z" fill="#2A2E31"/>
<path transform="translate(527,752)" d="m0 0 5 1v6l1 5-4-2-2-2z" fill="#090A0B"/>
<path transform="translate(540,704)" d="m0 0h11v1l-10 1zm-4 1h4v3l-5 1h-9l3-2z" fill="#9DA8AC"/>
<path transform="translate(220,467)" d="m0 0h2v2l-13 8-4 1-1-2 13-8z" fill="#718187"/>
<path transform="translate(931,386)" d="m0 0h1v8l-2 4-2 8-2 1 1-10h2v-2l-3-1v-2h3z" fill="#121518"/>
<path transform="translate(689,307)" d="m0 0 4 1-1 6 5 2v4l-4-1-4-4z" fill="#0B0C0E"/>
<path transform="translate(389,765)" d="m0 0 6 1 10 4 1 3-11-3-6-2z" fill="#1D2225"/>
<path transform="translate(187,604)" d="m0 0 10 3v2l9 1v2h-7l-3-1-2-2-6-2z" fill="#839196"/>
<path transform="translate(528,495)" d="m0 0h1l-1 8-4 13h-2l2-11 3-9z" fill="#526570"/>
<path transform="translate(802,382)" d="m0 0 6 2 13 7 4 4h-3l-14-8-6-3z" fill="#0D0F11"/>
<path transform="translate(664,302)" d="m0 0 4 2 8 7 5 9-2 1-5-8-9-8-2-2z" fill="#121518"/>
<path transform="translate(563,251)" d="m0 0h1l2 7 1 4h-8v-2h-2v-6l5 5z" fill="#3B4F54"/>
<path transform="translate(530,648)" d="m0 0h16l5 2v2l-6-1-16-1z" fill="#283C50"/>
<path transform="translate(476,619)" d="m0 0 1 2-3 6-5 4-4-1v-2l3-1 2-3h2v-2z" fill="#415666"/>
<path transform="translate(856,583)" d="m0 0 5 1-1 5-5 2-2-2 1-4z" fill="#0C0E10"/>
<path transform="translate(844,529)" d="m0 0h2l-1 3-11 7-6 1v-2l12-6z" fill="#5A6C73"/>
<path transform="translate(204,512)" d="m0 0 1 4-3 5-2 1h-9v-1h5l1-3h2v-2l4-1z" fill="#3C5051"/>
<path transform="translate(418,645)" d="m0 0 3 1 2 11v6l-3-1z" fill="#4F636F"/>
<path transform="translate(404,609)" d="m0 0h2v8l-3 11h-2l1-9z" fill="#536670"/>
<path transform="translate(302,591)" d="m0 0 8 3v2l-6 1h-3l-5-1 3-3z" fill="#3E535D"/>
<path transform="translate(131,544)" d="m0 0h2l3 12 2 4 2 1-1 3-6-7-2-6z" fill="#617279"/>
<path transform="translate(469,508)" d="m0 0h2l-1 12-2 8h-2l2-16z" fill="#526670"/>
<path transform="translate(517,438)" d="m0 0 4 2 17 2-3 2h-12l-6-4z" fill="#536670"/>
<path transform="translate(703,365)" d="m0 0 22 1 1 2h-19l-4-2z" fill="#A6AFB3"/>
<path transform="translate(530,732)" d="m0 0 8 1v1l-8 1v2l3 2-7-1v-1l-9-1v-1l10-2z" fill="#0D0F11"/>
<path transform="translate(488,731)" d="m0 0h2l-2 5-12-1-3-1 3-2z" fill="#262E39"/>
<path transform="translate(129,562)" d="m0 0 5 5 12 16h-3l-13-17z" fill="#101215"/>
<path transform="translate(778,410)" d="m0 0 2 1 2 14v8l-2-2-2-12z" fill="#5A6C73"/>
<path transform="translate(252,381)" d="m0 0 3 1-3 1-3 10-2 5-2-2 2-9z" fill="#596B72"/>
<path transform="translate(639,278)" d="m0 0 4 1 3 1-1 6-6-1-1-6z" fill="#415768"/>
<path transform="translate(548,655)" d="m0 0h2l-1 4-4 2-7 1-4-1v-2l9-2z" fill="#546771"/>
<path transform="translate(246,647)" d="m0 0 12 1-3 2-4 1-2-1v2h-5l-1-4z" fill="#41565F"/>
<path transform="translate(687,589)" d="m0 0 2 1v2l-20 5v-3z" fill="#111317"/>
<path transform="translate(289,566)" d="m0 0h2l-1 9-2 9-2 1v-7z" fill="#52656F"/>
<path transform="translate(230,469)" d="m0 0 3 1-4 4-10 5-3-1 9-6z" fill="#5D6F76"/>
<path transform="translate(780,431)" d="m0 0 1 2h2l2 9v7l-2-1-3-13z" fill="#4E626E"/>
<path transform="translate(495,255)" d="m0 0 3 1-4 3-5 3-4 5-3 1 2-5 9-7z" fill="#101215"/>
<path transform="translate(308,623)" d="m0 0 9 3 3 3-5 3h-2v-4l-6-3z" fill="#3D525A"/>
<path transform="translate(189,454)" d="m0 0 5 1 1 6-3-2-4 4-4-3v-2l5 1z" fill="#0E1113"/>
<path transform="translate(900,430)" d="m0 0 2 1-3 3 3 3h-13l3-3z" fill="#090B0C"/>
<path transform="translate(540,426)" d="m0 0 9 2 6 4 1 2-5-1-7-3-5-1z" fill="#50646F"/>
<path transform="translate(672,274)" d="m0 0 5 1 9 5-2 3-13-7z" fill="#3A3F43"/>
<path transform="translate(510,744)" d="m0 0 15 4v1l-13 1z" fill="#3C515B"/>
<path transform="translate(516,731)" d="m0 0h21v1l-10 2h-13z" fill="#3A4D5C"/>
<path transform="translate(341,676)" d="m0 0 7 1 9 3v2l-12-2-4-2z" fill="#859298"/>
<path transform="translate(556,540)" d="m0 0 3 1 1 14-2 3-1-1z" fill="#50636F"/>
<path transform="translate(93,508)" d="m0 0 5 2 2 3 1 10h-2l-3-11-5-2z" fill="#0D1012"/>
<path transform="translate(789,511)" d="m0 0h2l-2 16-2 3-1-5 2-12z" fill="#546770"/>
<path transform="translate(587,507)" d="m0 0 10 1 6 3-1 3-7-3-8-2z" fill="#526570"/>
<path transform="translate(411,481)" d="m0 0 2 1v2l-3 1v3l5 2-2 3-6-3-1-4z" fill="#50636F"/>
<path transform="translate(492,466)" d="m0 0 2 1-1 3h11l1-2-1 4-6 2-7-2-1-4z" fill="#556871"/>
<path transform="translate(249,442)" d="m0 0 2 1-2 5-6 7h-3l2-4 6-7z" fill="#5A6C73"/>
<path transform="translate(214,415)" d="m0 0h7v6l3 6-2 6h-1v-8l-3-4v-4h-4z" fill="#0E1012"/>
<path transform="translate(412,311)" d="m0 0 3 1-14 8-6 2v-2z" fill="#0C0E0F"/>
<path transform="translate(524,282)" d="m0 0h15l1 2-8 1h-9z" fill="#859298"/>
<path transform="translate(210,669)" d="m0 0h5l1 5-4 2-3-2z" fill="#0A0B0C"/>
<path transform="translate(745,631)" d="m0 0h4v3l-11 2h-4l1-3z" fill="#2C3134"/>
<path transform="translate(371,623)" d="m0 0h2l-1 4-7 3h-8v-2l12-3z" fill="#4F636E"/>
<path transform="translate(332,606)" d="m0 0 12 6-2 2-5-1-6-5z" fill="#3B505E"/>
<path transform="translate(803,576)" d="m0 0 9 1 2 2-3 1-2-1h-7l-8 4-1-2z" fill="#14171B"/>
<path transform="translate(81,549)" d="m0 0 3 1 1 4 3 1-3 5-3-1v-7h-2z" fill="#101215"/>
<path transform="translate(572,522)" d="m0 0 14 2 4 2-4 1-13-2z" fill="#546770"/>
<path transform="translate(897,468)" d="m0 0 3 1 3 4 1 9-2 1-4-11z" fill="#627379"/>
<path transform="translate(524,431)" d="m0 0h8v2l-16 4 1-3z" fill="#51646F"/>
<path transform="translate(946,405)" d="m0 0 1 2h-2l-2 4-9 9h-2l1-3 6-5v-5l1 2z" fill="#445869"/>
<path transform="translate(245,382)" d="m0 0h2l-3 6-1 9-3-1 1-9z" fill="#5E6F76"/>
<path transform="translate(384,332)" d="m0 0 3 1-4 3-11 5-2-2z" fill="#5A6C73"/>
<path transform="translate(353,742)" d="m0 0 5 1 1 5-4 1-4-3z" fill="#0B0D0F"/>
<path transform="translate(486,687)" d="m0 0h2l3 6 4 1v4l-4 2-4-8z" fill="#0D0F11"/>
<path transform="translate(333,623)" d="m0 0 2 1-18 11-4 1 4-4z" fill="#20242C"/>
<path transform="translate(783,570)" d="m0 0m-6 1h6v2l-20 4 3-3z" fill="#0E1215"/>
<path transform="translate(394,547)" d="m0 0 2 1-3 3-4 1h-10v-2l11-2z" fill="#556871"/>
<path transform="translate(377,538)" d="m0 0h5v3l-8 2 1 4-4-3 1-4z" fill="#50646F"/>
<path transform="translate(414,484)" d="m0 0h9v1l-6 1-1 2h7v2h-8l-3-2z" fill="#556871"/>
<path transform="translate(963,445)" d="m0 0h3l2 3 1 6h-6l-1-7z" fill="#161A20"/>
<path transform="translate(535,431)" d="m0 0 9 2 2 2-1 5-5 2v-2l3-2v-2l-9-3z" fill="#536670"/>
<path transform="translate(838,415)" d="m0 0 4 5 6 8 6 5-2 2-11-11-3-6z" fill="#0A0C0D"/>
<path transform="translate(245,409)" d="m0 0 3 3 2 7 1 6h-2l-5-13z" fill="#77868B"/>
<path transform="translate(844,374)" d="m0 0 5 1 9 5-2 3-12-7z" fill="#2C3134"/>
<path transform="translate(529,350)" d="m0 0 5 3 11 2-3 1v2l-9-2-4-3z" fill="#4F636F"/>
<path transform="translate(269,333)" d="m0 0 4 1 2 4-1 4-4-4-4-1v-3z" fill="#0F1214"/>
<path transform="translate(264,318)" d="m0 0h5l-5 6h-2v-2h-4v2h-2l1-5h6z" fill="#1C2023"/>
<path transform="translate(493,260)" d="m0 0 7 1 5 2v2l-6 1-6-4z" fill="#3D5155"/>
<path transform="translate(630,246)" d="m0 0h2l1 4-6 2-1 4h-3v-3h2l1-5z" fill="#191D20"/>
<path transform="translate(427,701)" d="m0 0 14 2-1 3-9-1-5-2z" fill="#6B7B81"/>
<path transform="translate(686,584)" d="m0 0h7l-1 2-9 2h-8v-2z" fill="#96A1A5"/>
<path transform="translate(949,544)" d="m0 0m-1 1m-1 1m-1 1m-1 1m-1 1 1 4-9 7-1-3z" fill="#2C3032"/>
<path transform="translate(913,528)" d="m0 0h5l-2 3-1 1h-5v2h-5l2-1 1-4z" fill="#42586A"/>
<path transform="translate(891,527)" d="m0 0 5 1v3l-4 2h-5l2-5z" fill="#3D5158"/>
<path transform="translate(955,394)" d="m0 0 2 1 1 5-4 3v-2l-5 3 2-4-1-2z" fill="#545F68"/>
<path transform="translate(794,387)" d="m0 0 5 1 9 4-1 2-10-3-3-1z" fill="#66777D"/>
<path transform="translate(512,347)" d="m0 0 2 2-5 14h-3l5-15z" fill="#51656F"/>
<path transform="translate(704,289)" d="m0 0h4v2h-3l2 5-4 1-6-1 1-2 6-1z" fill="#0E1012"/>
<path transform="translate(540,283)" d="m0 0h9l1 3h-16l-3 2-1-2h2v-2z" fill="#5A6C73"/>
<path transform="translate(633,242)" d="m0 0h6l1 1v5l4-2-1 4-4-1v-3l-4 1v-3h-2z" fill="#1B1F25"/>
<path transform="translate(555,775)" d="m0 0h3v3l-10 2h-4l1-3z" fill="#2A2F30"/>
<path transform="translate(643,607)" d="m0 0v3l-10 11-2-1 6-8z" fill="#0D0F11"/>
<path transform="translate(129,604)" d="m0 0 3 1-1 3h-2l-1 4-5-3v-2h2v-2z" fill="#1C232A"/>
<path transform="translate(229,578)" d="m0 0 5 1v1l-7 1-1 2h7v2l-9-1-2-3 2-2z" fill="#586A72"/>
<path transform="translate(834,544)" d="m0 0m-2 1h2l-1 3-6 2-1-2zm-8 4h2v2l-4 1-1-2zm-6 2h3v2l-3-1zm-2 1h2v2h-2z" fill="#9CA6AA"/>
<path transform="translate(371,535)" d="m0 0h5v2l-9 4h-2v2h-2l2-5z" fill="#536670"/>
<path transform="translate(907,504)" d="m0 0 1 2-8 7-1 4 3 1-2 3h-2l-1-7 4-6z" fill="#111417"/>
<path transform="translate(894,458)" d="m0 0 7 4 6 5 2 4h-3l-5-6-7-5z" fill="#0E1012"/>
<path transform="translate(563,456)" d="m0 0h2v9l-1 7-2 1v-12z" fill="#526670"/>
<path transform="translate(853,434)" d="m0 0 5 2 13 8v2l-6-2-12-8z" fill="#0E1012"/>
<path transform="translate(668,423)" d="m0 0 4 1-1 2-3 1-1 2 4 1-1 2-5-2-1-4z" fill="#4D616E"/>
<path transform="translate(391,416)" d="m0 0 5 2 9 3-1 3-10-3-3-3z" fill="#50646F"/>
<path transform="translate(396,404)" d="m0 0h3l-1 3-6 4-1 5-2-1v-5l5-5z" fill="#526570"/>
<path transform="translate(348,304)" d="m0 0h6v2l-13 3-4-1z" fill="#25292C"/>
<path transform="translate(610,685)" d="m0 0h6l4 1v2l-3 1-2-2-5 1-1 5 4 1-4 1-2-2 1-7z" fill="#121519"/>
<path transform="translate(249,622)" d="m0 0 3 1-2 4h-2l2 2h-2l-1 2-3-2 1-5z" fill="#405565"/>
<path transform="translate(853,547)" d="m0 0h1l1 8-5-1-4-1v-2z" fill="#415768"/>
<path transform="translate(917,505)" d="m0 0 3 2-1 6-1 2-5-1v-2h2z" fill="#3B4F52"/>
<path transform="translate(423,484)" d="m0 0 4 2v2l-4 2v-2h-7l1-3z" fill="#3D5160"/>
<path transform="translate(698,349)" d="m0 0 4 1 12 5v2l-6-1-10-5z" fill="#879499"/>
<path transform="translate(455,273)" d="m0 0h6l-1 4-1 1h-7l2-4z" fill="#40555D"/>
<path transform="translate(510,781)" d="m0 0h9l8 1v1l-19 1z" fill="#3E4549"/>
<path transform="translate(568,692)" d="m0 0h5l-3 3-5 2h-6v-2z" fill="#67787E"/>
<path transform="translate(273,628)" d="m0 0 10 4-2 4-5-2-4-3z" fill="#415769"/>
<path transform="translate(162,610)" d="m0 0h7l1 3 3-1 2 2-9 1z" fill="#465C65"/>
<path transform="translate(277,606)" d="m0 0 3 1v4l3 1-4 2v-2l-6-2v-2z" fill="#3E535D"/>
<path transform="translate(142,590)" d="m0 0 2 4 1 4h-3-4l1-5z" fill="#394F60"/>
<path transform="translate(701,586)" d="m0 0h5v2l-13 3h-5l1-2z" fill="#0A0C0D"/>
<path transform="translate(509,584)" d="m0 0h2l-1 13-3 1 1-13z" fill="#4F626E"/>
<path transform="translate(183,504)" d="m0 0 3 1-2 2 2 8h2v2l-5-2-2-4z" fill="#536A6B"/>
<path transform="translate(489,297)" d="m0 0h5l-3 3-7 2h-6l1-2z" fill="#67787E"/>
<path transform="translate(419,679)" d="m0 0h2v15l-2 1-1-14z" fill="#5A6C73"/>
<path transform="translate(711,573)" d="m0 0 2 2-5 2-11 1v-2z" fill="#5E7077"/>
<path transform="translate(187,565)" d="m0 0h13l1 3-9 1 4-1v-2l-9 2z" fill="#273B4F"/>
<path transform="translate(375,534)" d="m0 0h13v3h-12z" fill="#4F636F"/>
<path transform="translate(154,516)" d="m0 0h2v2l-6 4-5 6-1-3 2-3h2l2-4z" fill="#7B898F"/>
<path transform="translate(111,504)" d="m0 0 4 2 3 9h-3l-5-9z" fill="#212A30"/>
<path transform="translate(861,383)" d="m0 0 4 1 7 4 1 3-6-2-7-4z" fill="#2E3336"/>
<path transform="translate(726,375)" d="m0 0h3v14l-2-1z" fill="#5A6C73"/>
<path transform="translate(763,337)" d="m0 0 9 2 3 2v2h2l-1 2-13-6z" fill="#292E31"/>
<path transform="translate(289,337)" d="m0 0 3 1-2 5h-2l1 4-4 4 1-9z" fill="#0A0C0D"/>
<path transform="translate(383,308)" d="m0 0h2l3 4-6 3h-5z" fill="#3C5156"/>
<path transform="translate(422,776)" d="m0 0 11 3v2l-8-1-7-2z" fill="#383E40"/>
<path transform="translate(522,720)" d="m0 0h9l-5 5-4 1 1-2-2-2z" fill="#0A0C0D"/>
<path transform="translate(495,672)" d="m0 0 2 3v6l3-1-1 7h-3z" fill="#2A3744"/>
<path transform="translate(177,667)" d="m0 0 5 1 6 3v2l-6-1-5-2z" fill="#2E3234"/>
<path transform="translate(470,637)" d="m0 0 2 1-1 12-2 2-1-2 1-12z" fill="#51646F"/>
<path transform="translate(301,639)" d="m0 0 5 1-3 3-6 5-3-2 3-1 1-4z" fill="#15191E"/>
<path transform="translate(263,620)" d="m0 0 3 1v4h-2l-1 2-5-3v-3z" fill="#3F545D"/>
<path transform="translate(360,612)" d="m0 0h1l1 8h-6l1-7z" fill="#222931"/>
<path transform="translate(213,612)" d="m0 0 15 3 1 2-10-1-6-2z" fill="#728187"/>
<path transform="translate(471,602)" d="m0 0h10l1 3h-11z" fill="#3E5363"/>
<path transform="translate(222,576)" d="m0 0h11v1l-11 3-3 3-1-4z" fill="#546770"/>
<path transform="translate(318,570)" d="m0 0h1v12l-4 1v-7l2-1z" fill="#2F3D4B"/>
<path transform="translate(140,572)" d="m0 0 8 8-1 3-7-6-1-4z" fill="#52656F"/>
<path transform="translate(933,557)" d="m0 0m-1 1m-1 1 1 3-8 6h-2l2-4z" fill="#292D2F"/>
<path transform="translate(87,498)" d="m0 0 2 1-6 5-1 3-5 1 4-7z" fill="#181B20"/>
<path transform="translate(714,478)" d="m0 0h2l-2 9-2 4h-2l2-9z" fill="#536670"/>
<path transform="translate(918,443)" d="m0 0 5 1 3 6 1 3-5-2z" fill="#0E1113"/>
<path transform="translate(733,405)" d="m0 0 4 1-2 1-1 3 11 1v1h-10l-5-3 1-3z" fill="#415769"/>
<path transform="translate(940,400)" d="m0 0h4v3h2v3l-4 3h-2z" fill="#0B0D0E"/>
<path transform="translate(787,376)" d="m0 0 5 1 10 4-1 3-14-6z" fill="#111317"/>
<path transform="translate(789,356)" d="m0 0h2l1 2 2 1-2 3 6 2 3 2-1 2-12-7z" fill="#181B21"/>
<path transform="translate(678,334)" d="m0 0 4 1 8 6 1 3h-3l-3-3-1-2-6-3z" fill="#818F94"/>
<path transform="translate(617,271)" d="m0 0 7 3v2l-2 1 1 2-3 1-3-3z" fill="#425867"/>
<path transform="translate(663,264)" d="m0 0h1l1 6 5 2-1 3-9-5z" fill="#181D20"/>
<path transform="translate(593,761)" d="m0 0 1 3-9 5h-2l2-4z" fill="#393D40"/>
<path transform="translate(640,726)" d="m0 0 1 3-9 9h-2l2-4z" fill="#262C2E"/>
<path transform="translate(651,711)" d="m0 0 1 3-6 9-2-3 6-8z" fill="#2A2E30"/>
<path transform="translate(357,707)" d="m0 0 6 1 1 4 4 1-1 3h-5l-1-6-4-2z" fill="#111417"/>
<path transform="translate(311,656)" d="m0 0 3 3v2h2l5 8-1 2-5-5-4-7z" fill="#7D8B91"/>
<path transform="translate(529,653)" d="m0 0h5v4l2 1-9-1v-3z" fill="#273B4F"/>
<path transform="translate(711,640)" d="m0 0m-2 1 4 2-10 5h-2l2-4z" fill="#3B4043"/>
<path transform="translate(155,610)" d="m0 0 5 1 1 2-3 3h-4l-1-5z" fill="#4A6069"/>
<path transform="translate(483,600)" d="m0 0 5 1 1 4-5 3-3-1 3-2z" fill="#273B4F"/>
<path transform="translate(168,596)" d="m0 0 6 2 8 6-2 1-12-7z" fill="#5A6C73"/>
<path transform="translate(144,590)" d="m0 0 7 2 1 4h-3l-1 2-4-6z" fill="#435A69"/>
<path transform="translate(664,547)" d="m0 0h2l-1 10-3 3-1-3z" fill="#51656F"/>
<path transform="translate(615,263)" d="m0 0h1l1 5 6 2-1 3-6-2-3-5z" fill="#0A0C0D"/>
<path transform="translate(583,246)" d="m0 0h7l7 3v2l-14-3z" fill="#272B2E"/>
<path transform="translate(509,781)" d="m0 0m-10 1h10l-1 2-3 1h-9z" fill="#292F32"/>
<path transform="translate(479,746)" d="m0 0 1 3-2 2h-3l-2 9h-1v-7l2-4z" fill="#26303C"/>
<path transform="translate(503,740)" d="m0 0 3 1 4 8-1 5-2-4-4-7z" fill="#212933"/>
<path transform="translate(414,720)" d="m0 0 9 1h6l2 2-10 1-7-1z" fill="#101215"/>
<path transform="translate(525,707)" d="m0 0 4 1v3l-1 1-1 2h-5l1-6z" fill="#566971"/>
<path transform="translate(493,663)" d="m0 0 2 1 2 6v5l-1-3h-3l-1-7z" fill="#08090A"/>
<path transform="translate(530,645)" d="m0 0h11l1 2-15 1z" fill="#566871"/>
<path transform="translate(343,614)" d="m0 0 2 1-3 5-5 3-2-1 3-5z" fill="#13171B"/>
<path transform="translate(469,597)" d="m0 0h9l-3 2-9 2-4 1 3-4z" fill="#596B72"/>
<path transform="translate(720,577)" d="m0 0h2v3l-2 1h-10v-2z" fill="#79888D"/>
<path transform="translate(891,525)" d="m0 0 4 1-6 2-2 5 3 1-4 1-1-4 4-5z" fill="#14171B"/>
<path transform="translate(107,506)" d="m0 0 4 1 4 6v2l4 1-4 1-8-10z" fill="#101215"/>
<path transform="translate(100,488)" d="m0 0 2 1-2 4-8 4-2-1 4-4z" fill="#2E3235"/>
<path transform="translate(306,472)" d="m0 0 4 1-1 2h-13l-1-2z" fill="#566871"/>
<path transform="translate(913,438)" d="m0 0 3 1-3 5-7 6-2-1 8-9z" fill="#0E1012"/>
<path transform="translate(556,436)" d="m0 0h2l-1 5-6 5-3 1 1-4 6-4z" fill="#536670"/>
<path transform="translate(206,438)" d="m0 0 6 1 1 2-2 3-5-1z" fill="#3D5158"/>
<path transform="translate(215,370)" d="m0 0 2 1-1 13-2-1v-11z" fill="#576A71"/>
<path transform="translate(735,342)" d="m0 0 5 1 1 4h-6l-2-1z" fill="#3B4E52"/>
<path transform="translate(410,278)" d="m0 0 2 1-4 4-6 3-2-1 4-4z" fill="#2D3135"/>
<path transform="translate(581,721)" d="m0 0 2 1v5h-2l-2 2-2-3v-4z" fill="#0C0E10"/>
<path transform="translate(463,712)" d="m0 0h13l2 2-2 1h-11z" fill="#445A68"/>
<path transform="translate(397,699)" d="m0 0 9 3-3 1v2h-3v-2l-4-2z" fill="#5A6C73"/>
<path transform="translate(247,626)" d="m0 0 5 2 5 3-4 2-5-2z" fill="#2C383E"/>
<path transform="translate(366,616)" d="m0 0 1 4-3 2h-8v-3h9z" fill="#51646F"/>
<path transform="translate(472,596)" d="m0 0h9l6 2-1 3-9-2v-1l-5-1z" fill="#4F636E"/>
<path transform="translate(876,592)" d="m0 0m-2 1h2v3l-8 4h-2l2-4z" fill="#191D1F"/>
<path transform="translate(191,562)" d="m0 0h7l3 1-1 3-10-1z" fill="#4E626E"/>
<path transform="translate(963,528)" d="m0 0 1 4-5 7-2-3z" fill="#2A2E30"/>
<path transform="translate(151,529)" d="m0 0 1 3-3 10h-2v-7l3-5z" fill="#5F7077"/>
<path transform="translate(912,516)" d="m0 0 4 1-3 2h-3l-1 5-2-4-5-1v-1z" fill="#090A0B"/>
<path transform="translate(933,500)" d="m0 0h7l1 2-9 2-4 3 1-5z" fill="#0B0C0E"/>
<path transform="translate(234,445)" d="m0 0 3 1-10 10-1-3z" fill="#111316"/>
<path transform="translate(909,411)" d="m0 0 4 1 6 4-2 3-9-6z" fill="#2B2F33"/>
<path transform="translate(826,409)" d="m0 0 2 1 3 9v3h-2l-3-6z" fill="#6A7A80"/>
<path transform="translate(253,405)" d="m0 0 2 1 4 10v4h-2l-4-12z" fill="#5A6C73"/>
<path transform="translate(714,357)" d="m0 0 7 1 5 3-1 3-8-4-3-1z" fill="#6F7F85"/>
<path transform="translate(768,355)" d="m0 0 5 1 5 2v1h-6l-1-1h-12l1-2z" fill="#101215"/>
<path transform="translate(689,353)" d="m0 0 7 5-2 3-5-3-2-4z" fill="#859297"/>
<path transform="translate(336,326)" d="m0 0h4v2l-4 1-5 5-5 1v-2l6-3z" fill="#0F1114"/>
<path transform="translate(249,327)" d="m0 0 4 1 1 2v6l-3 1v-7h-3z" fill="#12161B"/>
<path transform="translate(635,305)" d="m0 0 9 3 2 1-1 3-10-4z" fill="#5F7077"/>
<path transform="translate(320,676)" d="m0 0 4 1-2 4h-3-3l-1-3z" fill="#161A1F"/>
<path transform="translate(485,660)" d="m0 0h1v8l-2 13h-1l-2-9h3z" fill="#0E1214"/>
<path transform="translate(153,614)" d="m0 0 5 4 8 5-2 1-11-5z" fill="#08090A"/>
<path transform="translate(341,607)" d="m0 0 6 3 1-3 5 1-3 3-4 1-5-3z" fill="#3D525C"/>
<path transform="translate(117,587)" d="m0 0 3 1-1 5h2v-2h2l-2 4-3 1-2-3v-5z" fill="#0D0F11"/>
<path transform="translate(754,566)" d="m0 0h6v2l-2 1h-11l1-2z" fill="#5A6C73"/>
<path transform="translate(184,559)" d="m0 0h4v2l-8 3-2 1-2 3v-4l5-4z" fill="#5A6C73"/>
<path transform="translate(810,554)" d="m0 0h5v2l-8 3h-4v-2z" fill="#76858A"/>
<path transform="translate(270,535)" d="m0 0 1 3-5 4h-7l1-2 8-3z" fill="#566971"/>
<path transform="translate(665,477)" d="m0 0 3 1-4 2v12l-3-3 1-8z" fill="#42586A"/>
<path transform="translate(968,448)" d="m0 0 1 4 4 1 1 6-1-3-4 1-2-1z" fill="#586369"/>
<path transform="translate(828,431)" d="m0 0 5 1 5 4 1 3-5-2-6-4z" fill="#5A6C73"/>
<path transform="translate(961,407)" d="m0 0h6l1 4-9-1z" fill="#3C4043"/>
<path transform="translate(966,388)" d="m0 0h4l-2 4-4 2-2-2-2-1z" fill="#646A6E"/>
<path transform="translate(368,387)" d="m0 0 5 2v4l-5 2v-3l2-1-3-3z" fill="#4F636E"/>
<path transform="translate(759,385)" d="m0 0 7 1 4 2-1 3-10-4z" fill="#5A6C73"/>
<path transform="translate(728,331)" d="m0 0h2l1 6-2 3-3-1v-6z" fill="#131519"/>
<path transform="translate(290,318)" d="m0 0h6v2l-13 3v-2h3v-2z" fill="#202428"/>
<path transform="translate(721,291)" d="m0 0 1 4 6 2v5h-3v-4h-2v-2h-2z" fill="#384045"/>
<path transform="translate(483,243)" d="m0 0h5v2l-8 3-3-1v-2z" fill="#292E31"/>
<path transform="translate(661,691)" d="m0 0 1 4-4 8-2-1 3-9z" fill="#15191B"/>
<path transform="translate(337,618)" d="m0 0m-4 1h4l-2 4-7 4-2-1 6-5z" fill="#090B0B"/>
<path transform="translate(335,612)" d="m0 0 10 1-5 4-4 2v-4l-2-2z" fill="#2F3F45"/>
<path transform="translate(280,604)" d="m0 0 6 1 4 2v2l-6-1-5-2z" fill="#3D515B"/>
<path transform="translate(161,599)" d="m0 0 6 2 7 4-1 3-11-7z" fill="#0F1113"/>
<path transform="translate(879,468)" d="m0 0 5 2 4 4v3h-2l-5-5-2-1z" fill="#718086"/>
<path transform="translate(225,454)" d="m0 0 1 3-10 7h-2v-2z" fill="#0C0E0F"/>
<path transform="translate(934,431)" d="m0 0 4 2 4 4v2l-6-2-2-3z" fill="#3C5159"/>
<path transform="translate(556,349)" d="m0 0v3l-4 2h-7v-2z" fill="#566971"/>
<path transform="translate(546,238)" d="m0 0h7l5 1-2 1v2l-10-1z" fill="#494E52"/>
<path transform="translate(486,746)" d="m0 0m-2 1h2v3l-2 1 3 2h-9l5-5z" fill="#232A34"/>
<path transform="translate(513,725)" d="m0 0h7l-2 3-6 2-2-1v-3z" fill="#2B373F"/>
<path transform="translate(597,651)" d="m0 0h2l-2 6-4 5h-2l2-5 2-3h2z" fill="#7E8C91"/>
<path transform="translate(297,642)" d="m0 0m-2 1h2v2l-4 4h-4v-5l1 2h2v-2z" fill="#0B0E0F"/>
<path transform="translate(777,626)" d="m0 0m-8 1h8l3 2-12 1z" fill="#2F3539"/>
<path transform="translate(161,622)" d="m0 0 6 2v2l-9 1 2-4z" fill="#252E39"/>
<path transform="translate(150,612)" d="m0 0 2 2v5h-2l-1 2-2-6z" fill="#364A5C"/>
<path transform="translate(288,606)" d="m0 0 4 1-2 2v-2zm-1 3h3l3 3 4 3-2 1-7-4z" fill="#191F24"/>
<path transform="translate(143,599)" d="m0 0v3l1 4 3 3-5-1-4-3v-2h3z" fill="#090B0C"/>
<path transform="translate(802,578)" d="m0 0h7l2 2-3 3h-2v-3l-5 1z" fill="#4F6669"/>
<path transform="translate(934,502)" d="m0 0h4l-1 4-7 1v-3z" fill="#3F5460"/>
<path transform="translate(964,433)" d="m0 0h1l2 6 1 5h-2v-3l-5-1v-2l2-1z" fill="#343B3E"/>
<path transform="translate(432,418)" d="m0 0 3 1-3 3-7 2 2-4z" fill="#50636F"/>
<path transform="translate(204,400)" d="m0 0 3 3-1 3-4 3-1-7z" fill="#28353E"/>
<path transform="translate(931,383)" d="m0 0h2v8l-2-4-2 5h-5l2-3v2h2l2-7z" fill="#6A757B"/>
<path transform="translate(233,362)" d="m0 0h5l1 5-1 2-4-1z" fill="#324450"/>
<path transform="translate(547,344)" d="m0 0 8 1 3 3-1 2h-2l-1-2-7-2z" fill="#51646F"/>
<path transform="translate(689,318)" d="m0 0 5 1 3 1 1 3h-4l-5-3z" fill="#415663"/>
<path transform="translate(565,243)" d="m0 0h12l3 3-11-1z" fill="#1B1F22"/>
<path transform="translate(477,729)" d="m0 0h4v3l-7 2-1 2h-2v-3z" fill="#101215"/>
<path transform="translate(480,690)" d="m0 0 4 2 3 1v5h-2l-5-5z" fill="#111317"/>
<path transform="translate(298,676)" d="m0 0 4 1 1 5-1-2-3 2-3-1h2l-1-4z" fill="#32444D"/>
<path transform="translate(196,674)" d="m0 0 9 3v2l-9-2-2-2z" fill="#373D41"/>
<path transform="translate(298,647)" d="m0 0 4 2 4 4-1 2-8-5z" fill="#4E626E"/>
<path transform="translate(525,646)" d="m0 0 3 1 2 2-11 2 1-3z" fill="#51656F"/>
<path transform="translate(457,607)" d="m0 0h6l-4 2-9 5v-3z" fill="#415768"/>
<path transform="translate(59,526)" d="m0 0 1 3-3 9-2-2 1-7z" fill="#181D21"/>
<path transform="translate(134,510)" d="m0 0 3 1-7 9h-2l2-5z" fill="#111317"/>
<path transform="translate(95,501)" d="m0 0 5 1 10 3v1h-7l-8-4z" fill="#3E5465"/>
<path transform="translate(414,480)" d="m0 0h11v2l-13 1z" fill="#576971"/>
<path transform="translate(926,445)" d="m0 0 3 4 1 8h-2l-3-8z" fill="#252E39"/>
<path transform="translate(901,431)" d="m0 0h13v1l-11 2-5 1z" fill="#242C37"/>
<path transform="translate(940,413)" d="m0 0h3l-1 4-4 1-5 4 2-4z" fill="#202327"/>
<path transform="translate(410,401)" d="m0 0h11l-1 3-11-1z" fill="#4F636F"/>
<path transform="translate(739,376)" d="m0 0h7l5 3-4 1-8-3z" fill="#7F8D92"/>
<path transform="translate(238,363)" d="m0 0h6l2 1v2l-5 1-2 2z" fill="#3F5465"/>
<path transform="translate(809,358)" d="m0 0 7 1 4 3-4 1-7-4z" fill="#1D2327"/>
<path transform="translate(791,348)" d="m0 0 12 5-4 1-5-1-1-3h-2z" fill="#555B5F"/>
<path transform="translate(471,336)" d="m0 0 1 2h2l1 10h-2l-2-9z" fill="#4F636F"/>
<path transform="translate(252,336)" d="m0 0h5l2 4h-3l-2-1-3 1-1-3z" fill="#0D0F11"/>
<path transform="translate(260,329)" d="m0 0 4 1 1 4-5 1-1-4z" fill="#0D0F11"/>
<path transform="translate(706,324)" d="m0 0h6v2l3 1-11 1-1-3z" fill="#36484E"/>
<path transform="translate(651,304)" d="m0 0 9 2 2 4h-3v-2l-6-1-2-1z" fill="#79878D"/>
<path transform="translate(420,272)" d="m0 0h3l-1 3-7 4-2-1 4-4z" fill="#2A2E31"/>
<path transform="translate(630,274)" d="m0 0 11 3v1h-11z" fill="#0E1013"/>
<path transform="translate(511,262)" d="m0 0 2 4v3l-7 3v-2l-2-1 6-2z" fill="#161B20"/>
</svg>
